<svg width="104" height="101" viewBox="0 0 104 101" fill="none" xmlns="http://www.w3.org/2000/svg">
<path d="M27.144 16.1328H24.4634L23.8613 17.8027H22.9912L25.4346 11.4043H26.1729L28.6206 17.8027H27.7549L27.144 16.1328ZM24.7183 15.4385H26.8936L25.8037 12.4458L24.7183 15.4385Z" fill="#3E4899"/>
<path d="M20.1689 12.8545L6.75684 15.7468" stroke="#3E4899" stroke-width="0.283465" stroke-linejoin="round"/>
<path d="M47.0496 7.05859L28.6934 11.0183" stroke="#3E4899" stroke-width="0.283465" stroke-linejoin="round"/>
<path d="M52.4708 32.7042L46.7139 5.46289" stroke="#3E4899" stroke-width="0.283465" stroke-linejoin="round"/>
<path d="M12.1778 41.3928L6.4209 14.1572" stroke="#3E4899" stroke-width="0.283465" stroke-linejoin="round"/>
<path d="M47.0497 8.68264C47.9379 8.68264 48.658 7.95553 48.658 7.0586C48.658 6.16168 47.9379 5.43457 47.0497 5.43457C46.1615 5.43457 45.4414 6.16168 45.4414 7.0586C45.4414 7.95553 46.1615 8.68264 47.0497 8.68264Z" fill="#3E4899"/>
<path d="M6.75674 17.3711C7.64499 17.3711 8.36505 16.644 8.36505 15.7471C8.36505 14.8502 7.64499 14.123 6.75674 14.123C5.8685 14.123 5.14844 14.8502 5.14844 15.7471C5.14844 16.644 5.8685 17.3711 6.75674 17.3711Z" fill="#3E4899"/>
<path d="M68.1675 12.7188V6.32031H70.2593C70.9536 6.32031 71.4751 6.46387 71.8237 6.75098C72.1753 7.03809 72.3511 7.46289 72.3511 8.02539C72.3511 8.32422 72.2661 8.58936 72.0962 8.8208C71.9263 9.04932 71.6948 9.22656 71.4019 9.35254C71.7476 9.44922 72.02 9.63379 72.2192 9.90625C72.4214 10.1758 72.5225 10.498 72.5225 10.873C72.5225 11.4473 72.3364 11.8984 71.9644 12.2266C71.5923 12.5547 71.0664 12.7188 70.3867 12.7188H68.1675ZM69.0112 9.72607V12.0288H70.4043C70.7969 12.0288 71.106 11.9277 71.3315 11.7256C71.5601 11.5205 71.6743 11.2393 71.6743 10.8818C71.6743 10.1113 71.2554 9.72607 70.4175 9.72607H69.0112ZM69.0112 9.04932H70.2856C70.6548 9.04932 70.9492 8.95703 71.1689 8.77246C71.3916 8.58789 71.5029 8.3374 71.5029 8.021C71.5029 7.66943 71.4004 7.41455 71.1953 7.25635C70.9902 7.09521 70.6782 7.01465 70.2593 7.01465H69.0112V9.04932Z" fill="#3E4899"/>
<path d="M64.5489 7.76465L47.9941 11.2997" stroke="#3E4899" stroke-width="0.283465" stroke-linejoin="round"/>
<path d="M84.2981 3.54102L73.0684 5.9455" stroke="#3E4899" stroke-width="0.283465" stroke-linejoin="round"/>
<path d="M88.7821 24.9401L83.9629 1.95117" stroke="#3E4899" stroke-width="0.283465" stroke-linejoin="round"/>
<path d="M52.4774 32.6989L47.6582 9.70996" stroke="#3E4899" stroke-width="0.283465" stroke-linejoin="round"/>
<path d="M84.2968 5.16506C85.185 5.16506 85.9051 4.43796 85.9051 3.54103C85.9051 2.6441 85.185 1.91699 84.2968 1.91699C83.4085 1.91699 82.6885 2.6441 82.6885 3.54103C82.6885 4.43796 83.4085 5.16506 84.2968 5.16506Z" fill="#3E4899"/>
<path d="M47.994 12.9238C48.8823 12.9238 49.6023 12.1967 49.6023 11.2998C49.6023 10.4029 48.8823 9.67578 47.994 9.67578C47.1058 9.67578 46.3857 10.4029 46.3857 11.2998C46.3857 12.1967 47.1058 12.9238 47.994 12.9238Z" fill="#3E4899"/>
<path d="M61.5922 58.8388V72.1007L51.8287 74.9356V61.4556C33.4383 66.3851 19.1113 70.1266 19.1113 70.1266L21.197 93.5059C21.2659 94.2107 21.2198 94.9221 21.0606 95.6119C20.9282 96.2147 20.6812 96.7857 20.3332 97.2933C20.1365 97.5708 19.9033 97.8199 19.6399 98.0336L96.0429 73.8625C96.302 73.8252 96.5535 73.7458 96.7874 73.6272C97.1879 73.4074 97.5293 73.0922 97.7819 72.709C98.0595 72.2735 98.2523 71.7885 98.3502 71.2801C98.4745 70.69 98.5033 70.0834 98.4355 69.4839L96.3612 49.5536C96.7249 49.3528 80.9714 53.651 61.5922 58.8388Z" fill="url(#paint0_linear)" stroke="black" stroke-width="0.283465" stroke-linecap="round" stroke-linejoin="round"/>
<path d="M57.7234 70.4474L51.8301 74.935L61.5936 72.1001L67.8393 67.7158L57.7234 70.4474Z" fill="#251C13" stroke="black" stroke-width="0.283465" stroke-linecap="round" stroke-linejoin="round"/>
<path opacity="0.9" d="M51.8304 61.4562C52.6866 60.916 53.4699 60.266 54.1604 59.5222C54.8963 58.6493 55.5189 57.685 56.0131 56.6529C56.5512 55.5155 56.9592 54.3199 57.2293 53.0892C57.5199 51.7704 57.6667 50.4233 57.6669 49.0722C57.6735 47.2925 57.4129 45.5221 56.894 43.8213C56.4502 42.3005 55.7442 40.8707 54.8083 39.5977C54.002 38.5033 52.963 37.6052 51.7679 36.9694C50.7149 36.4267 49.5384 36.1753 48.358 36.2406L12.7139 43.9189C14.1047 43.7951 15.5035 44.0404 16.7716 44.6305C18.1367 45.2702 19.3558 46.1885 20.3519 47.3276C21.4777 48.6053 22.3808 50.0664 23.0229 51.6488C23.7437 53.3837 24.1942 55.2208 24.3585 57.0948C24.4861 58.4944 24.4499 59.9044 24.2505 61.2955C24.07 62.5707 23.732 63.818 23.2446 65.0084C22.8028 66.0942 22.2095 67.1107 21.4828 68.0269C20.8207 68.8696 20.0189 69.59 19.113 70.1559L51.8304 61.4562Z" fill="white"/>
<path opacity="0.9" d="M99.455 33.7896C98.8846 32.4477 98.1035 31.2075 97.142 30.1169C96.2849 29.1531 95.2453 28.3726 94.0845 27.8214C93.0196 27.3223 91.8447 27.1107 90.6746 27.2074C90.2279 27.2506 89.7875 27.345 89.3619 27.4886L58.1846 34.1511C59.3434 34.0894 60.4978 34.3368 61.5319 34.8684C62.7055 35.4901 63.7253 36.3708 64.5155 37.4451C65.4255 38.6736 66.1178 40.0522 66.5614 41.5195C67.0731 43.192 67.328 44.9338 67.3173 46.6843C67.32 48.016 67.177 49.3439 66.891 50.644C66.625 51.8525 66.2246 53.0268 65.6976 54.1445C65.2137 55.164 64.6026 56.1167 63.879 56.9794C63.2253 57.7235 62.4579 58.357 61.6058 58.8559L96.3918 49.5708C97.1467 49.0867 97.8138 48.4752 98.3638 47.7632C98.9633 46.9797 99.4493 46.114 99.8073 45.1923C100.203 44.1763 100.471 43.1139 100.603 42.0303C100.754 40.8422 100.766 39.6402 100.637 38.4494C100.48 36.8445 100.081 35.2732 99.455 33.7896Z" fill="white"/>
<path opacity="0.9" d="M66.5599 41.5186C66.1162 40.0513 65.424 38.6727 64.514 37.4442C63.7238 36.3698 62.704 35.4891 61.5304 34.8675C60.4313 34.3006 59.1968 34.0561 57.9671 34.1617L48.124 36.2735C49.381 36.1615 50.6437 36.4101 51.7669 36.9908C52.9597 37.62 53.9985 38.51 54.8073 39.5962C55.7361 40.8483 56.4419 42.2542 56.893 43.7509C57.4119 45.4517 57.6725 47.2221 57.6659 49.0018C57.6657 50.3529 57.5189 51.7 57.2283 53.0188C56.9582 54.2495 56.5502 55.4451 56.0121 56.5825C55.5179 57.6146 54.8953 58.5788 54.1594 59.4518C53.4689 60.1956 52.6857 60.8456 51.8294 61.3858L61.5929 58.7689C62.4473 58.2734 63.2152 57.6394 63.8661 56.8924C64.5897 56.0297 65.2008 55.077 65.6847 54.0575C66.2117 52.9398 66.6121 51.7655 66.8781 50.5569C67.1641 49.2569 67.3071 47.929 67.3044 46.5973C67.3102 44.8762 67.0592 43.1641 66.5599 41.5186Z" fill="url(#paint1_linear)"/>
<path d="M54.3647 65.7533L57.7234 70.4475L51.8301 74.9352V61.4551L54.3647 65.7533Z" fill="url(#paint2_linear)" stroke="black" stroke-width="0.283465" stroke-linecap="round" stroke-linejoin="round"/>
<path d="M57.7229 70.4481L54.3643 65.7539L64.4801 63.1084L67.8388 67.7165L57.7229 70.4481Z" fill="#6F7471" stroke="black" stroke-width="0.283465" stroke-linecap="round" stroke-linejoin="round"/>
<path d="M54.3647 65.7529L51.8301 61.4547L61.5936 58.8379L64.4806 63.1074L54.3647 65.7529Z" fill="#646561" stroke="black" stroke-width="0.283465" stroke-linecap="round" stroke-linejoin="round"/>
<path d="M57.7229 75.7044C57.2451 75.723 56.7773 75.8485 56.3533 76.0717C55.9241 76.3058 55.5393 76.6147 55.2166 76.9841C54.8716 77.3762 54.5914 77.8218 54.3869 78.304C54.1722 78.8114 54.038 79.3498 53.9891 79.8993C53.9382 80.436 53.9786 80.9775 54.1084 81.5004C54.2167 81.9717 54.4093 82.419 54.6768 82.8203C54.937 83.1948 55.2743 83.508 55.6656 83.7385C56.0644 83.9636 56.5105 84.0894 56.967 84.1058C57.4452 84.1152 57.9193 84.0152 58.3537 83.8131C58.8099 83.6002 59.221 83.3001 59.5642 82.9293C59.933 82.5336 60.2328 82.0776 60.4507 81.5808C60.6885 81.0533 60.8346 80.4884 60.8827 79.9108C60.9368 79.3485 60.8906 78.781 60.7463 78.2351C60.6183 77.7466 60.3962 77.2883 60.0927 76.8865C59.8134 76.515 59.4538 76.2127 59.0413 76.0028C58.6276 75.793 58.1686 75.6904 57.7058 75.7044" fill="#312A22"/>
<path d="M57.7229 75.7044C57.2451 75.723 56.7773 75.8485 56.3533 76.0717C55.9241 76.3058 55.5393 76.6147 55.2166 76.9841C54.8716 77.3762 54.5914 77.8218 54.3869 78.304C54.1722 78.8114 54.038 79.3498 53.9891 79.8993C53.9382 80.436 53.9786 80.9775 54.1084 81.5004C54.2167 81.9717 54.4093 82.419 54.6768 82.8203C54.937 83.1948 55.2743 83.508 55.6656 83.7385C56.0644 83.9636 56.5105 84.0895 56.967 84.1058C57.4452 84.1152 57.9193 84.0152 58.3537 83.8131C58.8099 83.6002 59.221 83.3001 59.5642 82.9293C59.933 82.5336 60.2328 82.0776 60.4507 81.5808C60.6885 81.0533 60.8346 80.4884 60.8827 79.9108C60.9368 79.3485 60.8906 78.781 60.7463 78.2351C60.6183 77.7466 60.3962 77.2883 60.0927 76.8865C59.8134 76.515 59.4538 76.2127 59.0413 76.0028C58.6276 75.793 58.1686 75.6904 57.7058 75.7044" stroke="black" stroke-miterlimit="10"/>
<path opacity="0.9" d="M51.8304 61.4562C52.6866 60.916 53.4699 60.266 54.1604 59.5222C54.8963 58.6493 55.5189 57.685 56.0131 56.6529C56.5512 55.5155 56.9592 54.3199 57.2293 53.0892C57.5199 51.7704 57.6667 50.4233 57.6669 49.0722C57.6735 47.2925 57.4129 45.5221 56.894 43.8213C56.4502 42.3005 55.7442 40.8707 54.8083 39.5977C54.002 38.5033 52.963 37.6052 51.7679 36.9694C50.7149 36.4267 49.5384 36.1753 48.358 36.2406L12.7139 43.9189C14.1047 43.7951 15.5035 44.0404 16.7716 44.6305C18.1367 45.2702 19.3558 46.1885 20.3519 47.3276C21.4777 48.6053 22.3808 50.0664 23.0229 51.6488C23.7437 53.3837 24.1942 55.2208 24.3585 57.0948C24.4861 58.4944 24.4499 59.9044 24.2505 61.2955C24.07 62.5707 23.732 63.818 23.2446 65.0084C22.8028 66.0942 22.2095 67.1107 21.4828 68.0269C20.8207 68.8696 20.0189 69.59 19.113 70.1559L51.8304 61.4562Z" fill="url(#paint3_linear)" stroke="black" stroke-width="0.283465" stroke-linecap="round" stroke-linejoin="round"/>
<path opacity="0.9" d="M99.455 33.7896C98.8846 32.4477 98.1035 31.2075 97.142 30.1169C96.2849 29.1531 95.2453 28.3726 94.0845 27.8214C93.0196 27.3223 91.8447 27.1107 90.6746 27.2074C90.2279 27.2506 89.7875 27.345 89.3619 27.4886L58.1846 34.1511C59.3434 34.0894 60.4978 34.3368 61.5319 34.8684C62.7055 35.4901 63.7253 36.3708 64.5155 37.4451C65.4255 38.6736 66.1178 40.0522 66.5614 41.5195C67.0731 43.192 67.328 44.9338 67.3173 46.6843C67.32 48.016 67.177 49.3439 66.891 50.644C66.625 51.8525 66.2246 53.0268 65.6976 54.1445C65.2137 55.164 64.6026 56.1167 63.879 56.9794C63.2253 57.7235 62.4579 58.357 61.6058 58.8559L96.3918 49.5708C97.1467 49.0867 97.8138 48.4752 98.3638 47.7632C98.9633 46.9797 99.4493 46.114 99.8073 45.1923C100.203 44.1763 100.471 43.1139 100.603 42.0303C100.754 40.8422 100.766 39.6402 100.637 38.4494C100.48 36.8445 100.081 35.2732 99.455 33.7896Z" fill="url(#paint4_linear)" stroke="black" stroke-width="0.283465" stroke-linecap="round" stroke-linejoin="round"/>
<path opacity="0.9" d="M66.5599 41.5186C66.1162 40.0513 65.424 38.6727 64.514 37.4442C63.7238 36.3698 62.704 35.4891 61.5304 34.8675C60.4313 34.3006 59.1968 34.0561 57.9671 34.1617L48.124 36.2735C49.381 36.1615 50.6437 36.4101 51.7669 36.9908C52.9597 37.62 53.9985 38.51 54.8073 39.5962C55.7361 40.8483 56.4419 42.2542 56.893 43.7509C57.4119 45.4517 57.6725 47.2221 57.6659 49.0018C57.6657 50.3529 57.5189 51.7 57.2283 53.0188C56.9582 54.2495 56.5502 55.4451 56.0121 56.5825C55.5179 57.6146 54.8953 58.5788 54.1594 59.4518C53.4689 60.1956 52.6857 60.8456 51.8294 61.3858L61.5929 58.7689C62.4473 58.2734 63.2152 57.6394 63.8661 56.8924C64.5897 56.0297 65.2008 55.077 65.6847 54.0575C66.2117 52.9398 66.6121 51.7655 66.8781 50.5569C67.1641 49.2569 67.3071 47.929 67.3044 46.5973C67.3102 44.8762 67.0592 43.1641 66.5599 41.5186Z" fill="url(#paint5_linear)" stroke="black" stroke-width="0.283465" stroke-linecap="round" stroke-linejoin="round"/>
<path d="M12.7124 43.9176C11.3552 44.0488 10.0559 44.5376 8.94453 45.3351C7.78896 46.1747 6.82089 47.2499 6.10299 48.4913C5.3085 49.8529 4.74386 51.3384 4.43218 52.8871C4.07987 54.5999 3.98408 56.3563 4.14802 58.0978C4.26419 59.4245 4.52141 60.7347 4.91524 62.0058C5.28869 63.2056 5.79183 64.3603 6.41556 65.449C7.00243 66.4624 7.71055 67.3991 8.52398 68.238C9.28068 69.0241 10.1482 69.6932 11.0984 70.2235L13.1329 93.0174C13.1992 93.7375 13.3656 94.4446 13.6274 95.1177C13.8771 95.7495 14.2138 96.3426 14.6276 96.8795C15.0079 97.3744 15.4715 97.7979 15.9972 98.1305C16.4831 98.4514 17.0389 98.6483 17.6169 98.7044C18.1483 98.751 18.6821 98.6456 19.157 98.4002C19.6361 98.1422 20.0472 97.7723 20.3561 97.3214C20.7041 96.8137 20.9511 96.2427 21.0835 95.6399C21.2427 94.9502 21.2888 94.2387 21.2199 93.5339L19.1115 70.126C20.0174 69.56 20.8193 68.8396 21.4814 67.9969C22.2081 67.0807 22.8013 66.0642 23.2431 64.9784C23.7306 63.788 24.0685 62.5407 24.249 61.2655C24.4484 59.8744 24.4847 58.4645 24.357 57.0648C24.1899 55.2006 23.7394 53.3734 23.0215 51.6476C22.3765 50.0752 21.4735 48.624 20.3504 47.3551C19.3543 46.2159 18.1352 45.2976 16.7701 44.6579C15.502 44.0678 14.1033 43.8225 12.7124 43.9463" fill="url(#paint6_linear)"/>
<path d="M12.7124 43.9176C11.3552 44.0488 10.0559 44.5376 8.94453 45.3351C7.78896 46.1747 6.82089 47.2499 6.10299 48.4913C5.3085 49.8529 4.74386 51.3384 4.43218 52.8871C4.07987 54.5999 3.98408 56.3563 4.14802 58.0978C4.26419 59.4245 4.52141 60.7347 4.91524 62.0058C5.28869 63.2056 5.79183 64.3603 6.41556 65.449C7.00243 66.4624 7.71055 67.3991 8.52398 68.238C9.28068 69.0241 10.1482 69.6932 11.0984 70.2235L13.1329 93.0174C13.1992 93.7375 13.3656 94.4446 13.6274 95.1177C13.8771 95.7495 14.2138 96.3426 14.6276 96.8795C15.0079 97.3744 15.4715 97.7979 15.9972 98.1305C16.4831 98.4514 17.0389 98.6483 17.6169 98.7044C18.1483 98.751 18.6821 98.6456 19.157 98.4002C19.6361 98.1421 20.0472 97.7723 20.3561 97.3214C20.7041 96.8137 20.9511 96.2427 21.0835 95.6399C21.2427 94.9502 21.2888 94.2387 21.2199 93.5339L19.1115 70.126C20.0174 69.56 20.8193 68.8396 21.4814 67.9969C22.2081 67.0807 22.8013 66.0642 23.2431 64.9784C23.7306 63.788 24.0685 62.5407 24.249 61.2655C24.4484 59.8744 24.4847 58.4645 24.357 57.0648C24.1899 55.2006 23.7394 53.3734 23.0215 51.6476C22.3765 50.0752 21.4735 48.624 20.3504 47.3551C19.3543 46.2159 18.1352 45.2976 16.7701 44.6579C15.502 44.0678 14.1033 43.8225 12.7124 43.9463" stroke="black" stroke-width="0.283465" stroke-linecap="round" stroke-linejoin="round"/>
<path d="M12.9239 46.2822C11.8578 46.3293 10.8269 46.6816 9.95162 47.298C9.03485 47.9516 8.27064 48.7997 7.7125 49.7828C7.07937 50.8958 6.63561 52.1082 6.39971 53.3694C6.12193 54.7879 6.04919 56.2396 6.18375 57.6792C6.31269 59.1528 6.64357 60.6013 7.16692 61.9831C7.63202 63.2514 8.2813 64.4428 9.09348 65.5181C9.8284 66.4931 10.736 67.322 11.7702 67.9628C12.7204 68.5517 13.8046 68.8837 14.9186 68.9269C15.9924 68.9578 17.0521 68.6748 17.9704 68.112C18.9395 67.5096 19.7551 66.686 20.3516 65.7075C21.0476 64.5865 21.5384 63.3483 21.8008 62.052C22.1129 60.5684 22.1991 59.0455 22.0565 57.5357C21.9311 55.9918 21.5847 54.4744 21.0279 53.0309C20.5182 51.7188 19.8088 50.4951 18.9252 49.404C18.1515 48.4404 17.1951 47.6425 16.1121 47.0569C15.1354 46.5208 14.0349 46.2574 12.9239 46.2937" fill="url(#paint7_linear)"/>
<path d="M12.9239 46.2822C11.8578 46.3293 10.8269 46.6816 9.95162 47.298C9.03485 47.9516 8.27064 48.7997 7.7125 49.7828C7.07937 50.8958 6.63561 52.1082 6.39971 53.3694C6.12193 54.7879 6.04919 56.2396 6.18375 57.6792C6.31269 59.1528 6.64357 60.6013 7.16692 61.9831C7.63202 63.2514 8.2813 64.4428 9.09348 65.5181C9.8284 66.4931 10.736 67.322 11.7702 67.9628C12.7204 68.5517 13.8046 68.8837 14.9186 68.9269C15.9924 68.9578 17.0521 68.6748 17.9704 68.112C18.9395 67.5096 19.7551 66.686 20.3516 65.7075C21.0476 64.5865 21.5384 63.3483 21.8008 62.052C22.1129 60.5684 22.1991 59.0455 22.0565 57.5357C21.9311 55.9918 21.5847 54.4744 21.0279 53.0309C20.5182 51.7188 19.8088 50.4951 18.9252 49.404C18.1515 48.4404 17.1951 47.6425 16.1121 47.0569C15.1354 46.5208 14.0349 46.2574 12.9239 46.2937" stroke="black" stroke-width="0.283465" stroke-miterlimit="10"/>
<path opacity="0.9" d="M15.3441 53.6395L13.0254 49.238L12.764 46.2998C12.2068 46.3415 11.659 46.4672 11.1387 46.6728V46.8048L11.3887 49.6053L12.997 52.6238L11.7809 53.0312L11.5251 57.6221L13.1789 58.9478L12.98 61.1571L13.2187 63.8313H14.8781L14.6508 61.3063L14.9179 58.3108L13.213 56.9622L13.3607 54.2937L15.3441 53.6395Z" fill="url(#paint8_linear)" stroke="black" stroke-width="0.283465" stroke-miterlimit="10"/>
<path d="M29.5601 37.0049H26.8794L26.2773 38.6748H25.4072L27.8506 32.2764H28.5889L31.0366 38.6748H30.1709L29.5601 37.0049ZM27.1343 36.3105H29.3096L28.2197 33.3179L27.1343 36.3105Z" fill="#E30613"/>
<path d="M23.6475 33.4902L11.0879 36.1874" stroke="#E30613" stroke-width="0.283465" stroke-linejoin="round"/>
<path d="M46.7267 28.5381L30.0469 32.119" stroke="#E30613" stroke-width="0.283465" stroke-linejoin="round"/>
<path d="M47.5952 33.7488L46.1631 26.96" stroke="#E30613" stroke-width="0.283465" stroke-linejoin="round"/>
<path d="M12.1784 41.3932L10.752 34.5986" stroke="#E30613" stroke-width="0.283465" stroke-linejoin="round"/>
<path d="M46.4989 30.1739C47.3872 30.1739 48.1072 29.4467 48.1072 28.5498C48.1072 27.6529 47.3872 26.9258 46.4989 26.9258C45.6107 26.9258 44.8906 27.6529 44.8906 28.5498C44.8906 29.4467 45.6107 30.1739 46.4989 30.1739Z" fill="#E30613"/>
<path d="M11.0878 37.8125C11.976 37.8125 12.6961 37.0854 12.6961 36.1885C12.6961 35.2916 11.976 34.5645 11.0878 34.5645C10.1996 34.5645 9.47949 35.2916 9.47949 36.1885C9.47949 37.0854 10.1996 37.8125 11.0878 37.8125Z" fill="#E30613"/>
<path d="M39.9971 25.2578C39.918 25.9346 39.6675 26.4575 39.2456 26.8267C38.8267 27.1929 38.2686 27.376 37.5713 27.376C36.8154 27.376 36.209 27.105 35.752 26.563C35.2979 26.021 35.0708 25.2959 35.0708 24.3877V23.7725C35.0708 23.1777 35.1763 22.6548 35.3872 22.2036C35.6011 21.7524 35.9028 21.4067 36.2925 21.1665C36.6821 20.9233 37.1333 20.8018 37.646 20.8018C38.3257 20.8018 38.8706 20.9922 39.2808 21.373C39.6909 21.751 39.9297 22.2754 39.9971 22.9463H39.1489C39.0757 22.4365 38.916 22.0674 38.6699 21.8389C38.4268 21.6104 38.0854 21.4961 37.646 21.4961C37.1069 21.4961 36.6836 21.6953 36.376 22.0938C36.0713 22.4922 35.9189 23.0591 35.9189 23.7944V24.4141C35.9189 25.1084 36.064 25.6606 36.354 26.0708C36.644 26.481 37.0498 26.686 37.5713 26.686C38.04 26.686 38.3989 26.5806 38.6479 26.3696C38.8999 26.1558 39.0669 25.7852 39.1489 25.2578H39.9971Z" fill="#E30613"/>
<path d="M54.4497 17.4678L44.6123 19.5796" stroke="#E30613" stroke-width="0.283465" stroke-linejoin="round"/>
<path d="M57.4341 31.6362L54.1152 15.8779" stroke="#E30613" stroke-width="0.283465" stroke-linejoin="round"/>
<path d="M47.5962 33.7485L44.2773 17.9902" stroke="#E30613" stroke-width="0.283465" stroke-linejoin="round"/>
<path d="M44.6128 19.5801L39.1514 20.7508" stroke="#E30613" stroke-width="0.283465" stroke-linejoin="round"/>
<path d="M54.4501 19.0918C55.3383 19.0918 56.0584 18.3647 56.0584 17.4678C56.0584 16.5709 55.3383 15.8438 54.4501 15.8438C53.5619 15.8438 52.8418 16.5709 52.8418 17.4678C52.8418 18.3647 53.5619 19.0918 54.4501 19.0918Z" fill="#E30613"/>
<path d="M44.6122 21.2041C45.5004 21.2041 46.2205 20.477 46.2205 19.5801C46.2205 18.6832 45.5004 17.9561 44.6122 17.9561C43.724 17.9561 43.0039 18.6832 43.0039 19.5801C43.0039 20.477 43.724 21.2041 44.6122 21.2041Z" fill="#E30613"/>
<path d="M67.1948 29.3203V22.9219H69.2866C69.981 22.9219 70.5024 23.0654 70.8511 23.3525C71.2026 23.6396 71.3784 24.0645 71.3784 24.627C71.3784 24.9258 71.2935 25.1909 71.1235 25.4224C70.9536 25.6509 70.7222 25.8281 70.4292 25.9541C70.7749 26.0508 71.0474 26.2354 71.2466 26.5078C71.4487 26.7773 71.5498 27.0996 71.5498 27.4746C71.5498 28.0488 71.3638 28.5 70.9917 28.8281C70.6196 29.1562 70.0938 29.3203 69.4141 29.3203H67.1948ZM68.0386 26.3276V28.6304H69.4316C69.8242 28.6304 70.1333 28.5293 70.3589 28.3271C70.5874 28.1221 70.7017 27.8408 70.7017 27.4834C70.7017 26.7129 70.2827 26.3276 69.4448 26.3276H68.0386ZM68.0386 25.6509H69.313C69.6821 25.6509 69.9766 25.5586 70.1963 25.374C70.4189 25.1895 70.5303 24.939 70.5303 24.6226C70.5303 24.271 70.4277 24.0161 70.2227 23.8579C70.0176 23.6968 69.7056 23.6162 69.2866 23.6162H68.0386V25.6509Z" fill="#E30613"/>
<path d="M64.8147 24.1025L56.4492 25.8987" stroke="#E30613" stroke-width="0.283465" stroke-linejoin="round"/>
<path d="M87.5705 19.2188L70.8623 22.8054" stroke="#E30613" stroke-width="0.283465" stroke-linejoin="round"/>
<path d="M88.7745 24.9455L87.2344 17.623" stroke="#E30613" stroke-width="0.283465" stroke-linejoin="round"/>
<path d="M57.4325 31.6371L55.8867 24.3203" stroke="#E30613" stroke-width="0.283465" stroke-linejoin="round"/>
<path d="M87.5702 20.8428C88.4585 20.8428 89.1785 20.1157 89.1785 19.2188C89.1785 18.3218 88.4585 17.5947 87.5702 17.5947C86.682 17.5947 85.9619 18.3218 85.9619 19.2188C85.9619 20.1157 86.682 20.8428 87.5702 20.8428Z" fill="#E30613"/>
<path d="M56.2226 27.5342C57.1108 27.5342 57.8309 26.8071 57.8309 25.9102C57.8309 25.0132 57.1108 24.2861 56.2226 24.2861C55.3343 24.2861 54.6143 25.0132 54.6143 25.9102C54.6143 26.8071 55.3343 27.5342 56.2226 27.5342Z" fill="#E30613"/>
<defs>
<linearGradient id="paint0_linear" x1="53.545" y1="57.6509" x2="61.2816" y2="85.0769" gradientUnits="userSpaceOnUse">
<stop stop-color="#696968"/>
<stop offset="0.52" stop-color="#959594"/>
<stop offset="0.89" stop-color="#696868"/>
</linearGradient>
<linearGradient id="paint1_linear" x1="53.9605" y1="33.5993" x2="62.2455" y2="61.3649" gradientUnits="userSpaceOnUse">
<stop offset="0.22" stop-color="#B3B2B2"/>
<stop offset="0.48" stop-color="#696968"/>
<stop offset="0.58" stop-color="#242423"/>
<stop offset="0.71" stop-color="#242423"/>
<stop offset="0.89" stop-color="#696868"/>
</linearGradient>
<linearGradient id="paint2_linear" x1="584.175" y1="1477.13" x2="735.892" y2="1714.39" gradientUnits="userSpaceOnUse">
<stop stop-color="#696968"/>
<stop offset="0.52" stop-color="#959594"/>
<stop offset="0.89" stop-color="#696868"/>
</linearGradient>
<linearGradient id="paint3_linear" x1="2679.78" y1="2399.14" x2="2963.01" y2="3867.18" gradientUnits="userSpaceOnUse">
<stop offset="0.22" stop-color="#B3B2B2"/>
<stop offset="0.48" stop-color="#696968"/>
<stop offset="0.58" stop-color="#242423"/>
<stop offset="0.71" stop-color="#242423"/>
<stop offset="0.89" stop-color="#696868"/>
</linearGradient>
<linearGradient id="paint4_linear" x1="5764.21" y1="1628.17" x2="6025.53" y2="3001.61" gradientUnits="userSpaceOnUse">
<stop offset="0.22" stop-color="#B3B2B2"/>
<stop offset="0.48" stop-color="#696968"/>
<stop offset="0.58" stop-color="#242423"/>
<stop offset="0.71" stop-color="#242423"/>
<stop offset="0.89" stop-color="#696868"/>
</linearGradient>
<linearGradient id="paint5_linear" x1="53.9605" y1="33.5993" x2="62.2455" y2="61.3649" gradientUnits="userSpaceOnUse">
<stop offset="0.22" stop-color="#B3B2B2"/>
<stop offset="0.48" stop-color="#696968"/>
<stop offset="0.58" stop-color="#242423"/>
<stop offset="0.71" stop-color="#242423"/>
<stop offset="0.89" stop-color="#696868"/>
</linearGradient>
<linearGradient id="paint6_linear" x1="100.496" y1="7277.61" x2="823.411" y2="7211.18" gradientUnits="userSpaceOnUse">
<stop stop-color="#696968"/>
<stop offset="0.52" stop-color="#959594"/>
<stop offset="0.89" stop-color="#696868"/>
</linearGradient>
<linearGradient id="paint7_linear" x1="-111.961" y1="2243.27" x2="671.656" y2="2856.35" gradientUnits="userSpaceOnUse">
<stop stop-color="#696968"/>
<stop offset="0.52" stop-color="#959594"/>
<stop offset="0.89" stop-color="#696868"/>
</linearGradient>
<linearGradient id="paint8_linear" x1="97.5856" y1="1663.73" x2="396.382" y2="1770.91" gradientUnits="userSpaceOnUse">
<stop offset="0.22" stop-color="#B3B2B2"/>
<stop offset="0.48" stop-color="#696968"/>
<stop offset="0.58" stop-color="#242423"/>
<stop offset="0.71" stop-color="#242423"/>
<stop offset="0.89" stop-color="#696868"/>
</linearGradient>
</defs>
</svg>
