<svg id="Layer_1" data-name="Layer 1" xmlns="http://www.w3.org/2000/svg" viewBox="0 0 42.59 42.59">
  <title>ffda3f_ikonki</title>
  <g>
    <g>
      <polygon points="13.05 24.23 30.82 28.57 30.82 31.45 13.05 27.11 13.05 24.23" style="fill: #ffda3f;stroke: #333;stroke-linecap: round;stroke-linejoin: round;stroke-width: 0.992125984251969px"/>
      <polygon points="13.05 27.11 30.82 31.45 27.97 34.05 10.21 29.71 13.05 27.11" style="fill: #ffda3f;stroke: #333;stroke-linecap: round;stroke-linejoin: round;stroke-width: 0.992125984251969px"/>
      <polygon points="10.21 26.83 13.05 24.23 13.05 27.11 10.21 29.71 10.21 26.83" style="fill: #fff;stroke: #333;stroke-linecap: round;stroke-linejoin: round;stroke-width: 0.992125984251969px"/>
      <polygon points="17.87 25.11 34.15 11.46 35.61 11.69 19.91 25.61 17.87 25.11" style="fill: #ffda3f;stroke: #333;stroke-linecap: round;stroke-linejoin: round;stroke-width: 0.992125984251969px"/>
      <polygon points="33.77 8.54 35.35 8.77 35.35 11.92 33.77 11.69 33.77 8.54" style="fill: #fff;stroke: #333;stroke-linecap: round;stroke-linejoin: round;stroke-width: 0.992125984251969px"/>
      <polygon points="6.98 19.42 9.76 18.77 12.24 19.42 12.55 20.73 6.98 19.42" style="fill: #ffda3f;stroke: #333;stroke-linecap: round;stroke-linejoin: round;stroke-width: 0.992125984251969px"/>
      <polygon points="12.24 19.42 9.76 18.77 9.76 17.23 12.24 17.88 12.24 19.42" style="fill: #ffda3f;stroke: #333;stroke-linecap: round;stroke-linejoin: round;stroke-width: 0.992125984251969px"/>
      <polygon points="12.24 19.42 33.77 10.81 33.77 9 12.24 17.88 12.24 19.42" style="fill: #ffda3f;stroke: #333;stroke-miterlimit: 10;stroke-width: 0.992125984251969px"/>
    </g>
    <polygon points="6.98 19.42 9.76 18.77 9.76 17.23 6.98 17.88 6.98 19.42" style="fill: #fff;stroke: #333;stroke-linecap: round;stroke-linejoin: round;stroke-width: 0.992125984251969px"/>
  </g>
</svg>
