<svg id="Layer_1" data-name="Layer 1" xmlns="http://www.w3.org/2000/svg" viewBox="0 0 42.6 42.59">
  <title>ffda3f_ikonki</title>
  <g>
    <g>
      <path d="M26.14,8.54h-9.7a1.19,1.19,0,0,0-1.19,1.19v5.73a1.19,1.19,0,0,0,1.19,1.19h1.39v3a.68.68,0,0,0,.68.68h.78v4.21h.59v9.56H22.7V24.49h.59V20.28h.78a.69.69,0,0,0,.68-.68v-3h1.39a1.19,1.19,0,0,0,1.19-1.19V9.73A1.19,1.19,0,0,0,26.14,8.54Z" style="fill: none;stroke: #333;stroke-miterlimit: 10;stroke-width: 0.992125984251969px"/>
      <polyline points="32.9 16.49 32.9 11.69 28.1 11.69" style="fill: none;stroke: #333;stroke-miterlimit: 10;stroke-width: 0.992125984251969px"/>
      <polyline points="9.7 16.49 9.7 11.69 14.51 11.69" style="fill: none;stroke: #333;stroke-miterlimit: 10;stroke-width: 0.992125984251969px"/>
    </g>
    <path d="M32.9,19.31A6.91,6.91,0,1,1,26,26.22,6.91,6.91,0,0,1,32.9,19.31Z" style="fill: #ffda3f;stroke: #333;stroke-linecap: round;stroke-linejoin: round;stroke-width: 0.992125984251969px"/>
    <rect x="17.41" y="10.81" width="7.76" height="1.56" style="fill: none;stroke: #333;stroke-miterlimit: 10;stroke-width: 0.992125984251969px"/>
    <polygon points="32.9 24.76 34.27 24.22 34.27 19.31 31.53 19.31 31.53 20.15 32.9 20.68 32.9 22.73 31.53 23.26 31.53 29.17 32.9 29.17 34.27 29.17 34.27 28.34 32.9 27.8 32.9 26.96 34.27 26.96 34.27 25.59 32.9 25.59 32.9 25.1 32.9 24.76" style="fill: #333"/>
    <path d="M9.7,19.31a6.91,6.91,0,1,1-6.91,6.91A6.91,6.91,0,0,1,9.7,19.31Z" style="fill: #ffda3f;stroke: #333;stroke-linecap: round;stroke-linejoin: round;stroke-width: 0.992125984251969px"/>
    <polygon points="9.7 24.76 11.07 24.22 11.07 19.31 8.33 19.31 8.33 20.15 9.7 20.68 9.7 22.73 8.33 23.26 8.33 29.17 9.7 29.17 11.07 29.17 11.07 28.34 9.7 27.8 9.7 26.96 11.07 26.96 11.07 25.59 9.7 25.59 9.7 25.1 9.7 24.76" style="fill: #333"/>
    <g>
      <path d="M26.14,8.54h-9.7a1.19,1.19,0,0,0-1.19,1.19v5.73a1.19,1.19,0,0,0,1.19,1.19h1.39v3a.68.68,0,0,0,.68.68h.78v4.21h.59v9.56H22.7V24.49h.59V20.28h.78a.69.69,0,0,0,.68-.68v-3h1.39a1.19,1.19,0,0,0,1.19-1.19V9.73A1.19,1.19,0,0,0,26.14,8.54Z" style="fill: #ffda3f"/>
      <path d="M26.14,8.54h-9.7a1.19,1.19,0,0,0-1.19,1.19v5.73a1.19,1.19,0,0,0,1.19,1.19h1.39v3a.68.68,0,0,0,.68.68h.78v4.21h.59v9.56H22.7V24.49h.59V20.28h.78a.69.69,0,0,0,.68-.68v-3h1.39a1.19,1.19,0,0,0,1.19-1.19V9.73A1.19,1.19,0,0,0,26.14,8.54Z" style="fill: none;stroke: #333;stroke-linecap: round;stroke-linejoin: round;stroke-width: 0.992125984251969px"/>
    </g>
    <rect x="17.41" y="10.81" width="7.76" height="1.56" style="fill: #fff;stroke: #333;stroke-miterlimit: 10;stroke-width: 0.992125984251969px"/>
  </g>
</svg>
