<svg width="0" height="0" class="hidden">

    <symbol xmlns="http://www.w3.org/2000/svg" viewBox="0 0 16 12" id="icon-menu">
        <path d="M0.25,5.85 C-0.219442037,5.85 -0.6,5.46944204 -0.6,5 C-0.6,4.53055796 -0.219442037,4.15 0.25,4.15 L13.75,4.15 C14.219442,4.15 14.6,4.53055796 14.6,5 C14.6,5.46944204 14.219442,5.85 13.75,5.85 L0.25,5.85 Z"></path>
        <path d="M0.25,1.35 C-0.219442037,1.35 -0.6,0.969442037 -0.6,0.5 C-0.6,0.0305579626 -0.219442037,-0.35 0.25,-0.35 L13.75,-0.35 C14.219442,-0.35 14.6,0.0305579626 14.6,0.5 C14.6,0.969442037 14.219442,1.35 13.75,1.35 L0.25,1.35 Z"></path>
        <path d="M0.25,10.35 C-0.219442037,10.35 -0.6,9.96944204 -0.6,9.5 C-0.6,9.03055796 -0.219442037,8.65 0.25,8.65 L13.75,8.65 C14.219442,8.65 14.6,9.03055796 14.6,9.5 C14.6,9.96944204 14.219442,10.35 13.75,10.35 L0.25,10.35 Z"></path>
    </symbol>

    <symbol xmlns="http://www.w3.org/2000/svg" viewBox="0 0 796 1024" id="icon-location">
        <path d="M424.977 856.097c38.533-30.684 77.079-65.376 112.938-103.226 99.876-105.425 158.974-213.771 158.974-316.732 0-79.214-31.466-155.179-87.48-211.189-56.010-56.011-131.975-87.477-211.187-87.477s-155.178 31.466-211.189 87.477c-56.011 56.011-87.477 131.978-87.477 211.189 0 102.961 59.098 211.307 158.974 316.732 35.858 37.85 74.405 72.542 112.938 103.226 9.446 7.522 18.403 14.409 26.755 20.629 8.352-6.22 17.309-13.107 26.755-20.629zM782.222 436.139c0 129.337-68.902 255.659-182.359 375.419-38.809 40.965-80.262 78.273-121.729 111.293-14.539 11.578-28.070 21.813-40.264 30.619-7.444 5.376-12.881 9.142-15.98 11.208-14.332 9.554-33.003 9.554-47.334 0-3.099-2.066-8.536-5.832-15.98-11.208-12.193-8.806-25.725-19.042-40.264-30.619-41.467-33.020-82.921-70.328-121.729-111.293-113.457-119.76-182.359-246.082-182.359-375.419 0-101.843 40.457-199.515 112.471-271.529s169.686-112.471 271.529-112.471c101.843 0 199.514 40.457 271.526 112.47 72.018 72.012 112.474 169.684 112.474 271.53z"></path>
        <path d="M398.222 592.583c-86.402 0-156.444-70.043-156.444-156.444s70.043-156.444 156.444-156.444c86.402 0 156.444 70.043 156.444 156.444s-70.043 156.444-156.444 156.444zM398.222 507.25c39.274 0 71.111-31.838 71.111-71.111s-31.838-71.111-71.111-71.111c-39.274 0-71.111 31.838-71.111 71.111s31.838 71.111 71.111 71.111z"></path>
    </symbol>

    <symbol xmlns="http://www.w3.org/2000/svg" viewBox="0 0 1317 1024" id="icon-credit-card">
        <path d="M1152.146 18.286c90.889 0 164.571 73.682 164.571 164.571v658.286c0 90.888-73.683 164.571-164.571 164.571h-987.432c-90.889 0-164.571-73.683-164.571-164.571v-658.286c0-90.89 73.681-164.571 164.571-164.571h987.432zM1152.146 128h-987.432c-30.296 0-54.857 24.56-54.857 54.857v658.286c0 30.295 24.561 54.857 54.857 54.857h987.432c30.295 0 54.857-24.562 54.857-54.857v-658.286c0-30.296-24.561-54.857-54.857-54.857z"></path>
        <path d="M55 457.143c-30.297 0-54.857-24.56-54.857-54.857s24.56-54.857 54.857-54.857h1206.861c30.297 0 54.857 24.56 54.857 54.857s-24.56 54.857-54.857 54.857h-1206.861z"></path>
    </symbol>

    <symbol xmlns="http://www.w3.org/2000/svg" viewBox="0 0 1152 1024" id="icon-truck">
        <path d="M768.128 32c26.51 0 48 21.49 48 48v624c0 26.51-21.49 48-48 48h-720.003c-26.51 0-48-21.49-48-48v-624c0-26.51 21.49-48 48-48h720.003zM720.128 128h-624.003v528h624.003v-528z"></path>
        <path d="M816.128 656h240v-172.118l-115.882-115.882h-124.118v288zM768.128 272h192c12.73 0 24.939 5.057 33.941 14.059l144 144c9.002 9.002 14.059 21.211 14.059 33.941v240c0 26.51-21.49 48-48 48h-336c-26.51 0-48-21.49-48-48v-384c0-26.51 21.49-48 48-48z"></path>
        <path d="M264 992c-92.783 0-168-75.218-168-168s75.217-168 168-168c92.783 0 168 75.218 168 168s-75.217 168-168 168zM264 896c39.763 0 72-32.237 72-72s-32.237-72-72-72c-39.763 0-72 32.237-72 72s32.237 72 72 72z"></path>
        <path d="M888.128 992c-92.786 0-168-75.217-168-168s75.214-168 168-168c92.782 0 168 75.218 168 168s-75.218 168-168 168zM888.128 896c39.762 0 72-32.238 72-72s-32.238-72-72-72c-39.766 0-72 32.235-72 72s32.234 72 72 72z"></path>
    </symbol>

    <symbol xmlns="http://www.w3.org/2000/svg" viewBox="0 0 1024 1024" id="icon-sale">
        <path d="M444.55 397.576c39.501-42.844 61.265-100.316 61.265-161.842 0-117.145-83.674-235.734-243.626-235.734-74.438 0-137.235 25.567-181.613 73.937-39.309 42.851-60.952 100.309-60.952 161.797 0 117.158 83.319 235.74 242.564 235.74 74.716 0.003 137.788-25.545 182.36-73.898zM262.189 109.608c87.64 0 127.553 65.423 127.553 126.209 0 33.066-11.126 63.676-31.348 86.18-22.559 25.137-55.344 38.428-94.784 38.428-89.857 0-130.791-65.416-130.791-126.196 0-62.022 40.008-124.621 129.37-124.621z"></path>
        <path d="M843.923 90.927c-14.496 0.262-34.291 9.3-43.981 20.078l-719.557 800.015c-9.692 10.79-2.826 25.907 11.669 25.907h94.177c14.496 0 34.267-8.838 43.943-19.635l715.105-799.856c9.67-10.803 9.030-28.381-14.918-28.374l-86.438 1.865z"></path>
        <path d="M765.325 561.5c-73.005 0-134.61 25.094-178.148 72.541-38.559 42.022-59.802 98.394-59.802 158.714 0 114.918 81.736 231.251 237.95 231.251 73.312 0 135.168-25.069 178.906-72.493 38.752-42.035 60.096-98.413 60.096-158.758-0.006-114.912-82.093-231.255-239.002-231.255zM766.733 917.888c-87.424 0-127.255-65.651-127.255-126.618 0-33.203 11.121-63.93 31.325-86.522 22.522-25.21 55.206-38.534 94.522-38.534 87.43 0 127.245 65.638 127.245 126.624 0 33.197-11.123 63.93-31.315 86.522-22.528 25.203-55.213 38.528-94.522 38.528z"></path>
    </symbol>

    <symbol xmlns="http://www.w3.org/2000/svg" viewBox="0 0 1024 1024" id="icon-promotion">
        <path d="M625.021 16.52c-13.534-13.534-36.102-11.114-46.478 4.924l-447.755 691.982c-11.968-7.373-27.204-5.484-36.992 4.306l-84.994 84.998c-11.736 11.736-11.736 30.76 0 42.496l169.992 169.99c11.726 11.73 30.764 11.736 42.498 0l84.996-84.992c10.042-10.047 11.462-25.412 4.316-36.995l154.392-99.903 49.47 76.646c9.002 13.943 27.54 17.914 41.452 9.011l196.904-126.077c14.006-8.966 18.068-27.625 9.045-41.603l-50.113-77.648 290.822-188.179c16.043-10.38 18.455-32.95 4.927-46.478l-382.481-382.48zM542.026 188.51l293.484 293.484c-32.654 21.132-533.232 345.034-567.65 367.306l-93.138-93.138 367.304-567.651zM200.042 951.472l-127.494-127.494 42.498-42.502 127.494 127.494-42.498 42.502zM695.017 718.552l-146.291 93.673-33.272-51.547 145.84-94.373 33.724 52.247zM887.114 448.604l-311.7-311.698 33.394-51.604 329.91 329.912-51.604 33.39z"></path>
        <path d="M894.743 171.766l90.664-90.662c11.736-11.734 11.736-30.762 0-42.498-11.736-11.734-30.76-11.734-42.496 0l-90.664 90.662c-11.736 11.734-11.736 30.762 0 42.498s30.76 11.734 42.496 0z"></path>
        <path d="M767.033 106.367c14.308 8.264 32.711 3.438 41.045-10.998l29.047-50.314c8.3-14.372 3.374-32.75-10.997-41.050-14.376-8.302-32.751-3.376-41.051 10.998l-29.047 50.314c-8.3 14.372-3.374 32.752 11.002 41.050z"></path>
        <path d="M978.898 186.893l-50.313 29.046c-14.37 8.298-19.297 26.676-10.997 41.050 8.323 14.418 26.715 19.276 41.051 10.998l50.313-29.046c14.37-8.298 19.297-26.676 10.997-41.050-8.3-14.37-26.675-19.298-41.051-10.998z"></path>
    </symbol>

    <symbol xmlns="http://www.w3.org/2000/svg" viewBox="0 0 511.999 511.999" id="icon-repair">
        <path d="M490.076,384.059L382.648,276.632c-10.892-10.871-25.662-18.586-41.748-21.039l47.359-47.359
            c33.552,5.967,68.396-4.788,92.704-29.097c31.396-31.397,39.638-79.397,20.506-119.444c-4.459-9.332-16.824-11.444-24.127-4.138
            l-34.39,34.391h-21.201v-21.2l34.391-34.391c7.312-7.311,5.185-19.673-4.138-24.126c-40.046-19.131-88.048-10.89-119.445,20.508
            c-24.308,24.308-35.064,59.15-29.096,92.704l-58.207,58.207l-81.855-81.855l10.6-10.601c6.898-6.897,5.461-18.446-2.887-23.455
            L65.115,2.137c-5.898-3.54-13.449-2.609-18.313,2.255l-42.401,42.4c-4.864,4.864-5.793,12.414-2.255,18.313l63.601,106.001
            c5.055,8.427,16.612,9.73,23.455,2.887l10.601-10.601l81.855,81.854l-58.207,58.207c-33.552-5.967-68.396,4.789-92.704,29.097
            c-31.398,31.397-39.64,79.398-20.508,119.444c4.459,9.332,16.824,11.444,24.127,4.138l34.39-34.391h21.2v21.2l-34.391,34.391
            c-7.312,7.311-5.185,19.673,4.138,24.126c14.394,6.877,29.812,10.217,45.121,10.216c27.282-0.001,54.211-10.612,74.323-30.723
            c24.308-24.308,35.064-59.15,29.096-92.704l47.361-47.361c2.454,16.089,10.172,30.863,21.049,41.761l107.416,107.416
            c29.18,29.181,76.658,29.312,106.01-0.003C519.294,460.829,519.293,413.277,490.076,384.059z M81.578,139.217L33.877,59.716
            l25.848-25.847l79.5,47.7C133.692,87.102,89.049,131.746,81.578,139.217z M121.001,142.193
            c13.809-13.81,9.637-9.637,21.201-21.201l81.854,81.854l-21.2,21.2L121.001,142.193z M181.237,372.854
            c-3.784,3.784-5.265,9.298-3.884,14.469c6.894,25.81-0.542,53.563-19.407,72.43c-16.956,16.955-40.686,24.458-63.61,21.21
            l21.21-21.21c2.811-2.811,4.391-6.624,4.391-10.599v-42.402c0-8.279-6.712-14.991-14.991-14.991H62.545
            c-3.977,0-7.789,1.58-10.6,4.391l-21.21,21.21c-3.247-22.927,4.256-46.656,21.21-63.61c18.865-18.865,46.619-26.302,72.43-19.407
            c5.171,1.38,10.684-0.099,14.469-3.883c3.329-3.329,184.978-184.978,191.627-191.627c3.784-3.784,5.265-9.298,3.884-14.469
            c-6.894-25.81,0.542-53.563,19.407-72.43c16.955-16.955,40.682-24.461,63.61-21.21l-21.21,21.21
            c-2.811,2.811-4.391,6.624-4.391,10.599v42.4c0,8.279,6.712,14.991,14.991,14.991h42.401c3.977,0,7.789-1.58,10.6-4.391
            l21.21-21.21c3.247,22.927-4.256,46.656-21.21,63.61c-18.865,18.865-46.62,26.3-72.43,19.407
            c-5.171-1.381-10.684,0.099-14.469,3.883L181.237,372.854z M468.883,468.86c-17.574,17.551-46.105,17.516-63.613,0.007
            L297.863,361.46c-15.183-15.213-19.832-41.718,0.568-63.038c21.319-20.4,47.825-15.75,63.028-0.579l107.416,107.416
            C486.406,422.791,486.405,451.325,468.883,468.86z"/>

        <path d="M447.343,426.134L341.408,320.198c-5.853-5.854-15.346-5.854-21.2,0c-5.854,5.854-5.854,15.346,0,21.2l105.935,105.935
                    c5.853,5.854,15.347,5.854,21.2,0C453.197,441.479,453.197,431.988,447.343,426.134z"/>
    </symbol>

    <symbol xmlns="http://www.w3.org/2000/svg" viewBox="0 0 1024 1024" id="icon-angle-left">
        <path d="M390.756 512.002l370.522 366.16c23.662 23.384 23.888 61.522 0.504 85.184s-61.522 23.888-85.184 0.504l-413.876-409.004c-23.861-23.58-23.861-62.108 0-85.688l413.876-409.008c23.662-23.384 61.8-23.158 85.184 0.504s23.158 61.8-0.504 85.184l-370.522 366.164z"></path>
    </symbol>

    <symbol xmlns="http://www.w3.org/2000/svg" viewBox="0 0 1024 1024" id="icon-angle-right">
        <path d="M633.245 511.998l-370.523-366.162c-23.662-23.384-23.888-61.522-0.504-85.184s61.522-23.888 85.184-0.504l413.877 409.006c23.86 23.58 23.861 62.108 0 85.688l-413.877 409.010c-23.662 23.384-61.8 23.158-85.184-0.504s-23.158-61.8 0.504-85.184l370.523-366.166z"></path>
    </symbol>

    <symbol xmlns="http://www.w3.org/2000/svg" viewBox="0 0 1024 1024" id="icon-angle-up">
        <path d="M511.998 390.755l-366.162 370.523c-23.384 23.662-61.522 23.888-85.184 0.504s-23.888-61.522-0.504-85.184l409.006-413.877c23.58-23.86 62.108-23.861 85.688 0l409.010 413.877c23.384 23.662 23.158 61.8-0.504 85.184s-61.8 23.158-85.184-0.504l-366.166-370.523z"></path>
    </symbol>

    <symbol xmlns="http://www.w3.org/2000/svg" viewBox="0 0 1024 1024" id="icon-angle-down">
        <path d="M512.002 633.245l366.162-370.523c23.384-23.662 61.522-23.888 85.184-0.504s23.888 61.522 0.504 85.184l-409.006 413.877c-23.58 23.86-62.108 23.861-85.688 0l-409.010-413.877c-23.384-23.662-23.158-61.8 0.504-85.184s61.8-23.158 85.184 0.504l366.166 370.523z"></path>
    </symbol>

    <symbol xmlns="http://www.w3.org/2000/svg" viewBox="0 0 1024 1024" id="icon-angle-left-xl">
        <path d="M292.602 512l485.186 474.639c8.601 8.414 8.753 22.209 0.339 30.81s-22.209 8.753-30.81 0.339l-501.106-490.213c-8.735-8.545-8.735-22.603 0-31.149l501.106-490.213c8.601-8.414 22.396-8.263 30.81 0.339s8.263 22.396-0.339 30.81l-485.186 474.639z"></path>
    </symbol>

    <symbol xmlns="http://www.w3.org/2000/svg" viewBox="0 0 1024 1024" id="icon-angle-right-xl">
        <path d="M731.398 512l-485.186 474.639c-8.601 8.414-8.753 22.209-0.339 30.81s22.209 8.753 30.81 0.339l501.106-490.213c8.735-8.545 8.735-22.603 0-31.149l-501.106-490.213c-8.601-8.414-22.396-8.263-30.81 0.339s-8.263 22.396 0.339 30.81l485.186 474.639z"></path>
    </symbol>

    <symbol xmlns="http://www.w3.org/2000/svg" viewBox="0 0 2304 1024" id="icon-long-arrow-left">
        <path d="M269.595 512l395.367 377.278-94.258 98.777-498.88-476.055 498.88-476.055 94.258 98.777z"></path>
        <path d="M2304 434.567v136.533h-2107.761v-136.533z"></path>
    </symbol>

    <symbol xmlns="http://www.w3.org/2000/svg" viewBox="0 0 2304 1024" id="icon-long-arrow-right">
        <path d="M2034.406 512l-395.365-377.278 94.258-98.777 498.877 476.055-498.877 476.055-94.258-98.777z"></path>
        <path d="M0 571.1v-136.533h2107.759v136.533z"></path>
    </symbol>

    <symbol xmlns="http://www.w3.org/2000/svg" viewBox="0 0 1024 1024" id="icon-close">
        <path d="M17.643 102.828c-23.523-23.523-23.523-61.662 0-85.186s61.662-23.523 85.186 0l903.529 903.529c23.523 23.523 23.523 61.662 0 85.186s-61.662 23.523-85.186 0l-903.529-903.529zM921.172 17.643c23.523-23.523 61.662-23.523 85.186 0s23.523 61.662 0 85.186l-903.529 903.529c-23.523 23.523-61.662 23.523-85.186 0s-23.523-61.662 0-85.186l903.529-903.529z"></path>
    </symbol>


    <symbol xmlns="http://www.w3.org/2000/svg" viewBox="0 0 1097 1024" id="icon-star">
        <path d="M395.958 422.84l-187.97 15.070 143.213 122.677c27.079 23.196 38.906 59.593 30.632 94.276l-43.754 183.426 160.926-98.293c30.43-18.59 68.702-18.59 99.13-0.002l160.929 98.295-43.753-183.427c-8.272-34.681 3.553-71.077 30.631-94.275l143.215-122.677-187.971-15.070c-35.542-2.849-66.504-25.344-80.196-58.266l-72.418-174.113-72.418 174.113c-13.692 32.922-44.654 55.417-80.196 58.266zM408.619 336.485l139.953-336.485 139.953 336.485c3.16 7.597 10.304 12.788 18.506 13.445l363.267 29.123-276.77 237.080c-6.249 5.353-8.978 13.754-7.069 21.757l84.555 354.483-311.006-189.962c-7.021-4.289-15.849-4.289-22.872 0.002l-311.005 189.961 84.558-354.484c1.909-8.003-0.82-16.402-7.069-21.755l-276.769-237.082 363.264-29.123c8.201-0.657 15.346-5.848 18.506-13.445z"></path>
    </symbol>

    <symbol xmlns="http://www.w3.org/2000/svg" viewBox="0 0 1170 1024" id="icon-star-solid">
        <path d="M565.086 45.21c7.716-17.392 32.399-17.392 40.114 0l129.388 291.651c3.284 7.389 10.357 12.377 18.417 12.983l333.188 25.042c19.851 1.492 27.611 26.525 12.091 38.99l-251.707 202.141c-6.707 5.383-9.648 14.187-7.526 22.519l77.261 303.655c4.776 18.783-15.353 34.085-32.168 24.452l-288.097-164.966c-6.755-3.869-15.054-3.869-21.808 0l-288.096 164.966c-16.816 9.633-36.947-5.669-32.169-24.452l77.262-303.655c2.12-8.332-0.822-17.136-7.526-22.519l-251.71-202.141c-15.523-12.465-7.757-37.497 12.095-38.99l333.185-25.042c8.060-0.606 15.135-5.594 18.413-12.983l129.392-291.651z"></path>
    </symbol>

    <symbol xmlns="http://www.w3.org/2000/svg" viewBox="0 0 1024 1024" id="icon-message-square">
        <path d="M128 828.118l110.059-110.059c9.002-9.002 21.211-14.059 33.941-14.059h576c12.733 0 24.945-5.057 33.944-14.056s14.056-21.211 14.056-33.944v-480c0-12.732-5.056-24.941-14.056-33.941s-21.213-14.059-33.944-14.059h-672c-12.73 0-24.94 5.057-33.941 14.059s-14.059 21.211-14.059 33.941v652.118zM291.882 800l-177.941 177.941c-30.238 30.238-81.941 8.822-81.941-33.941v-768c0-38.191 15.172-74.818 42.177-101.823s63.633-42.177 101.823-42.177h672c38.19 0 74.821 15.172 101.826 42.177s42.174 63.632 42.174 101.823v480c0 38.191-15.17 74.822-42.174 101.826s-63.635 42.174-101.826 42.174h-556.118z"></path>
    </symbol>

    <symbol xmlns="http://www.w3.org/2000/svg" viewBox="0 0 1024 1024" id="icon-worker">
        <path d="M763.255 624.003l-70.144-14.694c77.784-89.434 54.767-184.825 58.891-217.309h9.995c16.572 0 30.003-13.431 30.003-30v-100c0-14.378-10.206-26.736-24.326-29.458l-26.897-5.184c-21.55-67.918-72.687-123.13-138.78-149.88v-47.478c0-16.568-13.431-30-29.998-30h-120.001c-16.568 0-30 13.432-30 30v47.452c-66.18 26.746-117.246 81.854-138.802 149.942l-26.84 5.14c-14.136 2.71-24.358 15.074-24.358 29.466v100c0 16.568 13.432 30 30 30h10c4.112 32.404-18.832 127.922 58.872 217.286l-70.15 14.7c-115.336 24.172-198.722 126.054-198.722 244.685v125.332c0 16.566 13.432 29.998 30 29.998h839.999c16.566 0 30.003-13.431 30.003-29.998v-125.315c0-117.84-82.62-220.359-198.747-244.685zM634.465 658.324l87.535 18.335v105.341h-420v-105.358l87.5-18.335c74.216 44.231 168.412 45.625 244.965 0.017zM302 842.001h420v121.998h-420v-121.998zM482 60h60v92h-60v-92zM292 286.8l20.862-3.996c11.71-2.244 20.98-11.208 23.616-22.833 11.19-49.38 42.65-91.176 85.522-115.926v37.956c0 16.568 13.432 30 30 30h120.001c16.566 0 29.998-13.432 29.998-30v-37.914c42.837 24.776 74.337 66.612 85.504 115.832 2.634 11.612 11.89 20.566 23.58 22.82l20.918 4.032v45.23h-440.001v-45.2zM692.002 392v60c0 99.252-80.748 180.002-180.002 180.002-99.252 0-180-80.749-180-180.002v-60h360.002zM122 868.671c0-78.45 48.902-148.258 120-176.589v271.918h-120v-95.329zM902.002 963.999h-120.001c0-100.585 0-171.253 0-271.9 71.1 28.331 120.001 98.139 120.001 176.594v95.306z"></path>
    </symbol>

    <symbol xmlns="http://www.w3.org/2000/svg" viewBox="0 0 1024 1024" id="icon-search" >
        <path d="M459.487 917.781c-253.108 0-458.293-205.185-458.293-458.293s205.185-458.293 458.293-458.293c253.107 0 458.293 205.186 458.293 458.293s-205.186 458.293-458.293 458.293zM459.487 841.399c210.922 0 381.911-170.989 381.911-381.911s-170.989-381.911-381.911-381.911c-210.924 0-381.911 170.987-381.911 381.911s170.987 381.911 381.911 381.911z"></path>
        <path d="M1011.651 957.602c14.915 14.914 14.915 39.096 0.001 54.010s-39.096 14.915-54.010 0.001l-228.433-228.428c-14.915-14.914-14.915-39.096-0.001-54.010s39.096-14.915 54.010-0.001l228.433 228.428z"></path>
    </symbol>

    <symbol xmlns="http://www.w3.org/2000/svg" viewBox="0 0 489.4 489.4" id="icon-shop" >
        <path d="M347.7,263.75h-66.5c-18.2,0-33,14.8-33,33v51c0,18.2,14.8,33,33,33h66.5c18.2,0,33-14.8,33-33v-51
			C380.7,278.55,365.9,263.75,347.7,263.75z M356.7,347.75c0,5-4.1,9-9,9h-66.5c-5,0-9-4.1-9-9v-51c0-5,4.1-9,9-9h66.5
			c5,0,9,4.1,9,9V347.75z"/>
		<path d="M489.4,171.05c0-2.1-0.5-4.1-1.6-5.9l-72.8-128c-2.1-3.7-6.1-6.1-10.4-6.1H84.7c-4.3,0-8.3,2.3-10.4,6.1l-72.7,128
			c-1,1.8-1.6,3.8-1.6,5.9c0,28.7,17.3,53.3,42,64.2v211.1c0,6.6,5.4,12,12,12h66.3c0.1,0,0.2,0,0.3,0h93c0.1,0,0.2,0,0.3,0h221.4
			c6.6,0,12-5.4,12-12v-209.6c0-0.5,0-0.9-0.1-1.3C472,224.55,489.4,199.85,489.4,171.05z M91.7,55.15h305.9l56.9,100.1H34.9
			L91.7,55.15z M348.3,179.15c-3.8,21.6-22.7,38-45.4,38c-22.7,0-41.6-16.4-45.4-38H348.3z M232,179.15c-3.8,21.6-22.7,38-45.4,38
			s-41.6-16.4-45.5-38H232z M24.8,179.15h90.9c-3.8,21.6-22.8,38-45.5,38C47.5,217.25,28.6,200.75,24.8,179.15z M201.6,434.35h-69
			v-129.5c0-9.4,7.6-17.1,17.1-17.1h34.9c9.4,0,17.1,7.6,17.1,17.1v129.5H201.6z M423.3,434.35H225.6v-129.5
			c0-22.6-18.4-41.1-41.1-41.1h-34.9c-22.6,0-41.1,18.4-41.1,41.1v129.6H66v-193.3c1.4,0.1,2.8,0.1,4.2,0.1
			c24.2,0,45.6-12.3,58.2-31c12.6,18.7,34,31,58.2,31s45.5-12.3,58.2-31c12.6,18.7,34,31,58.1,31c24.2,0,45.5-12.3,58.1-31
			c12.6,18.7,34,31,58.2,31c1.4,0,2.7-0.1,4.1-0.1L423.3,434.35L423.3,434.35z M419.2,217.25c-22.7,0-41.6-16.4-45.4-38h90.9
			C460.8,200.75,441.9,217.25,419.2,217.25z"/>
    </symbol>

    <symbol xmlns="http://www.w3.org/2000/svg" viewBox="0 0 1024 1024" id="icon-compare" >
        <path d="M1019.715 625.102l-172.522-287.558 154.832-43.009c15.965-4.434 25.308-20.97 20.877-36.934-4.437-15.964-20.976-25.312-36.935-20.876l-192.462 53.46c-0.016 0.004-0.028 0.008-0.043 0.012l-251.46 69.847v-330.045c0-16.568-13.43-30-30-30-16.567 0-30 13.432-30 30v346.711l-266.885 74.134c-0.014 0.003-0.028 0.006-0.042 0.009l-193.094 53.636c-15.966 4.434-25.31 20.97-20.878 36.932 3.69 13.278 15.748 21.979 28.888 21.979 2.658 0 5.362-0.357 8.046-1.102l120.372-33.435-154.12 256.897c-2.796 4.661-4.276 9.998-4.276 15.434 0 122.846 99.946 222.788 222.794 222.788 122.851 0 222.796-99.942 222.796-222.788 0-5.437-1.477-10.774-4.276-15.434l-172.524-287.561 467.995-129.992-154.121 256.894c-2.796 4.661-4.276 9.998-4.276 15.434 0 122.846 99.946 222.788 222.794 222.788 59.51 0 115.458-23.173 157.541-65.254 42.083-42.083 65.257-98.031 65.254-157.541 0.003-5.433-1.474-10.768-4.273-15.428zM222.805 963.987c-79.514 0-145.866-57.316-159.992-132.794h319.983c-14.122 75.478-80.475 132.794-159.991 132.794zM362.62 771.193h-279.627l139.812-233.038 139.815 233.038zM801.193 377.496l139.819 233.038h-279.633l139.813-233.038zM801.196 803.328c-79.512 0-145.867-57.316-159.995-132.791h319.991c-14.128 75.475-80.477 132.791-159.995 132.791z"></path>
    </symbol>

    <symbol xmlns="http://www.w3.org/2000/svg" viewBox="0 0 1024 1024" id="icon-balance" >
        <path d="M980.154 517.893l-1.941-4.547-0.698 0.349-129.098-321.321h54.049c13.498 0 24.441-10.943 24.441-24.44s-10.943-24.44-24.441-24.44h-367.709v-52.526c0-13.497-10.943-24.44-24.436-24.44-13.498 0-24.441 10.943-24.441 24.44v52.328h-367.512c-13.497 0-24.44 10.943-24.44 24.44s10.943 24.44 24.44 24.44h56.62l-131.159 325.764c-1.21 2.849-1.866 5.902-1.936 8.997h-0.001v0.102c0 93.431 75.741 169.174 169.171 169.174s169.171-75.743 169.172-169.174l-0.002-0.102c-0.070-3.091-0.726-6.144-1.934-8.997l-130.968-325.962h238.549v602.833c-46.256 4.254-87.58 20.406-117.713 44.232-31.067 24.562-50.465 57.512-50.465 93.999 0 13.494 10.943 24.436 24.44 24.436h336.352c13.498 0 24.441-10.943 24.441-24.436 0-36.487-19.395-69.437-50.465-93.999-30.134-23.827-71.457-39.978-117.713-44.232v-602.833h241.138l-130.192 325.967c-1.21 2.849-1.866 5.902-1.936 8.993v0 0.102c0 93.431 75.743 169.174 169.174 169.174s169.169-75.743 169.169-169.174v-0.102c-0.070-3.109-0.735-6.181-1.955-9.044zM812.041 647.629l-4.65 0.005v0.065c-54.896-2.555-101.115-42.068-112.23-95.823h234.557c-11.571 55.473-60.514 95.674-117.676 95.753zM210.953 647.629c-57.154-0.088-106.092-40.285-117.66-95.753h234.548c-11.509 55.189-60.026 95.302-116.888 95.753zM319.435 502.998h-216.54l108.456-269.932 108.084 269.932zM601.167 863.73c22.421 11.804 38.973 27.518 47.081 44.87h-276.057c8.102-17.357 24.61-33.071 46.986-44.874 24.929-13.149 56.723-21.201 90.943-21.201 34.225 0 66.067 8.052 91.048 21.206zM703.586 502.998l108.456-269.742 108.079 269.742h-216.534z"></path>
    </symbol>

    <symbol xmlns="http://www.w3.org/2000/svg" viewBox="0 0 1070 1024" id="icon-shopping-cart" >
        <path d="M398.989 1023.788c-45.011 0-81.496-36.485-81.496-81.496s36.485-81.496 81.496-81.496c45.011 0 81.496 36.485 81.496 81.496s-36.485 81.496-81.496 81.496zM398.989 951.348c5.003 0 9.055-4.052 9.055-9.055s-4.052-9.055-9.055-9.055c-5.003 0-9.055 4.052-9.055 9.055s4.052 9.055 9.055 9.055z"></path>
        <path d="M897.017 1023.788c-45.011 0-81.496-36.485-81.496-81.496s36.485-81.496 81.496-81.496c45.011 0 81.496 36.485 81.496 81.496s-36.485 81.496-81.496 81.496zM897.017 951.348c5.003 0 9.055-4.052 9.055-9.055s-4.052-9.055-9.055-9.055c-5.003 0-9.055 4.052-9.055 9.055s4.052 9.055 9.055 9.055z"></path>
        <path d="M188.199 73.007h-151.412c-20.004 0-36.22-16.216-36.22-36.22s16.216-36.22 36.22-36.22h181.102c17.264 0 32.128 12.184 35.516 29.112l39.483 197.265h739.959c22.724 0 39.836 20.683 35.579 43.005l-72.441 379.859c-5.849 29.451-21.723 55.662-44.903 74.327-23.079 18.575-51.93 28.479-81.544 28.001h-439.443c-29.615 0.478-58.467-9.426-81.551-28.006-23.173-18.66-39.047-44.87-44.833-73.998l-75.698-378.207c-0.264-1.063-0.481-2.145-0.649-3.243l-39.164-195.675zM307.386 299.384l67.367 336.582c2.484 12.506 9.288 23.741 19.218 31.737 9.933 7.995 22.363 12.243 35.116 11.999 0.154-0.003 147.076-0.005 440.767-0.007 13.443 0.25 25.873-3.997 35.801-11.988 9.904-7.975 16.697-19.165 19.201-31.623l64.21-336.701h-681.68z"></path>
    </symbol>

    <symbol xmlns="http://www.w3.org/2000/svg" viewBox="0 0 1024 1024" id="icon-phone" >
        <path d="M902.039 936.487c6.821-2.305 13.091-6.015 18.407-10.892s9.556-10.812 12.443-17.412c2.889-6.608 4.364-13.741 4.333-20.951v-141.423c0.26-13.962-4.096-26.201-12.239-35.81-8.181-9.653-19.608-15.977-32.127-17.782-48.313-6.394-95.732-18.214-141.446-35.277-9.265-3.483-19.337-4.237-29.015-2.172-9.654 2.060-18.515 6.831-25.548 13.756l-59.69 59.696c-13.488 13.489-34.326 16.302-50.908 6.874-124.501-70.793-227.582-173.874-298.374-298.375-9.428-16.581-6.615-37.419 6.873-50.906l59.695-59.694c6.924-7.030 11.697-15.892 13.755-25.542 2.065-9.684 1.311-19.756-2.209-29.12-17.030-45.637-28.85-93.052-35.237-141.343-1.79-12.38-8.001-23.696-17.488-31.855-9.529-8.195-21.711-12.645-34.277-12.521-0.093 0.001-47.299 0.002-141.619 0.002-7.189 0.007-14.297 1.51-20.875 4.416s-12.479 7.149-17.325 12.457c-4.847 5.31-8.536 11.572-10.832 18.389-2.264 6.721-3.123 13.836-2.524 20.904 14.796 138.772 62.044 272.118 137.924 389.251 69.148 108.813 161.143 200.808 269.646 269.758 116.92 75.817 249.6 123.052 387.724 138.126 7.073 0.594 14.193-0.272 20.931-2.553zM1021.966 886.967c0.068 18.983-3.824 37.768-11.433 55.172-7.618 17.414-18.789 33.048-32.794 45.899-14.015 12.859-30.56 22.648-48.553 28.728-18.010 6.095-37.099 8.358-56.039 6.646-152.153-16.523-297.585-68.243-425.38-151.078-118.879-75.578-219.681-176.38-295.255-295.258-83.127-128.373-134.86-274.515-151.010-426.597-1.771-19.541 0.473-38.567 6.524-56.531s15.774-34.469 28.552-48.467c12.779-13.999 28.333-25.184 45.673-32.844s36.083-11.624 55.077-11.642h141.052c33.049-0.27 65.078 11.458 90.141 33.012 25.12 21.603 41.528 51.604 46.165 84.41 5.597 42.422 15.878 83.692 30.664 123.316 9.186 24.434 11.173 50.99 5.729 76.52-5.445 25.529-18.093 48.962-36.447 67.523l-36.595 36.595c56.623 89.882 132.677 165.936 222.559 222.56l36.424-36.428c18.737-18.523 42.164-31.168 67.689-36.614 25.528-5.448 52.089-3.46 76.429 5.691 39.699 14.817 80.971 25.098 123.026 30.649 33.534 4.729 63.818 21.431 85.47 46.98 21.553 25.433 33.049 57.864 32.332 91.182v140.576z"></path>
    </symbol>

    <symbol xmlns="http://www.w3.org/2000/svg" viewBox="0 0 1024 1024" id="icon-phone-solid" >
        <path d="M880.41 649.274c-53.734 0-106.496-8.403-156.499-24.927-24.499-8.356-54.618-0.69-69.574 14.668l-98.687 74.502c-114.453-61.094-184.954-131.574-245.214-245.167l72.308-96.119c18.787-18.761 25.525-46.167 17.452-71.881-16.594-50.263-25.024-103.001-25.024-156.761 0.003-38.837-31.593-70.432-70.428-70.432h-161.188c-38.834 0-70.429 31.595-70.429 70.429 0 445.143 362.144 807.288 807.284 807.288 38.835 0 70.432-31.597 70.432-70.432v-160.736c0-38.835-31.597-70.432-70.432-70.432z"></path>
    </symbol>

    <symbol xmlns="http://www.w3.org/2000/svg" viewBox="0 0 1024 1024" id="icon-phone-callback" >
        <path d="M872.23 0h-240.029c-82.72 0-150.019 67.297-150.019 150.016v122.013c0 72.446 51.624 133.062 120.015 147.002v63.021c0 11.365 6.421 21.752 16.586 26.837 10.149 5.075 22.317 3.994 31.418-2.835l112.019-84.009h110.010c82.944 0 152.019-67.091 152.019-150.016v-122.013c0-82.941-69.088-150.016-152.019-150.016zM933.536 805.715l-212.154-152.147c-9.888-7.085-23.072-7.507-33.389-1.062l-119.53 74.694c-6.429 1.229-34.374-4-88.407-43.11-45.43-32.883-94.113-78.929-130.228-123.164-53.513-65.545-57.501-98.592-54.565-106.001l75.050-120.097c6.447-10.315 6.027-23.5-1.062-33.386l-152.154-212.152c-5.135-7.159-13.156-11.699-21.935-12.417-8.771-0.718-17.432 2.458-23.663 8.687l-109.471 109.462c-62.012 62.006-79.274 156.424-42.955 234.951 48.564 104.997 111.612 202.022 187.393 288.377 108.332 123.45 239.279 220.397 389.212 288.154 76.764 34.694 169.635 16.768 231.068-44.666l110.522-110.522c6.234-6.227 9.408-14.88 8.691-23.661-0.723-8.781-5.261-16.8-12.422-21.939z"></path>
        <path fill="#fff" d="M632.253 182c-16.57 0-30.003 13.434-30.003 30.003s13.434 30.003 30.003 30.003c16.572 0 30.006-13.434 30.006-30.003s-13.434-30.003-30.006-30.003zM752.269 182c-16.57 0-30.003 13.434-30.003 30.003s13.434 30.003 30.003 30.003c16.57 0 30.003-13.434 30.003-30.003s-13.434-30.003-30.003-30.003zM872.282 182c-16.57 0-30.003 13.434-30.003 30.003s13.434 30.003 30.003 30.003c16.57 0 30.003-13.434 30.003-30.003s-13.427-30.003-30.003-30.003z"></path>
    </symbol>

    <symbol xmlns="http://www.w3.org/2000/svg" viewBox="0 0 1024 1024" id="icon-location-solid" >
        <path d="M512 0c-211.712 0-384 173.483-384 386.773 0 303.064 347.904 615.979 362.709 629.118 6.102 5.421 13.696 8.109 21.291 8.109s15.189-2.688 21.291-8.064c14.805-13.184 362.709-326.099 362.709-629.163 0-213.29-172.288-386.773-384-386.773zM512 597.333c-117.632 0-213.333-95.701-213.333-213.333s95.701-213.333 213.333-213.333c117.632 0 213.331 95.701 213.331 213.333s-95.699 213.333-213.331 213.333z"></path>
    </symbol>

    <symbol xmlns="http://www.w3.org/2000/svg" viewBox="0 0 1024 1024" id="icon-clock" >
        <path d="M512.042 986.707c-262.15 0-474.667-212.517-474.667-474.666 0-262.151 212.516-474.667 474.667-474.667 262.149 0 474.666 212.516 474.666 474.667 0 262.148-212.518 474.666-474.666 474.666zM512.042 890.707c209.129 0 378.666-169.537 378.666-378.666 0-209.131-169.536-378.667-378.666-378.667-209.132 0-378.667 169.535-378.667 378.667 0 209.13 169.536 378.666 378.667 378.666z"></path>
        <path d="M560 482.334l144.135 72.066c23.711 11.855 33.322 40.688 21.467 64.399s-40.688 33.322-64.399 21.467l-170.669-85.333c-16.262-8.131-26.534-24.751-26.534-42.933v-256c0-26.51 21.49-48 48-48s48 21.49 48 48v226.334z"></path>
    </symbol>

    <symbol xmlns="http://www.w3.org/2000/svg" viewBox="0 0 1024 1024" id="icon-clock-solid" >
        <path d="M511.982 73.156c-241.996 0-438.857 196.861-438.857 438.857s196.861 438.86 438.857 438.86c241.996 0 438.86-196.864 438.86-438.86s-196.864-438.857-438.86-438.857zM720.698 739.008c-7.136 7.13-16.493 10.72-25.856 10.72s-18.733-3.59-25.856-10.72l-182.858-182.852c-6.877-6.837-10.714-16.132-10.714-25.855v-237.716c0-20.223 16.38-36.57 36.569-36.57s36.569 16.346 36.569 36.57v222.576l172.147 172.135c14.298 14.304 14.298 37.414 0 51.712z"></path>
    </symbol>

    <symbol xmlns="http://www.w3.org/2000/svg" viewBox="0 0 1280 1024" id="icon-envelope" >
        <path d="M213.417 133.313c-32.157 0-58.667 26.51-58.667 58.666v640.002c0 32.153 26.51 58.662 58.667 58.662h853.335c32.153 0 58.662-26.51 58.662-58.662v-640.002c0-32.156-26.509-58.666-58.662-58.666h-853.335zM213.417 37.313h853.335c85.173 0 154.662 69.491 154.662 154.666v640.002c0 85.172-69.49 154.662-154.662 154.662h-853.335c-85.176 0-154.667-69.489-154.667-154.662v-640.002c0-85.176 69.49-154.666 154.667-154.666z"></path>
        <path d="M640.083 506.74l505.805-354.063c21.718-15.202 51.647-9.921 66.849 11.797s9.921 51.647-11.797 66.849l-533.331 373.331c-16.527 11.569-38.525 11.569-55.052 0l-533.333-373.331c-21.718-15.202-26.999-45.132-11.797-66.849s45.132-26.999 66.849-11.797l505.807 354.063z"></path>
    </symbol>

    <symbol xmlns="http://www.w3.org/2000/svg" viewBox="0 0 22 22" id="icon-metro" >
        <path d="M21.6041 16.0596H20.2193L15.9231 4.38623L10.9998 11.5064L5.73754 4.47085L1.7807 16.0596H0.395896L0 17.6136H5.25703L7.32065 11.9326L11.0622 16.9292L11.0846 16.9606L11.1075 16.9292L14.6793 11.9326L16.743 17.6136H22L21.6041 16.0596Z"/>
    </symbol>

    <symbol xmlns="http://www.w3.org/2000/svg" viewBox="0 0 1024 1024" id="icon-plus" >
        <path d="M443.733 113.778c0-37.703 30.564-68.267 68.267-68.267s68.267 30.564 68.267 68.267v796.444c0 37.703-30.564 68.267-68.267 68.267s-68.267-30.564-68.267-68.267v-796.444zM910.222 407.532c37.703 0 68.267 30.564 68.267 68.267s-30.564 68.267-68.267 68.267h-796.444c-37.703 0-68.267-30.564-68.267-68.267s30.564-68.267 68.267-68.267h796.444z"></path>
    </symbol>

    <symbol xmlns="http://www.w3.org/2000/svg" viewBox="0 0 1024 1024" id="icon-minus" >
        <path d="M949.073 437.073c41.381 0 74.927 33.546 74.927 74.927s-33.546 74.927-74.927 74.927h-874.146c-41.381 0-74.927-33.546-74.927-74.927s33.546-74.927 74.927-74.927h874.146z"></path>
    </symbol>

    <symbol xmlns="http://www.w3.org/2000/svg" viewBox="0 0 922 1024" id="icon-trash" >
        <path d="M76.8 307.2c-28.277 0-51.2-22.923-51.2-51.2s22.923-51.2 51.2-51.2h768c28.277 0 51.2 22.923 51.2 51.2s-22.923 51.2-51.2 51.2h-768z"></path>
        <path d="M593.132 217.592v-46.934c0-12.447-4.945-24.386-13.742-33.185-8.805-8.804-20.742-13.748-33.188-13.748h-170.668c-12.447 0-24.385 4.945-33.187 13.747s-13.746 20.739-13.746 33.187v46.934h264.531zM251.8 255.992v-85.334c0-32.816 13.036-64.288 36.241-87.493s54.677-36.24 87.493-36.24h170.668c32.814 0 64.284 13.036 87.495 36.243 23.2 23.205 36.235 54.676 36.235 87.49v85.334c0 21.208-17.192 38.4-38.4 38.4h-341.331c-21.208 0-38.4-17.192-38.4-38.4zM721.132 294.392h-520.531v558.933c0 12.447 4.945 24.387 13.748 33.188 8.801 8.802 20.738 13.747 33.186 13.747h426.668c12.446 0 24.382-4.945 33.186-13.749 8.798-8.798 13.744-20.739 13.744-33.186v-558.933zM797.932 255.992v597.333c0 32.815-13.036 64.291-36.238 87.492-23.206 23.206-54.677 36.243-87.492 36.243h-426.668c-32.818 0-64.291-13.037-87.491-36.24-23.206-23.201-36.243-54.678-36.243-87.495v-597.333c0-21.208 17.192-38.4 38.4-38.4h597.331c21.208 0 38.4 17.192 38.4 38.4z"></path>
    </symbol>

    <symbol xmlns="http://www.w3.org/2000/svg" viewBox="0 0 1024 1024" id="icon-ascending" >
        <path d="M541.764 943.343v33.997c0 18.773-15.219 33.997-33.995 33.997h-473.774c-18.776 0-33.995-15.223-33.995-33.997v-33.997c0-18.773 15.22-33.997 33.995-33.997h473.774c18.776 0 33.995 15.223 33.995 33.997z"></path>
        <path d="M443.93 797.167h-409.934c-18.776 0-33.995-15.22-33.995-33.995v-33.995c0-18.776 15.22-33.995 33.995-33.995h409.934c18.776 0 33.995 15.219 33.995 33.995v33.995c0 18.775-15.219 33.995-33.995 33.995z"></path>
        <path d="M380.083 583h-346.088c-18.776 0-33.995-15.219-33.995-33.995v-33.995c0-18.776 15.22-33.995 33.995-33.995h346.088c18.776 0 33.995 15.219 33.995 33.995v33.995c0 18.776-15.219 33.995-33.995 33.995z"></path>
        <path d="M316.24 345h-282.245c-18.776 0-33.995-15.22-33.995-33.995v-33.995c0-18.776 15.22-33.996 33.995-33.996h282.245c18.772 0 33.995 15.22 33.995 33.996v33.995c0 18.775-15.219 33.995-33.995 33.995z"></path>
        <path d="M252.394 130.833h-218.399c-18.776 0-33.995-15.219-33.995-33.995v-33.995c0-18.776 15.22-33.995 33.995-33.995h218.399c18.772 0 33.995 15.22 33.995 33.995v33.995c0 18.776-15.219 33.995-33.995 33.995z"></path>
        <path d="M1014.016 286.754l-24.038 24.038c-6.374 6.374-15.027 9.958-24.038 9.958-9.020 0-17.664-3.583-24.047-9.958l-116.916-116.919v766.469c0 18.773-15.219 33.988-33.995 33.988h-33.995c-18.776 0-33.995-15.215-33.995-33.988v-766.466l-116.919 116.919c-6.378 6.374-15.023 9.958-24.038 9.958s-17.664-3.583-24.038-9.958l-24.042-24.038c-13.272-13.275-13.272-34.801 0-48.076l215.991-215.992c6.64-6.639 15.339-9.957 24.038-9.957s17.402 3.318 24.038 9.957l215.995 215.992c13.269 13.274 13.269 34.801 0 48.073z"></path>
    </symbol>

    <symbol xmlns="http://www.w3.org/2000/svg" viewBox="0 0 1024 1024" id="icon-descending" >
        <path d="M541.764 80.657v-33.995c0-18.776-15.219-33.995-33.995-33.995h-473.774c-18.776 0-33.995 15.22-33.995 33.995v33.995c0 18.776 15.22 33.995 33.995 33.995h473.774c18.776 0 33.995-15.219 33.995-33.995z"></path>
        <path d="M443.93 226.833h-409.934c-18.776 0-33.995 15.22-33.995 33.995v33.995c0 18.776 15.22 33.995 33.995 33.995h409.934c18.776 0 33.995-15.219 33.995-33.995v-33.995c0-18.775-15.219-33.995-33.995-33.995z"></path>
        <path d="M380.083 441h-346.088c-18.776 0-33.995 15.219-33.995 33.995v33.995c0 18.776 15.22 33.995 33.995 33.995h346.088c18.776 0 33.995-15.219 33.995-33.995v-33.995c0-18.776-15.219-33.995-33.995-33.995z"></path>
        <path d="M316.24 679h-282.245c-18.776 0-33.995 15.22-33.995 33.995v33.995c0 18.776 15.22 33.996 33.995 33.996h282.245c18.772 0 33.995-15.22 33.995-33.996v-33.995c0-18.775-15.219-33.995-33.995-33.995z"></path>
        <path d="M252.394 893.167h-218.399c-18.776 0-33.995 15.223-33.995 33.997v33.997c0 18.773 15.22 33.988 33.995 33.988h218.399c18.772 0 33.995-15.215 33.995-33.988v-33.997c0-18.773-15.219-33.997-33.995-33.997z"></path>
        <path d="M1014.016 737.246l-24.038-24.038c-6.374-6.374-15.027-9.958-24.038-9.958-9.020 0-17.664 3.583-24.047 9.958l-116.916 116.919v-766.466c0-18.775-15.219-33.995-33.995-33.995h-33.995c-18.776 0-33.995 15.22-33.995 33.995v766.463l-116.919-116.919c-6.378-6.374-15.023-9.958-24.038-9.958s-17.664 3.583-24.038 9.958l-24.042 24.038c-13.272 13.275-13.272 34.801 0 48.076l215.991 215.991c6.64 6.639 15.339 9.958 24.038 9.958s17.402-3.319 24.038-9.958l215.995-215.991c13.269-13.274 13.269-34.801 0-48.073z"></path>
    </symbol>

    <symbol xmlns="http://www.w3.org/2000/svg" viewBox="0 0 1024 1024" id="icon-layout-grid" >
        <path d="M0 0h472.615v472.615h-472.615v-472.615z"></path>
        <path d="M0 551.412h472.615v472.615h-472.615v-472.615z"></path>
        <path d="M551.412 0h472.615v472.615h-472.615v-472.615z"></path>
        <path d="M551.412 551.412h472.615v472.615h-472.615v-472.615z"></path>
    </symbol>

    <symbol xmlns="http://www.w3.org/2000/svg" viewBox="0 0 1084 1024" id="icon-layout-list" >
        <path d="M374.294 0h658.287v292.571h-658.287v-292.571z"></path>
        <path d="M374.294 731.413h658.287v292.571h-658.287v-292.571z"></path>
        <path d="M374.294 365.706h658.287v292.571h-658.287v-292.571z"></path>
        <path d="M8.588 0h292.571v292.571h-292.571v-292.571z"></path>
        <path d="M8.588 731.413h292.571v292.571h-292.571v-292.571z"></path>
        <path d="M8.588 365.706h292.571v292.571h-292.571v-292.571z"></path>
    </symbol>


    <symbol xmlns="http://www.w3.org/2000/svg" viewBox="0 0 1024 1024" id="icon-skype" >
        <path d="M748.001 1024c-55.706 0-108.652-16.22-154.25-47.094-147.743 25.83-302.868-18.514-415.509-131.149-112.586-112.594-156.984-267.704-131.148-415.507-30.875-45.602-47.094-98.547-47.094-154.25 0-152.187 123.812-276 276-276 55.704 0 108.648 16.219 154.25 47.094 322.057-56.297 603.166 223.43 546.656 546.657 30.874 45.599 47.094 98.545 47.094 154.25 0 152.187-123.812 275.999-275.999 275.999zM627.732 902.764c34.657 26.977 76.242 41.236 120.269 41.236 108.068 0 195.999-87.921 195.999-195.999 0-44.027-14.259-85.612-41.236-120.269-7.265-9.334-10.030-21.407-7.537-32.968 59.971-279.179-188.749-525.554-465.993-465.991-11.554 2.484-23.632-0.273-32.969-7.539-34.656-26.977-76.242-41.234-120.266-41.234-108.070 0-196 87.922-196 196 0 44.024 14.258 85.609 41.234 120.266 7.266 9.336 10.031 21.406 7.539 32.969-59.836 278.555 188.101 525.687 465.991 465.993 11.51-2.478 23.593 0.241 32.968 7.537zM709.335 630.001c0-108.017-136.556-141.032-167.117-150.415-63.312-19.429-147.554-41.094-147.554-85.586 0-42.281 53.734-78 117.336-78 50.601 0 96.732 22.914 112.195 55.718 9.421 19.977 33.26 28.547 53.243 19.125 19.978-9.422 28.539-33.25 19.123-53.235-31.473-66.774-109.747-101.609-184.561-101.609-116.39 0-197.336 75.687-197.336 158 0 108.016 136.555 141.030 167.117 150.415 63.314 19.43 147.554 41.093 147.554 85.586 0 42.281-53.734 77.998-117.335 77.998-50.601 0-96.734-22.912-112.195-55.716-9.422-19.978-33.258-28.549-53.242-19.128-19.977 9.426-28.539 33.249-19.125 53.238 31.477 66.77 109.75 101.606 184.563 101.606 116.393 0 197.335-75.684 197.335-157.998z"></path>
    </symbol>

    <symbol xmlns="http://www.w3.org/2000/svg" viewBox="0 0 16 16" id="icon-whatsapp" >
        <path d="M8.002 0H7.998C3.587 0 0 3.588 0 8C0 9.75 0.564 11.372 1.523 12.689L0.526 15.661L3.601 14.678C4.866 15.516 6.375 16 8.002 16C12.413 16 16 12.411 16 8C16 3.589 12.413 0 8.002 0Z" fill="#4CAF50"/>
        <path d="M12.6566 11.2972C12.4636 11.8422 11.6976 12.2942 11.0866 12.4262C10.6686 12.5152 10.1226 12.5862 8.28456 11.8242C5.93356 10.8502 4.41956 8.46118 4.30156 8.30618C4.18856 8.15118 3.35156 7.04118 3.35156 5.89318C3.35156 4.74518 3.93456 4.18618 4.16956 3.94618C4.36256 3.74918 4.68156 3.65918 4.98756 3.65918C5.08656 3.65918 5.17556 3.66418 5.25556 3.66818C5.49056 3.67818 5.60856 3.69218 5.76356 4.06318C5.95656 4.52818 6.42656 5.67618 6.48256 5.79418C6.53956 5.91218 6.59656 6.07218 6.51656 6.22718C6.44156 6.38718 6.37556 6.45818 6.25756 6.59418C6.13956 6.73018 6.02756 6.83418 5.90956 6.98018C5.80156 7.10718 5.67956 7.24318 5.81556 7.47818C5.95156 7.70818 6.42156 8.47518 7.11356 9.09118C8.00656 9.88618 8.73056 10.1402 8.98956 10.2482C9.18256 10.3282 9.41256 10.3092 9.55356 10.1592C9.73256 9.96618 9.95356 9.64618 10.1786 9.33118C10.3386 9.10518 10.5406 9.07718 10.7526 9.15718C10.9686 9.23218 12.1116 9.79718 12.3466 9.91418C12.5816 10.0322 12.7366 10.0882 12.7936 10.1872C12.8496 10.2862 12.8496 10.7512 12.6566 11.2972Z" fill="#FAFAFA"/>
    </symbol>


    <symbol xmlns="http://www.w3.org/2000/svg" viewBox="0 0 1024 1024" id="icon-file-pdf" >
        <path d="M736 512h-128c-17.675 0-32 14.326-32 32v256c0 17.675 14.325 32 32 32h128c35.345 0 64-28.655 64-64v-192c0-35.346-28.655-64-64-64zM736 768h-96v-192h96v192z"></path>
        <path d="M1024 576v-64h-160c-17.675 0-32 14.326-32 32v288h64v-128h128v-64h-128v-64h128z"></path>
        <path d="M64 928v-831.999c0-17.674 14.326-32 32-32h480v128c0 35.346 28.655 64 64 64h128v96h64v-128c0.051-8.506-3.288-16.682-9.279-22.72l-192-192c-6.042-5.99-14.217-9.328-22.721-9.28h-512c-53.020 0-96 42.982-96 96v831.999c0 53.020 42.98 96 96 96h224v-64h-224c-17.672 0-32-14.325-32-32z"></path>
        <path d="M480 512h-128c-17.674 0-32 14.326-32 32v288h64v-96h96c35.346 0 64-28.655 64-64v-96c0-35.346-28.654-64-64-64zM480 672h-96v-96h96v96z"></path>
    </symbol>


    <symbol xmlns="http://www.w3.org/2000/svg" viewBox="0 0 1144 1024" id="icon-load" >
        <path d="M1121.271 213.023c-23.959-16.010-56.368-9.567-72.379 14.396l-95.892 143.504c-22.88-75.959-64.292-145.56-121.955-203.228-189.859-189.862-498.79-189.862-688.651 0-189.858 189.861-189.858 498.784 0 688.643 94.931 94.928 219.629 142.396 344.325 142.396s249.395-47.468 344.326-142.396c20.381-20.378 20.381-53.42 0-73.797-20.381-20.381-53.42-20.378-73.8-0.006-149.17 149.17-391.882 149.17-541.051 0.006-149.165-149.17-149.165-391.882 0-541.046 149.173-149.168 391.888-149.165 541.051-0.004 46.044 46.051 78.887 101.793 96.672 162.618l-159.060-106.276c-23.965-16.007-56.371-9.564-72.385 14.4s-9.565 56.371 14.399 72.384l255.621 170.794c8.906 5.948 18.98 8.797 28.943 8.797 16.842 0 33.379-8.141 43.439-23.197l170.797-255.609c16.011-23.96 9.565-56.366-14.399-72.38z"></path>
    </symbol>
</svg>