<!-- Generated by IcoMoon.io -->
<svg version="1.1" xmlns="http://www.w3.org/2000/svg" width="1024" height="1024" viewBox="0 0 1024 1024">
<title></title>
<g id="icomoon-ignore">
</g>
<path d="M763.255 624.003l-70.144-14.694c77.784-89.434 54.767-184.825 58.891-217.309h9.995c16.572 0 30.003-13.431 30.003-30v-100c0-14.378-10.206-26.736-24.326-29.458l-26.897-5.184c-21.55-67.918-72.687-123.13-138.78-149.88v-47.478c0-16.568-13.431-30-29.998-30h-120.001c-16.568 0-30 13.432-30 30v47.452c-66.18 26.746-117.246 81.854-138.802 149.942l-26.84 5.14c-14.136 2.71-24.358 15.074-24.358 29.466v100c0 16.568 13.432 30 30 30h10c4.112 32.404-18.832 127.922 58.872 217.286l-70.15 14.7c-115.336 24.172-198.722 126.054-198.722 244.685v125.332c0 16.566 13.432 29.998 30 29.998h839.999c16.566 0 30.003-13.431 30.003-29.998v-125.315c0-117.84-82.62-220.359-198.747-244.685zM634.465 658.324l87.535 18.335v105.341h-420v-105.358l87.5-18.335c74.216 44.231 168.412 45.625 244.965 0.017zM302 842.001h420v121.998h-420v-121.998zM482 60h60v92h-60v-92zM292 286.8l20.862-3.996c11.71-2.244 20.98-11.208 23.616-22.833 11.19-49.38 42.65-91.176 85.522-115.926v37.956c0 16.568 13.432 30 30 30h120.001c16.566 0 29.998-13.432 29.998-30v-37.914c42.837 24.776 74.337 66.612 85.504 115.832 2.634 11.612 11.89 20.566 23.58 22.82l20.918 4.032v45.23h-440.001v-45.2zM692.002 392v60c0 99.252-80.748 180.002-180.002 180.002-99.252 0-180-80.749-180-180.002v-60h360.002zM122 868.671c0-78.45 48.902-148.258 120-176.589v271.918h-120v-95.329zM902.002 963.999h-120.001c0-100.585 0-171.253 0-271.9 71.1 28.331 120.001 98.139 120.001 176.594v95.306z"></path>
</svg>
