<!-- Generated by IcoMoon.io -->
<svg version="1.1" xmlns="http://www.w3.org/2000/svg" width="1024" height="1024" viewBox="0 0 1024 1024">
<title></title>
<g id="icomoon-ignore">
</g>
<path d="M1019.715 625.102l-172.522-287.558 154.832-43.009c15.965-4.434 25.308-20.97 20.877-36.934-4.437-15.964-20.976-25.312-36.935-20.876l-192.462 53.46c-0.016 0.004-0.028 0.008-0.043 0.012l-251.46 69.847v-330.045c0-16.568-13.43-30-30-30-16.567 0-30 13.432-30 30v346.711l-266.885 74.134c-0.014 0.003-0.028 0.006-0.042 0.009l-193.094 53.636c-15.966 4.434-25.31 20.97-20.878 36.932 3.69 13.278 15.748 21.979 28.888 21.979 2.658 0 5.362-0.357 8.046-1.102l120.372-33.435-154.12 256.897c-2.796 4.661-4.276 9.998-4.276 15.434 0 122.846 99.946 222.788 222.794 222.788 122.851 0 222.796-99.942 222.796-222.788 0-5.437-1.477-10.774-4.276-15.434l-172.524-287.561 467.995-129.992-154.121 256.894c-2.796 4.661-4.276 9.998-4.276 15.434 0 122.846 99.946 222.788 222.794 222.788 59.51 0 115.458-23.173 157.541-65.254 42.083-42.083 65.257-98.031 65.254-157.541 0.003-5.433-1.474-10.768-4.273-15.428zM222.805 963.987c-79.514 0-145.866-57.316-159.992-132.794h319.983c-14.122 75.478-80.475 132.794-159.991 132.794zM362.62 771.193h-279.627l139.812-233.038 139.815 233.038zM801.193 377.496l139.819 233.038h-279.633l139.813-233.038zM801.196 803.328c-79.512 0-145.867-57.316-159.995-132.791h319.991c-14.128 75.475-80.477 132.791-159.995 132.791z"></path>
</svg>
