<!-- Generated by IcoMoon.io -->
<svg version="1.1" xmlns="http://www.w3.org/2000/svg" width="1280" height="1024" viewBox="0 0 1280 1024">
<title></title>
<g id="icomoon-ignore">
</g>
<path d="M213.417 133.313c-32.157 0-58.667 26.51-58.667 58.666v640.002c0 32.153 26.51 58.662 58.667 58.662h853.335c32.153 0 58.662-26.51 58.662-58.662v-640.002c0-32.156-26.509-58.666-58.662-58.666h-853.335zM213.417 37.313h853.335c85.173 0 154.662 69.491 154.662 154.666v640.002c0 85.172-69.49 154.662-154.662 154.662h-853.335c-85.176 0-154.667-69.489-154.667-154.662v-640.002c0-85.176 69.49-154.666 154.667-154.666z"></path>
<path d="M640.083 506.74l505.805-354.063c21.718-15.202 51.647-9.921 66.849 11.797s9.921 51.647-11.797 66.849l-533.331 373.331c-16.527 11.569-38.525 11.569-55.052 0l-533.333-373.331c-21.718-15.202-26.999-45.132-11.797-66.849s45.132-26.999 66.849-11.797l505.807 354.063z"></path>
</svg>
