<svg width="65" height="65" viewBox="0 0 65 65" fill="none" xmlns="http://www.w3.org/2000/svg">
<g clip-path="url(#clip0)">
<path d="M61.3746 34.7819L60.5092 33.6498C59.6464 34.3087 58.7757 34.9545 57.8894 35.5846L58.7156 36.7455C59.615 36.1075 60.5013 35.4513 61.3746 34.7819ZM55.9833 38.6097L55.2042 37.4175C54.2969 38.011 53.3765 38.581 52.4457 39.13L53.17 40.3563C54.1217 39.7968 55.0604 39.2137 55.9833 38.6097ZM50.2678 41.9669L49.6089 40.7014C48.6389 41.206 47.6584 41.6793 46.6936 42.1107L47.2741 43.4128C48.2676 42.9683 49.2742 42.4846 50.2678 41.9669ZM44.194 44.6625L43.7025 43.3239C42.7795 43.6612 41.8487 43.9697 40.9362 44.239L40.6434 44.3226L41.0251 45.6979L41.3415 45.6064C42.2801 45.3319 43.2423 45.0129 44.194 44.6625ZM37.7804 46.4797L37.5059 45.0809C36.4443 45.2901 35.375 45.4548 34.3239 45.5698L34.4808 46.9869C35.5711 46.8693 36.6849 46.6967 37.7804 46.4797ZM31.1445 47.2013L31.1184 45.7738C30.0359 45.7947 28.9587 45.7633 27.9103 45.677L27.7978 47.0967C28.8907 47.1909 30.0176 47.2249 31.1445 47.2013ZM24.4721 46.668L24.7335 45.2665C23.6746 45.0704 22.6288 44.8142 21.6274 44.5083L21.2116 45.8705C22.2627 46.1947 23.3609 46.4614 24.4721 46.668ZM18.0584 44.6939L18.6363 43.3892C18.367 43.2716 18.1003 43.1461 17.8362 43.018C17.1538 42.6859 16.4766 42.312 15.8203 41.9068L15.0725 43.1199C15.768 43.5487 16.4897 43.9461 17.2113 44.2965C17.4937 44.4377 17.7761 44.5684 18.0584 44.6939ZM12.3324 41.159L13.2397 40.0582C12.6514 39.5745 12.0788 39.0542 11.5402 38.5156C11.331 38.3064 11.1271 38.092 10.9258 37.875L9.87994 38.8424C10.0943 39.0725 10.3113 39.3 10.5336 39.5222C11.101 40.0948 11.7075 40.6439 12.3324 41.159ZM8.92299 35.4016C8.31379 34.5257 7.76734 33.608 7.29932 32.6746L6.02339 33.3125C6.52016 34.3061 7.10061 35.284 7.75165 36.2174L8.92299 35.4016ZM6.10968 29.7436C5.79069 28.7291 5.55538 27.6937 5.4168 26.6662L4.0023 26.8571C4.15395 27.9657 4.40495 29.0795 4.74746 30.1698L6.10968 29.7436Z" fill="#E64444"/>
<path d="M60.5927 41.6873L59.1913 41.4258L60.4829 34.5128L53.4967 33.7284L53.6561 32.3087L62.1667 33.2683L60.5927 41.6873Z" fill="#E64444"/>
</g>
<defs>
<clipPath id="clip0">
<rect width="65" height="65" fill="white" transform="matrix(-1 0 0 1 65 0)"/>
</clipPath>
</defs>
</svg>
