<!-- Generated by IcoMoon.io -->
<svg version="1.1" xmlns="http://www.w3.org/2000/svg" width="1024" height="1024" viewBox="0 0 1024 1024">
<title></title>
<g id="icomoon-ignore">
</g>
<path d="M736 512h-128c-17.675 0-32 14.326-32 32v256c0 17.675 14.325 32 32 32h128c35.345 0 64-28.655 64-64v-192c0-35.346-28.655-64-64-64zM736 768h-96v-192h96v192z"></path>
<path d="M1024 576v-64h-160c-17.675 0-32 14.326-32 32v288h64v-128h128v-64h-128v-64h128z"></path>
<path d="M64 928v-831.999c0-17.674 14.326-32 32-32h480v128c0 35.346 28.655 64 64 64h128v96h64v-128c0.051-8.506-3.288-16.682-9.279-22.72l-192-192c-6.042-5.99-14.217-9.328-22.721-9.28h-512c-53.020 0-96 42.982-96 96v831.999c0 53.020 42.98 96 96 96h224v-64h-224c-17.672 0-32-14.325-32-32z"></path>
<path d="M480 512h-128c-17.674 0-32 14.326-32 32v288h64v-96h96c35.346 0 64-28.655 64-64v-96c0-35.346-28.654-64-64-64zM480 672h-96v-96h96v96z"></path>
</svg>
