<!-- Generated by IcoMoon.io -->
<svg version="1.1" xmlns="http://www.w3.org/2000/svg" width="1024" height="1024" viewBox="0 0 1024 1024">
<title></title>
<g id="icomoon-ignore">
</g>
<path d="M128 828.118l110.059-110.059c9.002-9.002 21.211-14.059 33.941-14.059h576c12.733 0 24.945-5.057 33.944-14.056s14.056-21.211 14.056-33.944v-480c0-12.732-5.056-24.941-14.056-33.941s-21.213-14.059-33.944-14.059h-672c-12.73 0-24.94 5.057-33.941 14.059s-14.059 21.211-14.059 33.941v652.118zM291.882 800l-177.941 177.941c-30.238 30.238-81.941 8.822-81.941-33.941v-768c0-38.191 15.172-74.818 42.177-101.823s63.633-42.177 101.823-42.177h672c38.19 0 74.821 15.172 101.826 42.177s42.174 63.632 42.174 101.823v480c0 38.191-15.17 74.822-42.174 101.826s-63.635 42.174-101.826 42.174h-556.118z"></path>
</svg>
