<!-- Generated by IcoMoon.io -->
<svg version="1.1" xmlns="http://www.w3.org/2000/svg" width="1024" height="1024" viewBox="0 0 1024 1024">
<title></title>
<g id="icomoon-ignore">
</g>
<path d="M980.154 517.893l-1.941-4.547-0.698 0.349-129.098-321.321h54.049c13.498 0 24.441-10.943 24.441-24.44s-10.943-24.44-24.441-24.44h-367.709v-52.526c0-13.497-10.943-24.44-24.436-24.44-13.498 0-24.441 10.943-24.441 24.44v52.328h-367.512c-13.497 0-24.44 10.943-24.44 24.44s10.943 24.44 24.44 24.44h56.62l-131.159 325.764c-1.21 2.849-1.866 5.902-1.936 8.997h-0.001v0.102c0 93.431 75.741 169.174 169.171 169.174s169.171-75.743 169.172-169.174l-0.002-0.102c-0.070-3.091-0.726-6.144-1.934-8.997l-130.968-325.962h238.549v602.833c-46.256 4.254-87.58 20.406-117.713 44.232-31.067 24.562-50.465 57.512-50.465 93.999 0 13.494 10.943 24.436 24.44 24.436h336.352c13.498 0 24.441-10.943 24.441-24.436 0-36.487-19.395-69.437-50.465-93.999-30.134-23.827-71.457-39.978-117.713-44.232v-602.833h241.138l-130.192 325.967c-1.21 2.849-1.866 5.902-1.936 8.993v0 0.102c0 93.431 75.743 169.174 169.174 169.174s169.169-75.743 169.169-169.174v-0.102c-0.070-3.109-0.735-6.181-1.955-9.044zM812.041 647.629l-4.65 0.005v0.065c-54.896-2.555-101.115-42.068-112.23-95.823h234.557c-11.571 55.473-60.514 95.674-117.676 95.753zM210.953 647.629c-57.154-0.088-106.092-40.285-117.66-95.753h234.548c-11.509 55.189-60.026 95.302-116.888 95.753zM319.435 502.998h-216.54l108.456-269.932 108.084 269.932zM601.167 863.73c22.421 11.804 38.973 27.518 47.081 44.87h-276.057c8.102-17.357 24.61-33.071 46.986-44.874 24.929-13.149 56.723-21.201 90.943-21.201 34.225 0 66.067 8.052 91.048 21.206zM703.586 502.998l108.456-269.742 108.079 269.742h-216.534z"></path>
</svg>
