<!-- Generated by IcoMoon.io -->
<svg version="1.1" xmlns="http://www.w3.org/2000/svg" width="1024" height="1024" viewBox="0 0 1024 1024">
<title></title>
<g id="icomoon-ignore">
</g>
<path d="M512 0c-211.712 0-384 173.483-384 386.773 0 303.064 347.904 615.979 362.709 629.118 6.102 5.421 13.696 8.109 21.291 8.109s15.189-2.688 21.291-8.064c14.805-13.184 362.709-326.099 362.709-629.163 0-213.29-172.288-386.773-384-386.773zM512 597.333c-117.632 0-213.333-95.701-213.333-213.333s95.701-213.333 213.333-213.333c117.632 0 213.331 95.701 213.331 213.333s-95.699 213.333-213.331 213.333z"></path>
</svg>
