<svg width="30" height="30" viewBox="0 0 30 30" fill="none" xmlns="http://www.w3.org/2000/svg">
<path d="M15 30C23.2843 30 30 23.2843 30 15C30 6.71573 23.2843 0 15 0C6.71573 0 0 6.71573 0 15C0 23.2843 6.71573 30 15 30Z" fill="#039BE5"/>
<path d="M6.86383 14.6747L21.3263 9.09852C21.9976 8.85602 22.5838 9.26227 22.3663 10.2773L22.3676 10.276L19.9051 21.8772C19.7226 22.6997 19.2338 22.8997 18.5501 22.5122L14.8001 19.7484L12.9913 21.4909C12.7913 21.6909 12.6226 21.8597 12.2351 21.8597L12.5013 18.0435L19.4513 11.7648C19.7538 11.4985 19.3838 11.3485 18.9851 11.6135L10.3963 17.021L6.69383 15.866C5.89008 15.611 5.87258 15.0622 6.86383 14.6747Z" fill="white"/>
</svg>
