<!-- Generated by IcoMoon.io -->
<svg version="1.1" xmlns="http://www.w3.org/2000/svg" width="1070" height="1024" viewBox="0 0 1070 1024">
<title></title>
<g id="icomoon-ignore">
</g>
<path fill="#000" d="M398.989 1023.788c-45.011 0-81.496-36.485-81.496-81.496s36.485-81.496 81.496-81.496c45.011 0 81.496 36.485 81.496 81.496s-36.485 81.496-81.496 81.496zM398.989 951.348c5.003 0 9.055-4.052 9.055-9.055s-4.052-9.055-9.055-9.055c-5.003 0-9.055 4.052-9.055 9.055s4.052 9.055 9.055 9.055z"></path>
<path fill="#000" d="M897.017 1023.788c-45.011 0-81.496-36.485-81.496-81.496s36.485-81.496 81.496-81.496c45.011 0 81.496 36.485 81.496 81.496s-36.485 81.496-81.496 81.496zM897.017 951.348c5.003 0 9.055-4.052 9.055-9.055s-4.052-9.055-9.055-9.055c-5.003 0-9.055 4.052-9.055 9.055s4.052 9.055 9.055 9.055z"></path>
<path fill="#000" d="M188.199 73.007h-151.412c-20.004 0-36.22-16.216-36.22-36.22s16.216-36.22 36.22-36.22h181.102c17.264 0 32.128 12.184 35.516 29.112l39.483 197.265h739.959c22.724 0 39.836 20.683 35.579 43.005l-72.441 379.859c-5.849 29.451-21.723 55.662-44.903 74.327-23.079 18.575-51.93 28.479-81.544 28.001h-439.443c-29.615 0.478-58.467-9.426-81.551-28.006-23.173-18.66-39.047-44.87-44.833-73.998l-75.698-378.207c-0.264-1.063-0.481-2.145-0.649-3.243l-39.164-195.675zM307.386 299.384l67.367 336.582c2.484 12.506 9.288 23.741 19.218 31.737 9.933 7.995 22.363 12.243 35.116 11.999 0.154-0.003 147.076-0.005 440.767-0.007 13.443 0.25 25.873-3.997 35.801-11.988 9.904-7.975 16.697-19.165 19.201-31.623l64.21-336.701h-681.68z"></path>
</svg>
