<!-- Generated by IcoMoon.io -->
<svg version="1.1" xmlns="http://www.w3.org/2000/svg" width="1024" height="1024" viewBox="0 0 1024 1024">
<title></title>
<g id="icomoon-ignore">
</g>
<path fill="#35cd00" d="M872.23 0h-240.029c-82.72 0-150.019 67.297-150.019 150.016v122.013c0 72.446 51.624 133.062 120.015 147.002v63.021c0 11.365 6.421 21.752 16.586 26.837 10.149 5.075 22.317 3.994 31.418-2.835l112.019-84.009h110.010c82.944 0 152.019-67.091 152.019-150.016v-122.013c0-82.941-69.088-150.016-152.019-150.016zM933.536 805.715l-212.154-152.147c-9.888-7.085-23.072-7.507-33.389-1.062l-119.53 74.694c-6.429 1.229-34.374-4-88.407-43.11-45.43-32.883-94.113-78.929-130.228-123.164-53.513-65.545-57.501-98.592-54.565-106.001l75.050-120.097c6.447-10.315 6.027-23.5-1.062-33.386l-152.154-212.152c-5.135-7.159-13.156-11.699-21.935-12.417-8.771-0.718-17.432 2.458-23.663 8.687l-109.471 109.462c-62.012 62.006-79.274 156.424-42.955 234.951 48.564 104.997 111.612 202.022 187.393 288.377 108.332 123.45 239.279 220.397 389.212 288.154 76.764 34.694 169.635 16.768 231.068-44.666l110.522-110.522c6.234-6.227 9.408-14.88 8.691-23.661-0.723-8.781-5.261-16.8-12.422-21.939z"></path>
<path fill="#fff" d="M632.253 182c-16.57 0-30.003 13.434-30.003 30.003s13.434 30.003 30.003 30.003c16.572 0 30.006-13.434 30.006-30.003s-13.434-30.003-30.006-30.003zM752.269 182c-16.57 0-30.003 13.434-30.003 30.003s13.434 30.003 30.003 30.003c16.57 0 30.003-13.434 30.003-30.003s-13.434-30.003-30.003-30.003zM872.282 182c-16.57 0-30.003 13.434-30.003 30.003s13.434 30.003 30.003 30.003c16.57 0 30.003-13.434 30.003-30.003s-13.427-30.003-30.003-30.003z"></path>
</svg>
