<!-- Generated by IcoMoon.io -->
<svg version="1.1" xmlns="http://www.w3.org/2000/svg" width="1097" height="1024" viewBox="0 0 1097 1024">
<title></title>
<g id="icomoon-ignore">
</g>
<path d="M395.958 422.84l-187.97 15.070 143.213 122.677c27.079 23.196 38.906 59.593 30.632 94.276l-43.754 183.426 160.926-98.293c30.43-18.59 68.702-18.59 99.13-0.002l160.929 98.295-43.753-183.427c-8.272-34.681 3.553-71.077 30.631-94.275l143.215-122.677-187.971-15.070c-35.542-2.849-66.504-25.344-80.196-58.266l-72.418-174.113-72.418 174.113c-13.692 32.922-44.654 55.417-80.196 58.266zM408.619 336.485l139.953-336.485 139.953 336.485c3.16 7.597 10.304 12.788 18.506 13.445l363.267 29.123-276.77 237.080c-6.249 5.353-8.978 13.754-7.069 21.757l84.555 354.483-311.006-189.962c-7.021-4.289-15.849-4.289-22.872 0.002l-311.005 189.961 84.558-354.484c1.909-8.003-0.82-16.402-7.069-21.755l-276.769-237.082 363.264-29.123c8.201-0.657 15.346-5.848 18.506-13.445z"></path>
</svg>
