<svg width="30" height="30" viewBox="0 0 30 30" fill="none" xmlns="http://www.w3.org/2000/svg">
<path d="M14.5312 1.40625H3.28125C2.24572 1.40625 1.40625 2.24572 1.40625 3.28125V24.8438C1.40625 25.8793 2.24572 26.7188 3.28125 26.7188H14.5312C15.5668 26.7188 16.4062 25.8793 16.4062 24.8438V3.28125C16.4062 2.24572 15.5668 1.40625 14.5312 1.40625Z" fill="#5AAAE7"/>
<path d="M16.4066 13.2334V24.8443C16.4066 25.3416 16.2091 25.8185 15.8575 26.1702C15.5058 26.5218 15.0289 26.7193 14.5316 26.7193H5.2832C7.76758 25.0271 12.7551 20.9115 16.4066 13.2334Z" fill="#3D9AE2"/>
<path d="M7.96875 5.15625H28.5938V17.3438H7.96875V5.15625Z" fill="#00CCB3"/>
<path d="M18.2815 7.0313C17.4479 7.03186 16.6332 7.27952 15.9403 7.74299C15.2474 8.20645 14.7075 8.86492 14.3887 9.63516C14.07 10.4054 13.9867 11.2529 14.1495 12.0704C14.3123 12.888 14.7137 13.6389 15.3032 14.2283C15.8926 14.8178 16.6436 15.2193 17.4611 15.382C18.2787 15.5448 19.1261 15.4615 19.8964 15.1428C20.6666 14.824 21.3251 14.2841 21.7886 13.5912C22.252 12.8984 22.4997 12.0836 22.5002 11.25C22.503 10.6953 22.3957 10.1454 22.1847 9.63237C21.9736 9.1193 21.663 8.65314 21.2707 8.26085C20.8784 7.86856 20.4122 7.55791 19.8992 7.34687C19.3861 7.13582 18.8363 7.02857 18.2815 7.0313Z" fill="#FFD422"/>
<path d="M27.3797 18.0891C27.2937 18.001 27.1909 17.931 27.0774 17.8835C26.9638 17.836 26.8418 17.8119 26.7187 17.8125C26.4703 17.8133 26.2323 17.9123 26.0566 18.0879C25.881 18.2636 25.782 18.5016 25.7812 18.75V18.2813C25.7794 18.0332 25.68 17.7958 25.5046 17.6204C25.3292 17.445 25.0918 17.3456 24.8437 17.3438C24.5953 17.3445 24.3573 17.4435 24.1816 17.6192C24.006 17.7948 23.907 18.0329 23.9062 18.2813V17.8125C23.906 17.6479 23.8623 17.4862 23.7797 17.3438C23.7392 17.2728 23.6887 17.2081 23.6297 17.1516C23.5437 17.0635 23.4409 16.9935 23.3274 16.946C23.2138 16.8985 23.0918 16.8744 22.9687 16.875C22.7201 16.875 22.4816 16.9738 22.3058 17.1496C22.13 17.3254 22.0312 17.5639 22.0312 17.8125V13.5938C22.0272 13.3461 21.9282 13.1095 21.7547 12.9328C21.6687 12.8447 21.5659 12.7748 21.4524 12.7273C21.3388 12.6798 21.2168 12.6556 21.0937 12.6563C20.8453 12.657 20.6073 12.756 20.4317 12.9317C20.256 13.1073 20.157 13.3454 20.1562 13.5938V18.75C20.1544 18.5019 20.055 18.2646 19.8796 18.0891C19.7042 17.9137 19.4668 17.8144 19.2187 17.8125C18.9703 17.8133 18.7323 17.9123 18.5567 18.0879C18.381 18.2636 18.282 18.5016 18.2812 18.75V23.9063L19.6875 26.25V28.5938H26.7187V26.25L27.6562 23.9063V18.75C27.6569 18.6269 27.6327 18.505 27.5852 18.3914C27.5377 18.2778 27.4678 18.175 27.3797 18.0891Z" fill="#FFC477"/>
<path d="M12.6562 20.1562H5.15625C4.63848 20.1562 4.21875 20.576 4.21875 21.0938V22.9688C4.21875 23.4865 4.63848 23.9062 5.15625 23.9062H12.6562C13.174 23.9062 13.5938 23.4865 13.5938 22.9688V21.0938C13.5938 20.576 13.174 20.1562 12.6562 20.1562Z" fill="#FF9811"/>
<path d="M12.1875 1.40625V2.8125C12.1875 2.93682 12.1381 3.05605 12.0502 3.14396C11.9623 3.23186 11.8431 3.28125 11.7188 3.28125H6.09375C5.96943 3.28125 5.8502 3.23186 5.76229 3.14396C5.67439 3.05605 5.625 2.93682 5.625 2.8125V1.40625H12.1875Z" fill="#FF9811"/>
<path d="M18.75 10.7812H17.8125C17.6882 10.7812 17.569 10.7319 17.481 10.644C17.3931 10.556 17.3438 10.4368 17.3438 10.3125C17.3438 10.1882 17.3931 10.069 17.481 9.98104C17.569 9.89314 17.6882 9.84375 17.8125 9.84375H18.75C18.8743 9.84375 18.9935 9.89314 19.0815 9.98104C19.1694 10.069 19.2188 10.1882 19.2188 10.3125H20.1562C20.1562 9.93954 20.0081 9.58185 19.7444 9.31813C19.4806 9.05441 19.123 8.90625 18.75 8.90625V8.4375H17.8125V8.90625C17.4395 8.90625 17.0819 9.05441 16.8181 9.31813C16.5544 9.58185 16.4062 9.93954 16.4062 10.3125C16.4062 10.6855 16.5544 11.0431 16.8181 11.3069C17.0819 11.5706 17.4395 11.7188 17.8125 11.7188H18.75C18.8743 11.7188 18.9935 11.7681 19.0815 11.856C19.1694 11.944 19.2188 12.0632 19.2188 12.1875C19.2188 12.3118 19.1694 12.431 19.0815 12.519C18.9935 12.6069 18.8743 12.6562 18.75 12.6562H17.8125C17.6882 12.6562 17.569 12.6069 17.481 12.519C17.3931 12.431 17.3438 12.3118 17.3438 12.1875H16.4062C16.4062 12.5605 16.5544 12.9181 16.8181 13.1819C17.0819 13.4456 17.4395 13.5938 17.8125 13.5938V14.0625H18.75V13.5938C19.123 13.5938 19.4806 13.4456 19.7444 13.1819C20.0081 12.9181 20.1562 12.5605 20.1562 12.1875C20.1562 11.8145 20.0081 11.4569 19.7444 11.1931C19.4806 10.9294 19.123 10.7812 18.75 10.7812Z" fill="#ED1C24"/>
<path d="M27.1875 8.90625H26.25V7.5H24.8438V6.5625H26.7188C26.8431 6.5625 26.9623 6.61189 27.0502 6.69979C27.1381 6.7877 27.1875 6.90693 27.1875 7.03125V8.90625Z" fill="#00B39D"/>
<path d="M10.3125 8.90625H9.375V7.03125C9.375 6.90693 9.42439 6.7877 9.51229 6.69979C9.6002 6.61189 9.71943 6.5625 9.84375 6.5625H11.7188V7.5H10.3125V8.90625Z" fill="#00B39D"/>
<path d="M26.7188 15.9375H24.8438V15H26.25V13.5938H27.1875V15.4688C27.1875 15.5931 27.1381 15.7123 27.0502 15.8002C26.9623 15.8881 26.8431 15.9375 26.7188 15.9375Z" fill="#00B39D"/>
<path d="M11.7188 15.9375H9.84375C9.71943 15.9375 9.6002 15.8881 9.51229 15.8002C9.42439 15.7123 9.375 15.5931 9.375 15.4688V13.5938H10.3125V15H11.7188V15.9375Z" fill="#00B39D"/>
<path d="M5.625 21.5625H6.5625V22.5H5.625V21.5625Z" fill="#CC7400"/>
<path d="M7.5 21.5625H8.4375V22.5H7.5V21.5625Z" fill="#CC7400"/>
<path d="M9.375 21.5625H10.3125V22.5H9.375V21.5625Z" fill="#CC7400"/>
<path d="M11.25 21.5625H12.1875V22.5H11.25V21.5625Z" fill="#CC7400"/>
<path d="M20.1614 18.75H20.1511C19.8951 18.75 19.6875 18.9576 19.6875 19.2136V21.0989C19.6875 21.3549 19.8951 21.5625 20.1511 21.5625H20.1614C20.4174 21.5625 20.625 21.3549 20.625 21.0989V19.2136C20.625 18.9576 20.4174 18.75 20.1614 18.75Z" fill="#FFA733"/>
<path d="M22.0364 17.3438H22.0261C21.7701 17.3438 21.5625 17.5513 21.5625 17.8073V19.2239C21.5625 19.4799 21.7701 19.6875 22.0261 19.6875H22.0364C22.2924 19.6875 22.5 19.4799 22.5 19.2239V17.8073C22.5 17.5513 22.2924 17.3438 22.0364 17.3438Z" fill="#FFA733"/>
<path d="M23.9114 17.8125H23.9011C23.6451 17.8125 23.4375 18.0201 23.4375 18.2761V19.6927C23.4375 19.9487 23.6451 20.1562 23.9011 20.1562H23.9114C24.1674 20.1562 24.375 19.9487 24.375 19.6927V18.2761C24.375 18.0201 24.1674 17.8125 23.9114 17.8125Z" fill="#FFA733"/>
<path d="M25.7864 18.2812H25.7761C25.5201 18.2812 25.3125 18.4888 25.3125 18.7448V20.1614C25.3125 20.4174 25.5201 20.625 25.7761 20.625H25.7864C26.0424 20.625 26.25 20.4174 26.25 20.1614V18.7448C26.25 18.4888 26.0424 18.2812 25.7864 18.2812Z" fill="#FFA733"/>
</svg>
