<svg width="35" height="35" viewBox="0 0 35 35" fill="none" xmlns="http://www.w3.org/2000/svg">
<path d="M22.1152 10.0459H23.8595C24.6723 10.0459 25.3312 10.7048 25.3312 11.5176V12.6204C25.3312 13.4332 24.6723 14.0921 23.8595 14.0921H22.1152V10.0459Z" fill="#FFA78F"/>
<path d="M12.8839 10.0459H11.1397C10.3269 10.0459 9.66797 10.7048 9.66797 11.5176V12.6204C9.66797 13.4332 10.3269 14.0921 11.1397 14.0921H12.8839V10.0459Z" fill="#FFA78F"/>
<path d="M26.1774 24.8469L22.5468 22.6877L20.5901 22.7019V16.8711H14.4134V22.0183L13.6842 22.4907L12.4734 22.6819L8.14245 24.8469C6.96735 25.2489 6.86133 25.6699 6.86133 26.9119L6.17773 31.7191V35.0005H28.8257V31.719L27.4585 26.9118C27.4586 25.6698 27.3525 25.2489 26.1774 24.8469Z" fill="#FFCEBF"/>
<path d="M9.551 24.1633L15.4983 22.129C15.6919 22.0628 15.8219 21.8809 15.8219 21.6763V16.8711H14.4133V22.0183L13.6842 22.4907L12.4734 22.6819L8.14245 24.8469C6.96735 25.2489 6.86133 25.6699 6.86133 26.9119L6.17773 31.7191V35.0005H7.58628V26.9119C7.58628 25.6698 8.37583 24.5653 9.551 24.1633Z" fill="#FFB09E"/>
<path d="M26.8591 24.163L22.5449 22.6873L18.436 23.4505L17.7807 23.8867C17.6208 23.9931 17.4128 23.9936 17.2524 23.888L16.5818 23.4467L12.4714 22.6816L8.1405 24.1631C6.9654 24.565 6.17578 25.6696 6.17578 26.9116V31.7188H10.5956L12.0042 29.312H23.0368L24.4039 31.7188H28.8238V26.9116C28.8239 25.6695 28.0342 24.5649 26.8591 24.163Z" fill="#9DC6FB"/>
<path d="M12.4715 22.6816L8.14062 24.1631L12.4715 22.6816Z" fill="#9DC6FB"/>
<path d="M9.55099 24.1631L12.7868 23.0562L12.4734 22.6816L8.14245 24.1631C6.96735 24.565 6.17773 25.6696 6.17773 26.9116V31.7188H7.58628V26.9116C7.58628 25.6696 8.37583 24.565 9.55099 24.1631Z" fill="#80B4FB"/>
<path d="M24.404 34.9997H10.5957V27.7393C10.5957 27.475 10.8099 27.2607 11.0742 27.2607H16.0707L17.4999 27.9443L18.929 27.2607H23.9255C24.1898 27.2607 24.404 27.475 24.404 27.7393V34.9997Z" fill="#EDBA94"/>
<path d="M10.5957 27.7393V34.9997H12.0042V27.2607H11.0742C10.8099 27.2607 10.5957 27.475 10.5957 27.7393Z" fill="#E5A87F"/>
<path d="M18.6279 30.9135L17.6206 30.3835C17.5618 30.3526 17.4917 30.3521 17.4324 30.382L16.368 30.9209C16.2316 30.99 16.0703 30.8908 16.0703 30.7379V27.2607H18.9285V30.732C18.9285 30.8863 18.7644 30.9854 18.6279 30.9135Z" fill="#FD6930"/>
<path d="M12.2012 8.73434V15.165C12.2012 17.8684 14.3927 20.0599 17.096 20.0599H17.9051C20.6085 20.0599 22.8 17.8684 22.8 15.165V8.73434C22.8 7.90644 22.1289 7.23535 21.301 7.23535H13.7002C12.8723 7.23535 12.2012 7.9065 12.2012 8.73434Z" fill="#FFCEBF"/>
<path d="M13.6097 15.165V8.73434C13.6097 7.90644 14.2809 7.23535 15.1087 7.23535H13.7002C12.8723 7.23535 12.2012 7.9065 12.2012 8.73434V15.165C12.2012 17.8683 14.3927 20.0598 17.096 20.0598H17.9051C18.0058 20.0598 18.1057 20.0568 18.2048 20.0508C15.6411 19.8959 13.6097 17.7677 13.6097 15.165Z" fill="#FFB09E"/>
<path d="M15.2196 13.2731C14.9279 13.2731 14.6914 13.0366 14.6914 12.7449V12.0517C14.6914 11.76 14.9279 11.5234 15.2196 11.5234C15.5113 11.5234 15.7478 11.7599 15.7478 12.0517V12.745C15.7478 13.0366 15.5113 13.2731 15.2196 13.2731Z" fill="#685E67"/>
<path d="M19.7704 13.2731C19.4787 13.2731 19.2422 13.0366 19.2422 12.7449V12.0517C19.2422 11.76 19.4786 11.5234 19.7704 11.5234C20.0622 11.5234 20.2986 11.7599 20.2986 12.0517V12.745C20.2986 13.0366 20.0622 13.2731 19.7704 13.2731Z" fill="#685E67"/>
<path d="M17.4993 17.4699C16.4777 17.4699 15.6465 16.6387 15.6465 15.6171C15.6465 15.3254 15.8829 15.0889 16.1747 15.0889C16.4664 15.0889 16.7029 15.3253 16.7029 15.6171C16.7029 16.0562 17.0602 16.4135 17.4993 16.4135C17.9384 16.4135 18.2957 16.0562 18.2957 15.6171C18.2957 15.3254 18.5321 15.0889 18.8239 15.0889C19.1157 15.0889 19.3521 15.3253 19.3521 15.6171C19.3521 16.6387 18.5209 17.4699 17.4993 17.4699Z" fill="#F89580"/>
<path d="M22.5445 22.6868L21.038 24.4867C20.8892 24.6645 20.6343 24.71 20.4331 24.5947L18.4355 23.4501L20.5878 22.0176L22.5445 22.6868Z" fill="#F1F6F7"/>
<path d="M12.4727 22.6811L13.9807 24.4828C14.1295 24.6606 14.3843 24.7061 14.5855 24.5908L16.5831 23.4462L14.4127 22.0176L12.4727 22.6811Z" fill="#F1F6F7"/>
<path d="M14.4127 22.0176L12.4727 22.6812L12.7862 23.0558L14.8944 22.3346L14.4127 22.0176Z" fill="#D2E4E7"/>
<path d="M17.5001 0C16.896 0 16.4062 0.489727 16.4062 1.09382V2.87123L18.5938 2.86979V1.09382C18.5939 0.489727 18.1042 0 17.5001 0Z" fill="#497090"/>
<path d="M24.0619 9.69792V7.47542C24.0619 4.55442 21.694 2.18652 18.773 2.18652H16.2596C13.3386 2.18652 10.9707 4.55442 10.9707 7.47542V9.67461C12.694 8.50806 15.0371 7.84716 17.4992 7.84716C19.9776 7.84709 22.3355 8.51681 24.0619 9.69792Z" fill="#9DC6FB"/>
<path d="M12.3792 7.47542C12.3792 4.55442 14.7471 2.18652 17.6681 2.18652H16.2596C13.3386 2.18652 10.9707 4.55442 10.9707 7.47542V9.67461C11.4037 9.38148 11.8758 9.12028 12.3792 8.89347V7.47542Z" fill="#80B4FB"/>
<path d="M19.9391 6.14439C19.9391 5.00102 19.5408 3.89332 18.8128 3.01162L18.1315 2.18652H16.8662L16.1849 3.01162C15.4569 3.89325 15.0586 5.00095 15.0586 6.14439V8.06844C15.8454 7.92297 16.6653 7.84723 17.4988 7.84723C18.3323 7.84723 19.1522 7.92297 19.939 8.06844V6.14439H19.9391Z" fill="#80B4FB"/>
<path d="M23.8382 11.2148C23.61 11.2148 23.3802 11.1412 23.1867 10.9894C21.799 9.90047 19.7264 9.27587 17.5004 9.27587C15.2743 9.27587 13.2018 9.90047 11.814 10.9894C11.3551 11.3496 10.691 11.2696 10.3309 10.8105C9.97066 10.3516 10.0508 9.68753 10.5097 9.32734C12.2625 7.95195 14.8104 7.16309 17.5004 7.16309C20.1903 7.16309 22.7383 7.95195 24.491 9.32734C24.95 9.68753 25.0301 10.3516 24.6699 10.8105C24.4616 11.0761 24.1514 11.2148 23.8382 11.2148Z" fill="#497090"/>
</svg>
