<svg width="30" height="30" viewBox="0 0 30 30" fill="none" xmlns="http://www.w3.org/2000/svg">
<g clip-path="url(#clip0)">
<path d="M28.2138 20.3342L29.9725 9.10481C30.1554 7.96528 29.38 6.89308 28.2404 6.70968L4.50931 2.90074C3.36978 2.71787 2.29764 3.49324 2.11476 4.63277L1.27148 9.88434V20.2689L28.2138 20.3342Z" fill="#146AA8"/>
<path d="M28.2421 6.70945L21.502 5.62793C16.9751 12.5546 9.65702 17.3521 4.04492 20.2755L28.2155 20.334L29.9741 9.10458C30.157 7.965 29.3816 6.89285 28.2421 6.70945Z" fill="#126099"/>
<path d="M2.08998 9.36133H26.1246C27.2788 9.36133 28.2146 10.2971 28.2146 11.4513V25.0361C28.2146 26.1903 27.2788 27.1261 26.1246 27.1261H2.08998C0.935799 27.126 0 26.1903 0 25.0361V11.4513C0 10.2971 0.935799 9.36133 2.08998 9.36133Z" fill="#4398D1"/>
<path d="M26.1244 9.36133H25.7064C20.7741 18.1178 11.5579 24.1244 5.93164 27.126H26.1244C27.2786 27.126 28.2144 26.1902 28.2144 25.0361V11.4513C28.2144 10.2971 27.2786 9.36133 26.1244 9.36133Z" fill="#3E8CC7"/>
<path d="M7.83819 11.9736H2.61328V16.1536H7.83819V11.9736Z" fill="#FDB62F"/>
<path d="M4.18078 13.542H2.61328V14.587H4.18078V13.542Z" fill="#FD7B2F"/>
<path d="M7.83898 13.542H6.27148V14.587H7.83898V13.542Z" fill="#FD7B2F"/>
<path d="M22.9894 24.514C24.4322 24.514 25.6019 23.3443 25.6019 21.9015C25.6019 20.4587 24.4322 19.2891 22.9894 19.2891C21.5466 19.2891 20.377 20.4587 20.377 21.9015C20.377 23.3443 21.5466 24.514 22.9894 24.514Z" fill="#FDB62F"/>
<path d="M19.8546 24.514C21.2975 24.514 22.4671 23.3443 22.4671 21.9015C22.4671 20.4587 21.2975 19.2891 19.8546 19.2891C18.4118 19.2891 17.2422 20.4587 17.2422 21.9015C17.2422 23.3443 18.4118 24.514 19.8546 24.514Z" fill="#DE4C3C"/>
<path d="M5.22478 19.8105H2.08984V20.8555H5.22478V19.8105Z" fill="#87CED9"/>
<path d="M10.4494 19.8105H7.31445V20.8555H10.4494V19.8105Z" fill="#87CED9"/>
<path d="M15.674 19.8105H12.5391V20.8555H15.674V19.8105Z" fill="#87CED9"/>
<path d="M15.6747 22.9463H2.08984V23.9912H15.6747V22.9463Z" fill="#87CED9"/>
<path d="M19.3321 11.9736H18.2871V14.0636H19.3321V11.9736Z" fill="#87CED9"/>
<path d="M21.4219 11.9736H20.377V14.0636H21.4219V11.9736Z" fill="#87CED9"/>
<path d="M23.5118 11.9736H22.4668V14.0636H23.5118V11.9736Z" fill="#87CED9"/>
<path d="M25.6016 11.9736H24.5566V14.0636H25.6016V11.9736Z" fill="#87CED9"/>
</g>
<defs>
<clipPath id="clip0">
<rect width="30" height="30" fill="white"/>
</clipPath>
</defs>
</svg>
