<svg width="30" height="30" viewBox="0 0 30 30" fill="none" xmlns="http://www.w3.org/2000/svg">
<g clip-path="url(#clip0)">
<path d="M25.1106 9.08821V25.0842C25.1106 26.0844 24.2999 26.8951 23.2997 26.8951L22.6582 19.226L23.2997 7.27734C24.2999 7.27734 25.1106 8.08801 25.1106 9.08821Z" fill="#F7F9FA"/>
<path d="M23.2993 7.27734V25.6878L23.0174 26.7656L21.1504 26.5232L21.3529 7.61404L22.3939 7.27734H23.2993Z" fill="#FFD064"/>
<path d="M25.1104 23.877V25.0842C25.1104 26.0844 24.2998 26.8951 23.2996 26.8951L22.9766 26.4163L23.2996 25.6878C24.2998 25.6878 25.1104 24.8772 25.1104 23.877Z" fill="#E9EDF1"/>
<path d="M22.3935 25.5067V7.27734H21.488L20.623 17.0862L21.488 26.8951H22.3935H23.2989V25.6878H22.5746C22.4745 25.6878 22.3935 25.6067 22.3935 25.5067Z" fill="#FFC250"/>
<path d="M18.929 29.8273L7.25721 29.7862C6.09041 29.7862 5.14453 28.8403 5.14453 27.6735L5.24346 4.30568C5.24346 3.56166 5.27425 2.64615 5.85548 2.26973C6.18572 2.05581 6.57952 1.93164 7.0023 1.93164H19.3765C20.5433 1.93164 21.4892 2.87752 21.4892 4.04432V27.8874C21.4892 28.3102 21.3651 28.704 21.1511 29.0342C20.7748 29.6155 19.673 29.8273 18.929 29.8273Z" fill="#6D7C84"/>
<path d="M8.32934 18.4014H7.48427L6.99945 18.5928C6.8993 18.5928 6.8186 18.6742 6.81836 18.7739L6.82989 19.8617C6.82989 19.9619 6.91077 20.0427 7.01097 20.0427L8.1861 20.0517C8.28624 20.0515 8.36689 19.9708 8.36719 19.8706L8.51043 19.4275V18.5825C8.51043 18.4829 8.42954 18.4014 8.32934 18.4014Z" fill="#F7F9FA"/>
<path d="M8.51009 19.4275V20.0311C8.51009 20.1312 8.42902 20.2122 8.329 20.2122H6.88031C6.78029 20.2122 6.69922 20.1312 6.69922 20.0311V18.5825C6.69922 18.4829 6.7801 18.4014 6.88031 18.4014H7.48393V19.3068C7.48393 19.3735 7.53795 19.4275 7.60465 19.4275H8.51009Z" fill="#E9EDF1"/>
<path d="M8.32934 22.0498H7.48427L6.99945 22.2412C6.8993 22.2413 6.8186 22.3226 6.81836 22.4223L6.82989 23.5101C6.82989 23.6103 6.91077 23.6912 7.01097 23.6912L8.1861 23.7002C8.28624 23.6999 8.36689 23.6192 8.36719 23.5191L8.51037 23.076V22.2309C8.51043 22.1313 8.42954 22.0498 8.32934 22.0498Z" fill="#F7F9FA"/>
<path d="M8.51009 23.076V23.6796C8.51009 23.7796 8.42902 23.8607 8.329 23.8607H6.88031C6.78029 23.8607 6.69922 23.7796 6.69922 23.6796V22.2309C6.69922 22.1313 6.7801 22.0498 6.88031 22.0498H7.48393V22.9552C7.48393 23.0219 7.53795 23.076 7.60465 23.076H8.51009Z" fill="#E9EDF1"/>
<path d="M8.32934 25.6982H7.48427L6.99945 25.8896C6.8993 25.8897 6.8186 25.9711 6.81836 26.0707L6.82989 27.1585C6.82989 27.2587 6.91077 27.3396 7.01097 27.3396L8.1861 27.3486C8.28624 27.3484 8.36689 27.2677 8.36719 27.1675L8.51037 26.7244V25.8793C8.51043 25.7798 8.42954 25.6982 8.32934 25.6982Z" fill="#F7F9FA"/>
<path d="M8.51009 26.7244V27.328C8.51009 27.428 8.42902 27.5091 8.329 27.5091H6.88031C6.78029 27.5091 6.69922 27.428 6.69922 27.328V25.8793C6.69922 25.7797 6.7801 25.6982 6.88031 25.6982H7.48393V26.6037C7.48393 26.6704 7.53795 26.7244 7.60465 26.7244H8.51009Z" fill="#E9EDF1"/>
<path d="M11.925 18.4014H11.08L10.5951 18.5928C10.495 18.5928 10.4143 18.6742 10.4141 18.7739L10.4256 19.8617C10.4256 19.9619 10.5065 20.0427 10.6067 20.0427L11.7818 20.0517C11.8819 20.0515 11.9626 19.9708 11.9629 19.8706L12.1061 19.4275V18.5825C12.1061 18.4829 12.0252 18.4014 11.925 18.4014Z" fill="#F7F9FA"/>
<path d="M12.1058 19.4275V20.0311C12.1058 20.1312 12.0247 20.2122 11.9247 20.2122H10.476C10.376 20.2122 10.2949 20.1312 10.2949 20.0311V18.5825C10.2949 18.4829 10.3758 18.4014 10.476 18.4014H11.0796V19.3068C11.0796 19.3735 11.1337 19.4275 11.2004 19.4275H12.1058Z" fill="#E9EDF1"/>
<path d="M11.925 22.0498H11.08L10.5951 22.2412C10.495 22.2413 10.4143 22.3226 10.4141 22.4223L10.4256 23.5101C10.4256 23.6103 10.5065 23.6912 10.6067 23.6912L11.7818 23.7002C11.8819 23.6999 11.9626 23.6192 11.9629 23.5191L12.1061 23.076V22.2309C12.1061 22.1313 12.0252 22.0498 11.925 22.0498Z" fill="#F7F9FA"/>
<path d="M12.1058 23.076V23.6796C12.1058 23.7796 12.0247 23.8607 11.9247 23.8607H10.476C10.376 23.8607 10.2949 23.7796 10.2949 23.6796V22.2309C10.2949 22.1313 10.3758 22.0498 10.476 22.0498H11.0796V22.9552C11.0796 23.0219 11.1337 23.076 11.2004 23.076H12.1058Z" fill="#E9EDF1"/>
<path d="M11.925 25.6982H11.08L10.5951 25.8896C10.495 25.8897 10.4143 25.9711 10.4141 26.0707L10.4256 27.1585C10.4256 27.2587 10.5065 27.3396 10.6067 27.3396L11.7818 27.3486C11.8819 27.3484 11.9626 27.2677 11.9629 27.1675L12.1061 26.7244V25.8793C12.1061 25.7798 12.0252 25.6982 11.925 25.6982Z" fill="#F7F9FA"/>
<path d="M12.1058 26.7244V27.328C12.1058 27.428 12.0247 27.5091 11.9247 27.5091H10.476C10.376 27.5091 10.2949 27.428 10.2949 27.328V25.8793C10.2949 25.7797 10.3758 25.6982 10.476 25.6982H11.0796V26.6037C11.0796 26.6704 11.1337 26.7244 11.2004 26.7244H12.1058Z" fill="#E9EDF1"/>
<path d="M15.5188 18.4014H14.6737L14.1889 18.5928C14.0888 18.5928 14.0081 18.6742 14.0078 18.7739L14.0193 19.8617C14.0193 19.9619 14.1002 20.0427 14.2004 20.0427L15.3756 20.0517C15.4757 20.0515 15.5564 19.9708 15.5567 19.8706L15.6998 19.4275V18.5825C15.6999 18.4829 15.619 18.4014 15.5188 18.4014Z" fill="#F7F9FA"/>
<path d="M15.6995 19.4275V20.0311C15.6995 20.1312 15.6185 20.2122 15.5185 20.2122H14.0698C13.9697 20.2122 13.8887 20.1312 13.8887 20.0311V18.5825C13.8887 18.4829 13.9696 18.4014 14.0698 18.4014H14.6734V19.3068C14.6734 19.3735 14.7274 19.4275 14.7941 19.4275H15.6995Z" fill="#E9EDF1"/>
<path d="M15.5188 22.0498H14.6737L14.1889 22.2412C14.0888 22.2413 14.0081 22.3226 14.0078 22.4223L14.0193 23.5101C14.0193 23.6103 14.1002 23.6912 14.2004 23.6912L15.3756 23.7002C15.4757 23.6999 15.5564 23.6192 15.5567 23.5191L15.6998 23.076V22.2309C15.6999 22.1313 15.619 22.0498 15.5188 22.0498Z" fill="#F7F9FA"/>
<path d="M15.6995 23.076V23.6796C15.6995 23.7796 15.6185 23.8607 15.5185 23.8607H14.0698C13.9697 23.8607 13.8887 23.7796 13.8887 23.6796V22.2309C13.8887 22.1313 13.9696 22.0498 14.0698 22.0498H14.6734V22.9552C14.6734 23.0219 14.7274 23.076 14.7941 23.076H15.6995Z" fill="#E9EDF1"/>
<path d="M15.5188 25.6982H14.6737L14.1889 25.8896C14.0888 25.8897 14.0081 25.9711 14.0078 26.0707L14.0193 27.1585C14.0193 27.2587 14.1002 27.3396 14.2004 27.3396L15.3756 27.3486C15.4757 27.3484 15.5564 27.2677 15.5567 27.1675L15.6998 26.7244V25.8793C15.6999 25.7798 15.619 25.6982 15.5188 25.6982Z" fill="#F7F9FA"/>
<path d="M15.6995 26.7244V27.328C15.6995 27.428 15.6185 27.5091 15.5185 27.5091H14.0698C13.9697 27.5091 13.8887 27.428 13.8887 27.328V25.8793C13.8887 25.7797 13.9696 25.6982 14.0698 25.6982H14.6734V26.6037C14.6734 26.6704 14.7274 26.7244 14.7941 26.7244H15.6995Z" fill="#E9EDF1"/>
<path d="M21.1502 29.0341C20.7742 29.6154 20.1199 29.9999 19.3756 29.9999H7.00135C5.83455 29.9999 4.88867 29.054 4.88867 27.8872V4.04418C4.88867 3.29991 5.27318 2.64559 5.85447 2.26953V27.8872C5.85447 28.5198 6.36875 29.0341 7.00135 29.0341H21.1502Z" fill="#585763"/>
<path d="M17.6854 7.30382H8.92578V1.0692C8.92578 0.569095 9.09679 0 9.59683 0H16.7799C17.28 0 17.6854 0.405392 17.6854 0.905433V7.30382Z" fill="#F7F9FA"/>
<path d="M9.77611 0C9.66384 0.151509 9.59683 0.338028 9.59683 0.541449V7.30382H8.69141V0.905433C8.69141 0.405634 9.09704 0 9.59683 0H9.77611Z" fill="#E9EDF1"/>
<path d="M15.7534 2.26383H10.6226C10.3726 2.26383 10.1699 2.0612 10.1699 1.81112C10.1699 1.56103 10.3726 1.3584 10.6226 1.3584H15.7534C16.0035 1.3584 16.2061 1.56103 16.2061 1.81112C16.2061 2.0612 16.0035 2.26383 15.7534 2.26383Z" fill="#E9EDF1"/>
<path d="M15.7534 4.07438H10.6226C10.3726 4.07438 10.1699 3.87174 10.1699 3.62166C10.1699 3.37158 10.3726 3.16895 10.6226 3.16895H15.7534C16.0035 3.16895 16.2061 3.37158 16.2061 3.62166C16.2061 3.87174 16.0035 4.07438 15.7534 4.07438Z" fill="#E9EDF1"/>
<path d="M15.7534 5.88492H10.6226C10.3726 5.88492 10.1699 5.68229 10.1699 5.43221C10.1699 5.18213 10.3726 4.97949 10.6226 4.97949H15.7534C16.0035 4.97949 16.2061 5.18213 16.2061 5.43221C16.2061 5.68229 16.0035 5.88492 15.7534 5.88492Z" fill="#E9EDF1"/>
<path d="M19.6767 7.75601H6.69881C6.44873 7.75601 6.24609 7.55338 6.24609 7.3033C6.24609 7.05322 6.44873 6.85059 6.69881 6.85059H19.6767C19.9267 6.85059 20.1294 7.05322 20.1294 7.3033C20.1294 7.55338 19.9267 7.75601 19.6767 7.75601Z" fill="#585763"/>
<path d="M18.8663 15.4632H7.50792C7.17454 15.4632 6.9043 15.193 6.9043 14.8596L6.90689 9.96126C6.90689 9.62788 6.9742 9.42186 7.30758 9.42186L7.90667 9.11426H19.0737C19.4071 9.11426 19.6773 9.3845 19.6773 9.71788V14.4865L19.4699 14.8596C19.4699 15.193 19.1996 15.4632 18.8663 15.4632Z" fill="#BED9FD"/>
<path d="M19.6771 14.4865V15.0901C19.6771 15.4235 19.4068 15.6937 19.0735 15.6937H7.30284C6.96946 15.6937 6.69922 15.4235 6.69922 15.0901V9.71788C6.69922 9.3845 6.96946 9.11426 7.30284 9.11426H7.90646V14.1847C7.90646 14.3513 8.04161 14.4865 8.20827 14.4865H19.6771Z" fill="#9EC8FC"/>
<path d="M19.4955 22.0225H18.409L17.9409 22.2293C17.841 22.229 17.7597 22.3109 17.7598 22.4103L17.7713 27.1672C17.7713 27.2674 17.8522 27.3483 17.9524 27.3483L19.3741 27.076C19.4741 27.0759 19.5547 26.9948 19.5552 26.895L19.6766 26.61V22.2036C19.6766 22.104 19.5957 22.0225 19.4955 22.0225Z" fill="#B3E59F"/>
<path d="M19.6771 26.61V27.274C19.6765 27.3736 19.5962 27.4551 19.496 27.4551H17.7455C17.6455 27.4551 17.5645 27.374 17.5645 27.274V22.2035C17.5645 22.1039 17.6459 22.0225 17.7455 22.0225H18.4095V26.3685C18.4095 26.5019 18.5176 26.61 18.651 26.61H19.6771Z" fill="#95D6A4"/>
<path d="M19.4967 18.4014H18.3498L17.7905 18.4515C17.6903 18.4514 17.6099 18.5333 17.6094 18.6326L17.6723 19.9824C17.6723 20.0826 17.7532 20.1635 17.8534 20.1635L19.4267 20.1288C19.5265 20.1284 19.6077 20.0483 19.6078 19.9477L19.6778 19.4275V18.5825C19.6777 18.4829 19.5969 18.4014 19.4967 18.4014Z" fill="#FFD064"/>
<path d="M19.6771 19.4275V20.0311C19.6771 20.132 19.5956 20.2116 19.496 20.2122H17.7455C17.6455 20.2122 17.5645 20.1312 17.5645 20.0311V18.5825C17.5651 18.4835 17.6453 18.4014 17.7455 18.4014H18.3492V19.2464C18.3492 19.3465 18.4302 19.4275 18.5302 19.4275H19.6771Z" fill="#FFC250"/>
</g>
<defs>
<clipPath id="clip0">
<rect width="30" height="30" fill="white"/>
</clipPath>
</defs>
</svg>
