<svg width="30" height="30" viewBox="0 0 30 30" fill="none" xmlns="http://www.w3.org/2000/svg">
<g clip-path="url(#clip0)">
<path d="M28.9662 28.9656H1.03516V3.36215C1.03516 3.2193 1.15094 3.10352 1.29379 3.10352H28.7076C28.8504 3.10352 28.9662 3.2193 28.9662 3.36215V28.9656Z" fill="#FFD782"/>
<path d="M28.9643 24.3115H1.0332V28.4494H28.9643V24.3115Z" fill="#FFAF5F"/>
<path d="M28.9646 12.3699C28.8586 12.3963 28.7496 12.4144 28.6354 12.4144C27.8823 12.4144 27.2718 11.8039 27.2718 11.0508C27.2718 11.8038 26.6612 12.4144 25.9081 12.4144C25.155 12.4144 24.5445 11.8039 24.5445 11.0508C24.5445 11.8038 23.934 12.4144 23.1808 12.4144C22.4277 12.4144 21.8172 11.8039 21.8172 11.0508C21.8172 11.8038 21.2066 12.4144 20.4535 12.4144C19.7004 12.4144 19.0899 11.8039 19.0899 11.0508C19.0899 11.8038 18.4793 12.4144 17.7262 12.4144C16.9731 12.4144 16.3626 11.8039 16.3626 11.0508C16.3626 11.8038 15.7521 12.4144 14.9989 12.4144C14.2457 12.4144 13.6353 11.8039 13.6353 11.0508C13.6353 11.8038 13.0247 12.4144 12.2716 12.4144C11.5185 12.4144 10.9079 11.8039 10.9079 11.0508C10.9079 11.8038 10.2975 12.4144 9.5443 12.4144C8.79119 12.4144 8.18064 11.8039 8.18064 11.0508C8.18064 11.8038 7.5701 12.4144 6.81699 12.4144C6.06389 12.4144 5.45334 11.8039 5.45334 11.0508C5.45334 11.8038 4.84279 12.4144 4.08969 12.4144C3.33658 12.4144 2.72603 11.8039 2.72603 11.0508C2.72603 11.8038 2.11555 12.4144 1.36238 12.4144C1.24824 12.4144 1.1392 12.3963 1.0332 12.3699V13.4157C1.14184 13.4307 1.24965 13.449 1.36238 13.449C1.86857 13.449 2.33861 13.2913 2.72603 13.0226C3.11357 13.2913 3.58355 13.4489 4.0898 13.4489C4.596 13.4489 5.06603 13.2913 5.45346 13.0225C5.84088 13.2913 6.31092 13.4489 6.81711 13.4489C7.3233 13.4489 7.79334 13.2913 8.18076 13.0225C8.56818 13.2913 9.03822 13.4489 9.54441 13.4489C10.0506 13.4489 10.5206 13.2913 10.9081 13.0225C11.2955 13.2913 11.7655 13.4489 12.2717 13.4489C12.7779 13.4489 13.2479 13.2913 13.6354 13.0225C14.0227 13.2913 14.4928 13.4489 14.999 13.4489C15.5052 13.4489 15.9752 13.2913 16.3626 13.0225C16.75 13.2913 17.2201 13.4489 17.7263 13.4489C18.2325 13.4489 18.7025 13.2913 19.0899 13.0225C19.4773 13.2913 19.9474 13.4489 20.4536 13.4489C20.9598 13.4489 21.4298 13.2913 21.8172 13.0225C22.2046 13.2913 22.6747 13.4489 23.1809 13.4489C23.6871 13.4489 24.1571 13.2913 24.5445 13.0225C24.932 13.2913 25.402 13.4489 25.9082 13.4489C26.4144 13.4489 26.8844 13.2913 27.2718 13.0225C27.6593 13.2913 28.1293 13.4489 28.6355 13.4489C28.7482 13.4489 28.856 13.4307 28.9647 13.4156V12.3699H28.9646Z" fill="#FFAF5F"/>
<path d="M18.1037 15.5176H3.62109V25.8623H18.1037V15.5176Z" fill="#B4E1FA"/>
<path d="M26.3787 15.5176H20.1719V25.8623H26.3787V15.5176Z" fill="#B4E1FA"/>
<path d="M26.3787 15.5176H20.1719V17.0693H26.3787V15.5176Z" fill="#A0D2F0"/>
<path d="M26.3798 20.3452L22.7591 15.5176H21.7246L26.3798 21.7245V20.3452Z" fill="#DAF0FD"/>
<path d="M20.6891 15.5176H20.1719V17.5865L26.3788 25.8624V23.1037L20.6891 15.5176Z" fill="#A0D2F0"/>
<path d="M23.9229 17.0693L22.7591 15.5176H21.7246L22.8884 17.0693H23.9229Z" fill="#B4E1FA"/>
<path d="M16.5509 25.8624H15.5164L7.75781 15.5176H8.79229L16.5509 25.8624Z" fill="#DAF0FD"/>
<path d="M14.4838 25.8624H12.4149L4.65625 15.5176H6.72525L14.4838 25.8624Z" fill="#A0D2F0"/>
<path d="M18.1037 15.5176H3.62109V17.0693H18.1037V15.5176Z" fill="#A0D2F0"/>
<path d="M9.95607 17.0693L8.79228 15.5176H7.75781L8.9216 17.0693H9.95607Z" fill="#B4E1FA"/>
<path d="M12.2738 12.4143C11.5207 12.4143 10.9102 11.8038 10.9102 11.0507V9.82812H13.6375V11.0507C13.6375 11.8038 13.0269 12.4143 12.2738 12.4143Z" fill="#D2555A"/>
<path d="M17.7269 12.4143C16.9738 12.4143 16.3633 11.8038 16.3633 11.0507V9.82812H19.0906V11.0507C19.0905 11.8038 18.48 12.4143 17.7269 12.4143Z" fill="#D2555A"/>
<path d="M6.81873 12.4143C6.06562 12.4143 5.45508 11.8038 5.45508 11.0507V9.82812H8.18238V11.0507C8.18232 11.8038 7.57184 12.4143 6.81873 12.4143Z" fill="#D2555A"/>
<path d="M1.36365 12.4143C0.610547 12.4143 0 11.8038 0 11.0507V9.82812H2.7273V11.0507C2.7273 11.8038 2.11676 12.4143 1.36365 12.4143Z" fill="#D2555A"/>
<path d="M23.182 12.4143C22.4289 12.4143 21.8184 11.8038 21.8184 11.0507V9.82812H24.5457V11.0507C24.5457 11.8038 23.9352 12.4143 23.182 12.4143Z" fill="#D2555A"/>
<path d="M9.54529 12.4143C8.79219 12.4143 8.18164 11.8038 8.18164 11.0507V9.82812H10.9089V11.0507C10.9089 11.8038 10.2985 12.4143 9.54529 12.4143Z" fill="#C7CFE2"/>
<path d="M20.4554 12.4143C19.7023 12.4143 19.0918 11.8038 19.0918 11.0507V9.82812H21.8191V11.0507C21.8191 11.8038 21.2086 12.4143 20.4554 12.4143Z" fill="#C7CFE2"/>
<path d="M28.6371 12.4143C27.884 12.4143 27.2734 11.8038 27.2734 11.0507V9.82812H30.0007V11.0507C30.0007 11.8038 29.3902 12.4143 28.6371 12.4143Z" fill="#D2555A"/>
<path d="M25.9086 12.4143C25.1555 12.4143 24.5449 11.8038 24.5449 11.0507V9.82812H27.2722V11.0507C27.2722 11.8038 26.6616 12.4143 25.9086 12.4143Z" fill="#C7CFE2"/>
<path d="M4.09022 12.4143C3.33711 12.4143 2.72656 11.8038 2.72656 11.0507V9.82812H5.45387V11.0507C5.45387 11.8038 4.84332 12.4143 4.09022 12.4143Z" fill="#C7CFE2"/>
<path d="M15.0004 12.4143C14.2473 12.4143 13.6367 11.8038 13.6367 11.0507V9.82812H16.364V11.0507C16.364 11.8038 15.7535 12.4143 15.0004 12.4143Z" fill="#C7CFE2"/>
<path d="M13.6374 9.8274H10.9102L11.1923 5.68945H13.7315L13.6374 9.8274Z" fill="#FF6464"/>
<path d="M19.0909 9.8274H16.3636L16.2695 5.68945H18.8088L19.0909 9.8274Z" fill="#FF6464"/>
<path d="M8.18232 9.8274H5.45508L6.11338 5.68945H8.65254L8.18232 9.8274Z" fill="#FF6464"/>
<path d="M2.7273 9.8274H0L1.03447 5.68945H3.57369L2.7273 9.8274Z" fill="#FF6464"/>
<path d="M24.5451 9.8274H21.8179L21.3477 5.68945H23.8868L24.5451 9.8274Z" fill="#FF6464"/>
<path d="M10.9089 9.8274H8.18164L8.65186 5.68945H11.1911L10.9089 9.8274Z" fill="#EFF2FA"/>
<path d="M21.818 9.8274H19.0907L18.8086 5.68945H21.3478L21.818 9.8274Z" fill="#EFF2FA"/>
<path d="M29.9995 9.8274H27.2722L26.4258 5.68945H28.965L29.9995 9.8274Z" fill="#FF6464"/>
<path d="M27.2723 9.8274H24.545L23.8867 5.68945H26.4259L27.2723 9.8274Z" fill="#EFF2FA"/>
<path d="M5.45381 9.8274H2.72656L3.57295 5.68945H6.11211L5.45381 9.8274Z" fill="#EFF2FA"/>
<path d="M16.364 9.8274H13.6367L13.7308 5.68945H16.2699L16.364 9.8274Z" fill="#EFF2FA"/>
<path d="M17.5863 16.0345V25.3448H4.13805V16.0345H17.5863ZM18.1036 15H3.62078C3.33514 15 3.10352 15.2316 3.10352 15.5173V25.8621C3.10352 26.1478 3.33514 26.3794 3.62078 26.3794H18.1035C18.3892 26.3794 18.6208 26.1478 18.6208 25.8621V15.5173C18.6208 15.2316 18.3892 15 18.1036 15Z" fill="#8F96AC"/>
<path d="M26.3785 15H20.1716C19.8859 15 19.6543 15.2316 19.6543 15.5173V28.4483H26.8957V15.5173C26.8957 15.2316 26.6641 15 26.3785 15ZM25.8612 25.3448H20.6888V16.0345H25.8612V25.3448Z" fill="#8F96AC"/>
<path d="M23.2756 5.68994H6.72393C6.15258 5.68994 5.68945 5.22682 5.68945 4.65547V1.55205C5.68945 0.980703 6.15258 0.517578 6.72393 0.517578H23.2757C23.847 0.517578 24.3101 0.980703 24.3101 1.55205V4.65553C24.3101 5.22682 23.847 5.68994 23.2756 5.68994Z" fill="#AFB9D2"/>
<path d="M23.0178 4.65518H6.98324C6.84039 4.65518 6.72461 4.53939 6.72461 4.39654V1.81039C6.72461 1.66754 6.84039 1.55176 6.98324 1.55176H23.0177C23.1606 1.55176 23.2763 1.66754 23.2763 1.81039V4.3966C23.2763 4.53939 23.1606 4.65518 23.0178 4.65518Z" fill="#FFD782"/>
<path d="M6.98324 4.65541H23.0177C23.1606 4.65541 23.2763 4.53963 23.2763 4.39677V3.3623C23.2763 3.50516 23.1606 3.62094 23.0177 3.62094H6.98324C6.84039 3.62094 6.72461 3.50516 6.72461 3.3623V4.39677C6.72467 4.53963 6.84045 4.65541 6.98324 4.65541Z" fill="#FFAF5F"/>
<path d="M29.7414 29.4828H0.258633C0.115781 29.4828 0 29.367 0 29.2241V28.7069C0 28.564 0.115781 28.4482 0.258633 28.4482H29.7414C29.8842 28.4482 30 28.564 30 28.7069V29.2241C30 29.367 29.8842 29.4828 29.7414 29.4828Z" fill="#8F96AC"/>
</g>
<defs>
<clipPath id="clip0">
<rect width="30" height="30" fill="white"/>
</clipPath>
</defs>
</svg>
