<svg width="30" height="30" viewBox="0 0 30 30" fill="none" xmlns="http://www.w3.org/2000/svg">
<g clip-path="url(#clip0)">
<path d="M26.1854 10.2705H2.67398C2.09355 10.2705 1.62305 10.741 1.62305 11.3214V14.1445H27.2364V11.3214C27.2363 10.7411 26.7658 10.2705 26.1854 10.2705Z" fill="#FFB125"/>
<path d="M17.6507 4.43387L15.5215 25.9885C15.468 26.5299 14.9857 26.9255 14.4442 26.872L3.65596 25.8063C3.11449 25.7528 2.71893 25.2705 2.77242 24.729L4.9016 3.17451C4.9551 2.63305 5.43739 2.23748 5.97885 2.29098L16.7671 3.35668C17.3085 3.41012 17.7041 3.8924 17.6507 4.43387Z" fill="#B6FA4C"/>
<path d="M16.7675 3.35668L5.9792 2.29098C5.43773 2.23748 4.95545 2.63305 4.90195 3.17451L4.71094 5.10834C4.87277 5.02613 5.05881 4.98682 5.25281 5.00598L16.0411 6.07168C16.5826 6.12518 16.9781 6.60746 16.9246 7.14893L14.9865 26.7697C15.2762 26.6226 15.4875 26.336 15.5218 25.9886L17.651 4.43399C17.7045 3.89246 17.3089 3.41018 16.7675 3.35668Z" fill="#A8E83A"/>
<path d="M6.04446 6.23055L4.4912 21.9552C4.46899 22.1802 4.57493 22.3996 4.76688 22.5193C5.2958 22.849 5.70538 23.3437 5.93043 23.9246C6.01135 24.1333 6.20459 24.2773 6.42737 24.2993L12.02 24.8518C12.2427 24.8738 12.4605 24.7704 12.5806 24.5815C12.9149 24.0559 13.4134 23.6509 13.9966 23.431C14.2083 23.3512 14.3551 23.1568 14.3773 22.9318L15.9306 7.20713C15.9528 6.98207 15.8468 6.7627 15.6549 6.64305C15.126 6.31328 14.7164 5.81857 14.4913 5.23773C14.4104 5.02902 14.2172 4.885 13.9944 4.86297L8.4018 4.31055C8.17903 4.28852 7.96129 4.39193 7.84118 4.58084C7.50684 5.10637 7.00838 5.51143 6.42514 5.73133C6.21356 5.81113 6.06672 6.00549 6.04446 6.23055Z" fill="#77DD00"/>
<path d="M15.654 6.64305C15.1251 6.31328 14.7155 5.81857 14.4904 5.23773C14.4095 5.02896 14.2163 4.885 13.9935 4.86297L8.4009 4.31055C8.17812 4.28852 7.96039 4.39193 7.84021 4.58084C7.50588 5.10637 7.00742 5.51143 6.42418 5.73133C6.21254 5.81113 6.0657 6.00549 6.0435 6.23055L5.98438 6.82914L13.2308 7.5226C13.4536 7.54463 13.6469 7.68859 13.7278 7.89736C13.9528 8.47814 14.3624 8.97291 14.8913 9.30268C15.0833 9.42232 15.1892 9.6417 15.167 9.86676L13.8198 23.5047C13.8776 23.4784 13.9361 23.4535 13.9957 23.431C14.2073 23.3512 14.3541 23.1569 14.3763 22.9318L15.9296 7.20719C15.9519 6.98207 15.8459 6.7627 15.654 6.64305Z" fill="#73CC00"/>
<path d="M26.7969 7.64495L14.5995 25.5435C14.2931 25.9931 13.6803 26.1092 13.2307 25.8028L4.27227 19.6979C3.82268 19.3915 3.70655 18.7786 4.01294 18.329L16.2104 0.430475C16.5168 -0.0191147 17.1297 -0.135248 17.5793 0.171139L26.5377 6.27608C26.9872 6.58247 27.1033 7.1953 26.7969 7.64495Z" fill="#B6FA4C"/>
<path d="M26.5381 6.2761L17.5797 0.171155C17.1301 -0.135232 16.5172 -0.0191577 16.2108 0.430491L15.1675 1.96149C15.258 1.98979 15.346 2.03151 15.4285 2.0877L24.3869 8.19264C24.8365 8.49903 24.9527 9.11192 24.6463 9.56151L13.4922 25.9291C13.8953 26.0552 14.3498 25.9107 14.6 25.5435L26.7974 7.64496C27.1038 7.19532 26.9877 6.58248 26.5381 6.2761Z" fill="#A8E83A"/>
<path d="M15.7506 3.66094L6.8523 16.7184C6.72491 16.9053 6.71284 17.1486 6.82394 17.3456C7.13021 17.8884 7.25261 18.5189 7.17181 19.1366C7.14281 19.3586 7.24341 19.5776 7.42839 19.7036L12.0724 22.8684C12.2574 22.9945 12.498 23.008 12.694 22.8998C13.2394 22.5987 13.8709 22.4821 14.4882 22.5685C14.7122 22.5998 14.9342 22.4997 15.0616 22.3127L23.9599 9.25536C24.0873 9.06844 24.0994 8.82516 23.9882 8.62817C23.6819 8.0853 23.5595 7.45483 23.6403 6.83719C23.6693 6.61524 23.5687 6.39621 23.3838 6.27018L18.7397 3.10536C18.5548 2.97926 18.3141 2.96573 18.1181 3.07395C17.5728 3.375 16.9413 3.49166 16.324 3.40524C16.1 3.37377 15.878 3.47403 15.7506 3.66094Z" fill="#77DD00"/>
<path d="M23.9883 8.62815C23.682 8.08528 23.5597 7.45481 23.6404 6.83717C23.6694 6.61522 23.5688 6.3962 23.3838 6.2701L18.7398 3.10534C18.5548 2.9793 18.3142 2.96571 18.1182 3.07393C17.5729 3.37498 16.9413 3.49164 16.324 3.40516C16.1 3.37381 15.878 3.47401 15.7506 3.66092L15.3798 4.20508L21.1838 8.11739C21.3687 8.24348 21.4694 8.46245 21.4403 8.6844C21.3596 9.30203 21.482 9.9325 21.7882 10.4754C21.8993 10.6724 21.8872 10.9157 21.7599 11.1026L13.9629 22.5441C14.1377 22.5364 14.3135 22.544 14.4883 22.5685C14.7123 22.5999 14.9343 22.4997 15.0617 22.3128L23.96 9.25534C24.0874 9.06842 24.0994 8.82514 23.9883 8.62815Z" fill="#73CC00"/>
<path d="M16.7689 14.9646C18.529 14.9646 19.9558 13.5378 19.9558 11.7777C19.9558 10.0177 18.529 8.59082 16.7689 8.59082C15.0089 8.59082 13.582 10.0177 13.582 11.7777C13.582 13.5378 15.0089 14.9646 16.7689 14.9646Z" fill="#B6FA4C"/>
<path d="M26.5497 29.9997H1.99812C1.16105 29.9997 0.482422 29.3212 0.482422 28.484V13.4845C0.482422 12.6474 1.161 11.9688 1.99812 11.9688H26.5497C27.3867 11.9688 28.0654 12.6473 28.0654 13.4845V28.484C28.0654 29.3212 27.3868 29.9997 26.5497 29.9997Z" fill="#FFB125"/>
<path d="M26.5504 11.9688H23.793C24.63 11.9688 25.3087 12.6474 25.3087 13.4845V28.484C25.3087 29.3211 24.63 29.9997 23.793 29.9997H26.5504C27.3875 29.9997 28.0661 29.3212 28.0661 28.484V13.4845C28.0661 12.6474 27.3875 11.9688 26.5504 11.9688Z" fill="#FF901D"/>
<path d="M28.9681 18.0869H23.4422C21.8421 18.0869 20.5449 19.3841 20.5449 20.9842C20.5449 22.5843 21.8421 23.8815 23.4422 23.8815H28.9681C29.2713 23.8815 29.5172 23.6356 29.5172 23.3323V18.6361C29.5172 18.3328 29.2713 18.0869 28.9681 18.0869Z" fill="#FF6D3A"/>
<path d="M28.9681 18.0869H26.2009C26.5042 18.0869 26.7501 18.3328 26.7501 18.6361V22.5918C26.7501 22.9152 26.4879 23.1774 26.1644 23.1774H23.4422C21.9613 23.1774 20.7407 22.0661 20.567 20.6321C20.5529 20.7476 20.5449 20.8649 20.5449 20.9841C20.5449 22.5843 21.8421 23.8814 23.4422 23.8814H26.2009H28.9681C29.2713 23.8814 29.5172 23.6356 29.5172 23.3323V22.6283V18.6361C29.5173 18.3328 29.2714 18.0869 28.9681 18.0869Z" fill="#ED5729"/>
<path d="M26.5497 11.9688H1.99812C1.16105 11.9688 0.482422 12.6474 0.482422 13.4845V15.1455H28.0654V13.4845C28.0654 12.6474 27.3868 11.9688 26.5497 11.9688Z" fill="#FF6D3A"/>
<path d="M27.8071 12.6371C27.7526 12.5564 27.6906 12.4813 27.622 12.4128C27.6212 12.412 27.6204 12.4113 27.6196 12.4104C27.5516 12.3428 27.4774 12.2815 27.3977 12.2277C27.3775 12.2141 27.357 12.2009 27.3361 12.1882C27.3051 12.1694 27.2732 12.152 27.2408 12.1354C27.2198 12.1246 27.1986 12.1144 27.177 12.1045C26.9859 12.0176 26.7738 11.9688 26.5502 11.9688H23.793C24.63 11.9688 25.3085 12.6474 25.3085 13.4845V15.1454H28.0659V13.4845C28.0659 13.2228 27.9997 12.9767 27.883 12.762C27.8597 12.7191 27.8344 12.6774 27.8071 12.6371Z" fill="#ED5729"/>
<path d="M1.99812 30H26.5497C27.3867 30 28.0654 29.3213 28.0654 28.4843V26.8232H0.482422V28.4843C0.482422 29.3213 1.161 30 1.99812 30Z" fill="#FF6D3A"/>
<path d="M25.308 26.8232V28.4843C25.308 28.4851 25.308 28.486 25.308 28.4868C25.3077 28.6268 25.1905 28.7386 25.0505 28.7386H1.99813C1.16105 28.7386 0.482422 28.0599 0.482422 27.2229V28.4842C0.482422 29.3214 1.161 30 1.99813 30H23.7923H26.5497C26.5797 30 26.6093 29.9988 26.6388 29.9971C26.648 29.9966 26.6571 29.9957 26.6663 29.995C26.6868 29.9935 26.7073 29.9916 26.7276 29.9892C26.7377 29.988 26.7478 29.9867 26.7579 29.9854C26.7781 29.9826 26.7981 29.9793 26.818 29.9758C26.8269 29.9742 26.8358 29.9728 26.8446 29.9711C26.8728 29.9655 26.9008 29.9594 26.9284 29.9523C26.9284 29.9523 26.9284 29.9523 26.9285 29.9523C26.9406 29.9492 26.9524 29.9455 26.9645 29.9421C27.0244 29.925 27.083 29.9049 27.1397 29.8809C27.1624 29.8713 27.1848 29.8612 27.2069 29.8505C27.2289 29.8399 27.2507 29.8287 27.2722 29.8171L27.2722 29.817C27.3151 29.7937 27.3568 29.7684 27.3971 29.7412L27.3972 29.7412L27.3972 29.7411C27.4316 29.7179 27.4646 29.6931 27.4968 29.6673C27.4983 29.666 27.4999 29.6649 27.5014 29.6636C27.534 29.6373 27.5654 29.6095 27.5957 29.5805C27.6314 29.5464 27.6655 29.5107 27.6977 29.4733V29.4733C27.7481 29.4148 27.7942 29.3525 27.8353 29.2868C27.8364 29.285 27.8376 29.2832 27.8387 29.2815C27.8538 29.2571 27.8685 29.2323 27.8823 29.207C27.8823 29.207 27.8823 29.2069 27.8824 29.2068V29.2067C27.919 29.1393 27.9505 29.0686 27.9767 28.9954C27.9797 28.9871 27.9824 28.9786 27.9853 28.9702C27.9916 28.9515 27.9976 28.9327 28.0033 28.9137C28.0061 28.904 28.0088 28.8944 28.0115 28.8846C28.0167 28.8655 28.0215 28.8462 28.026 28.8268C28.028 28.8179 28.0303 28.8091 28.0322 28.8002C28.0381 28.7722 28.0435 28.7441 28.0478 28.7156C28.0478 28.7154 28.0479 28.7153 28.0479 28.7151C28.0479 28.7151 28.0479 28.7149 28.0479 28.7149C28.053 28.6816 28.0565 28.6478 28.0594 28.6138C28.0601 28.6052 28.0607 28.5966 28.0614 28.588C28.0637 28.5537 28.0653 28.5192 28.0653 28.4843V27.2229V26.8233L25.308 26.8232Z" fill="#ED5729"/>
<path d="M23.5445 22.3302C24.2874 22.3302 24.8897 21.7279 24.8897 20.9849C24.8897 20.2419 24.2874 19.6396 23.5445 19.6396C22.8015 19.6396 22.1992 20.2419 22.1992 20.9849C22.1992 21.7279 22.8015 22.3302 23.5445 22.3302Z" fill="#F2F2F2"/>
</g>
<defs>
<clipPath id="clip0">
<rect width="30" height="30" fill="white"/>
</clipPath>
</defs>
</svg>
