<svg width="65" height="65" viewBox="0 0 65 65" fill="none" xmlns="http://www.w3.org/2000/svg">
<g clip-path="url(#clip0)">
<path d="M40.3711 26.8945C38.2365 26.8945 36.1632 27.3085 34.2092 28.1247C33.5622 28.395 33.2569 29.1386 33.5271 29.7855C33.7973 30.4326 34.5409 30.7375 35.1879 30.4676C36.8304 29.7814 38.5742 29.4336 40.3711 29.4336C47.7914 29.4336 53.8281 35.4705 53.8281 42.8906C53.8281 50.3108 47.7914 56.3477 40.3711 56.3477C32.9508 56.3477 26.9141 50.3108 26.9141 42.8906C26.9141 41.0965 27.2609 39.355 27.9451 37.7147C28.215 37.0675 27.9091 36.3242 27.262 36.0543C26.6153 35.7848 25.8715 36.0903 25.6016 36.7373C24.7877 38.689 24.375 40.7592 24.375 42.8906C24.375 51.7109 31.5508 58.8867 40.3711 58.8867C49.1914 58.8867 56.3672 51.7109 56.3672 42.8906C56.3672 34.0703 49.1914 26.8945 40.3711 26.8945Z" fill="url(#paint0_linear)"/>
<path d="M40.3711 53.3008C46.1113 53.3008 50.7813 48.6308 50.7813 42.8906C50.7813 37.1504 46.1113 32.4805 40.3711 32.4805C34.6309 32.4805 29.9609 37.1504 29.9609 42.8906C29.9609 48.6308 34.631 53.3008 40.3711 53.3008ZM40.3711 35.0195C44.7112 35.0195 48.2422 38.5506 48.2422 42.8906C48.2422 47.2306 44.7112 50.7617 40.3711 50.7617C36.031 50.7617 32.5 47.2308 32.5 42.8906C32.5 38.5505 36.031 35.0195 40.3711 35.0195Z" fill="url(#paint1_linear)"/>
<path d="M58.5614 20.8008H54.6995L50.267 13.2995C50.0386 12.9129 49.6229 12.6758 49.174 12.6758H31.5698C31.1208 12.6758 30.7053 12.9129 30.4769 13.2995L26.0443 20.8008H18.7891V19.2773C18.7891 16.7572 16.7389 14.707 14.2188 14.707C11.6986 14.707 9.64844 16.7572 9.64844 19.2773V20.8008H6.43855C2.88831 20.8008 0 23.6891 0 27.2395V58.5418C0 62.0922 2.88831 64.9805 6.43855 64.9805H58.5613C62.1116 64.9805 64.9999 62.0922 64.9999 58.5418V27.2395C65 23.6891 62.1116 20.8008 58.5614 20.8008ZM32.2942 15.2148H48.4495L51.7503 20.8008H28.9934L32.2942 15.2148ZM12.1875 19.2773C12.1875 18.1574 13.0988 17.2461 14.2188 17.2461C15.3387 17.2461 16.25 18.1574 16.25 19.2773V20.8008H12.1875V19.2773ZM62.4609 58.5418C62.4609 60.6921 60.7117 62.4414 58.5614 62.4414H6.43855C4.28835 62.4414 2.53906 60.692 2.53906 58.5418V27.2395C2.53906 25.0891 4.28835 23.3398 6.43855 23.3398H58.5613C60.7115 23.3398 62.4608 25.0891 62.4608 27.2395V58.5418H62.4609Z" fill="url(#paint2_linear)"/>
<path d="M40.3711 40.415C41.7362 40.415 42.8467 41.5256 42.8467 42.8906C42.8467 43.5918 43.415 44.1602 44.1162 44.1602C44.8174 44.1602 45.3857 43.5918 45.3857 42.8906C45.3857 40.1256 43.1361 37.876 40.3711 37.876C39.6699 37.876 39.1016 38.4445 39.1016 39.1455C39.1016 39.8465 39.6699 40.415 40.3711 40.415Z" fill="url(#paint3_linear)"/>
<path d="M40.3711 9.33544C41.0723 9.33544 41.6406 8.76694 41.6406 8.06591V1.29004C41.6406 0.589004 41.0723 0.0205078 40.3711 0.0205078C39.6699 0.0205078 39.1016 0.588877 39.1016 1.29004V8.06591C39.1016 8.76707 39.6699 9.33544 40.3711 9.33544Z" fill="url(#paint4_linear)"/>
<path d="M46.4121 9.33577C46.737 9.33577 47.062 9.21174 47.3098 8.96393L51.9678 4.30589C52.4636 3.81014 52.4636 3.00627 51.9677 2.51039C51.4719 2.01477 50.6681 2.01477 50.1723 2.51039L45.5144 7.16856C45.0186 7.66431 45.0186 8.46817 45.5144 8.96405C45.7623 9.21187 46.0872 9.33577 46.4121 9.33577Z" fill="url(#paint5_linear)"/>
<path d="M33.4341 8.96388C33.682 9.21169 34.0069 9.33572 34.3318 9.33572C34.6566 9.33572 34.9817 9.21169 35.2295 8.96388C35.7252 8.46813 35.7253 7.66426 35.2296 7.16838L30.5715 2.51034C30.0758 2.01484 29.2719 2.01472 28.7762 2.51034C28.2804 3.0061 28.2803 3.80996 28.776 4.30584L33.4341 8.96388Z" fill="url(#paint6_linear)"/>
<path d="M17.5195 31.2109H10.918C10.2168 31.2109 9.64844 31.7794 9.64844 32.4805C9.64844 33.1816 10.2168 33.75 10.918 33.75H17.5195C18.2207 33.75 18.7891 33.1816 18.7891 32.4805C18.7891 31.7793 18.2207 31.2109 17.5195 31.2109Z" fill="url(#paint7_linear)"/>
<path d="M29.9551 33.75C30.289 33.75 30.6165 33.6142 30.8526 33.378C31.0888 33.1419 31.2246 32.8155 31.2246 32.4805C31.2246 32.1466 31.0888 31.819 30.8526 31.5829C30.6165 31.3469 30.289 31.2109 29.9551 31.2109C29.6212 31.2109 29.2937 31.3468 29.0575 31.5829C28.8201 31.819 28.6855 32.1467 28.6855 32.4805C28.6855 32.8144 28.8201 33.1419 29.0575 33.378C29.2937 33.6142 29.6199 33.75 29.9551 33.75Z" fill="url(#paint8_linear)"/>
</g>
<defs>
<linearGradient id="paint0_linear" x1="40.3711" y1="26.8945" x2="40.3711" y2="58.8867" gradientUnits="userSpaceOnUse">
<stop stop-color="#FFDD4E"/>
<stop offset="1" stop-color="#FFDA3F"/>
</linearGradient>
<linearGradient id="paint1_linear" x1="40.3711" y1="32.4805" x2="40.3711" y2="53.3008" gradientUnits="userSpaceOnUse">
<stop stop-color="#FFDD4E"/>
<stop offset="1" stop-color="#FFDA3F"/>
</linearGradient>
<linearGradient id="paint2_linear" x1="32.4999" y1="12.6758" x2="32.4999" y2="64.9805" gradientUnits="userSpaceOnUse">
<stop stop-color="#FFDD4E"/>
<stop offset="1" stop-color="#FFDA3F"/>
</linearGradient>
<linearGradient id="paint3_linear" x1="42.2437" y1="37.876" x2="42.2437" y2="44.1602" gradientUnits="userSpaceOnUse">
<stop stop-color="#FFDD4E"/>
<stop offset="1" stop-color="#FFDA3F"/>
</linearGradient>
<linearGradient id="paint4_linear" x1="40.3711" y1="0.0205078" x2="40.3711" y2="9.33544" gradientUnits="userSpaceOnUse">
<stop stop-color="#FFDD4E"/>
<stop offset="1" stop-color="#FFDA3F"/>
</linearGradient>
<linearGradient id="paint5_linear" x1="48.7411" y1="2.13867" x2="48.7411" y2="9.33577" gradientUnits="userSpaceOnUse">
<stop stop-color="#FFDD4E"/>
<stop offset="1" stop-color="#FFDA3F"/>
</linearGradient>
<linearGradient id="paint6_linear" x1="32.0028" y1="2.13867" x2="32.0028" y2="9.33572" gradientUnits="userSpaceOnUse">
<stop stop-color="#FFDD4E"/>
<stop offset="1" stop-color="#FFDA3F"/>
</linearGradient>
<linearGradient id="paint7_linear" x1="14.2188" y1="31.2109" x2="14.2188" y2="33.75" gradientUnits="userSpaceOnUse">
<stop stop-color="#FFDD4E"/>
<stop offset="1" stop-color="#FFDA3F"/>
</linearGradient>
<linearGradient id="paint8_linear" x1="29.9551" y1="31.2109" x2="29.9551" y2="33.75" gradientUnits="userSpaceOnUse">
<stop stop-color="#FFDD4E"/>
<stop offset="1" stop-color="#FFDA3F"/>
</linearGradient>
<clipPath id="clip0">
<rect width="65" height="65" fill="white"/>
</clipPath>
</defs>
</svg>
