<svg width="80" height="80" viewBox="0 0 80 80" fill="none" xmlns="http://www.w3.org/2000/svg">
<path d="M61.19 34.0216V21.3526C61.2239 15.6201 58.9343 10.1081 54.847 6.08862C50.8953 2.15391 45.7225 0 40.2445 0C40.1597 0 40.0579 0 39.9731 0C28.2877 0.0169599 18.7902 9.58236 18.7902 21.3526V34.0216C14.3806 34.5474 11.1582 38.2446 11.1582 42.7221V71.1808C11.1582 76.0144 15.0251 80 19.8586 80H60.1385C64.9721 80 68.8389 76.0144 68.8389 71.1808V42.7221C68.822 38.2616 65.5996 34.5474 61.19 34.0216ZM22.1652 21.3526H22.1822C22.1822 11.448 30.1703 3.34111 39.9901 3.34111H40.007C44.671 3.32415 49.1484 5.17278 52.4556 8.46301C55.8985 11.872 57.815 16.519 57.7811 21.3526V34.0386H54.0499V21.3526C54.0838 17.5027 52.5574 13.8054 49.8268 11.0918C47.2489 8.51389 43.7552 7.05533 40.1088 7.05533H40.007C32.2055 7.05533 25.8964 13.4662 25.8964 21.3356V34.0386H22.1652V21.3526ZM50.6748 21.3526V34.0386H29.3053V21.3526C29.3053 15.3487 34.088 10.4643 40.024 10.4643H40.1258C42.8733 10.4643 45.519 11.5667 47.4694 13.5171C49.5385 15.5862 50.7088 18.4185 50.6748 21.3526ZM65.5996 71.2317C65.5996 74.1997 63.1913 76.608 60.2233 76.608H19.9265C16.9585 76.608 14.5502 74.1997 14.5502 71.2317V42.8069C14.5502 39.8389 16.9585 37.4306 19.9265 37.4306H60.2233C63.1913 37.4306 65.5996 39.8389 65.5996 42.8069V71.2317Z" fill="url(#paint0_linear)"/>
<path d="M45.8598 55.9676C45.1136 53.3388 42.7222 51.541 39.9917 51.541C36.6166 51.541 33.8691 54.2716 33.8691 57.6636C33.8691 60.3941 35.6669 62.7855 38.2957 63.5317V68.2805C38.2957 69.2133 39.0589 69.9765 39.9917 69.9765C40.9245 69.9765 41.6877 69.2133 41.6877 68.2805V63.5317C44.927 62.5989 46.8096 59.2069 45.8598 55.9676ZM39.9917 60.3771C38.4822 60.3771 37.2611 59.156 37.2611 57.6466C37.2611 56.1372 38.4822 54.916 39.9917 54.916C41.5011 54.916 42.7222 56.1372 42.7222 57.6466C42.7222 59.156 41.5011 60.3771 39.9917 60.3771Z" fill="url(#paint1_linear)"/>
<defs>
<linearGradient id="paint0_linear" x1="39.9986" y1="0" x2="39.9986" y2="80" gradientUnits="userSpaceOnUse">
<stop stop-color="#FFDD4E"/>
<stop offset="1" stop-color="#FFDA3F"/>
</linearGradient>
<linearGradient id="paint1_linear" x1="39.9876" y1="51.541" x2="39.9876" y2="69.9765" gradientUnits="userSpaceOnUse">
<stop stop-color="#FFDD4E"/>
<stop offset="1" stop-color="#FFDA3F"/>
</linearGradient>
</defs>
</svg>
