<svg width="65" height="65" viewBox="0 0 65 65" fill="none" xmlns="http://www.w3.org/2000/svg">
<g clip-path="url(#clip0)">
<path d="M48.9105 15.4781L22.1781 31.9426C20.6653 32.8765 19.9494 34.721 20.4368 36.427L23.3272 46.5832C23.5742 47.4492 24.3448 48.0248 25.2314 48.0248C25.2808 48.0248 25.3307 48.023 25.3807 48.0193C26.3285 47.9505 27.0786 47.2445 27.2046 46.3036L27.9562 40.7346C28.0575 39.9853 28.4186 39.2884 28.972 38.7732L51.032 18.2672C51.6986 17.6491 51.7867 16.6369 51.2374 15.9129C50.6872 15.1882 49.6874 15.0008 48.9105 15.4781ZM27.2081 36.8772C26.2168 37.7999 25.571 39.0467 25.3897 40.388L25.0252 43.0894L22.9271 35.7169C22.7566 35.1197 23.0077 34.4739 23.5371 34.1472L43.1206 22.0857L27.2081 36.8772Z" fill="url(#paint0_linear)"/>
<path d="M63.9425 4.74545C63.1073 4.03756 61.9548 3.84269 60.934 4.23701L1.91449 27.005C0.745631 27.4558 -0.00593153 28.5564 3.52696e-05 29.8088C0.00612902 31.0623 0.768736 32.1568 1.94445 32.5973L15.7303 37.7426L21.1079 55.0368C21.4032 55.9875 22.1485 56.7263 23.1014 57.0129C24.0538 57.2993 25.0824 57.0946 25.8512 56.4658L33.8671 49.9311C34.252 49.6173 34.8017 49.6018 35.2036 49.8937L49.6614 60.3903C50.1816 60.7683 50.7954 60.963 51.4163 60.963C51.78 60.963 52.1462 60.8962 52.4976 60.7603C53.4479 60.3928 54.1391 59.5782 54.346 58.5814L64.9376 7.63402C65.16 6.56126 64.7788 5.45449 63.9425 4.74545ZM62.4021 7.1078L51.8106 58.0551C51.7723 58.2392 51.6397 58.3157 51.5641 58.3451C51.4879 58.3745 51.3375 58.4071 51.1836 58.2952L36.7253 47.798C36.079 47.3288 35.319 47.0959 34.5605 47.0959C33.733 47.0959 32.9067 47.3733 32.2313 47.9235L24.2137 54.4597C24.071 54.5765 23.9228 54.5556 23.8474 54.5329C23.7715 54.5101 23.636 54.4453 23.5809 54.2681L18.0147 36.3669C17.8957 35.9844 17.6063 35.6785 17.231 35.5383L2.85166 30.1716C2.63634 30.091 2.59051 29.9231 2.58988 29.7962C2.58924 29.6705 2.63342 29.5033 2.84671 29.4211L61.8663 6.65318C61.8666 6.65305 61.867 6.65292 61.8673 6.6528C62.059 6.57878 62.2008 6.66384 62.2684 6.72097C62.3362 6.77874 62.4441 6.90569 62.4021 7.1078Z" fill="url(#paint1_linear)"/>
<path d="M54.2705 32.0102C53.5715 31.8584 52.8821 32.3021 52.7304 33.001L52.5336 33.9074C52.3819 34.6063 52.8255 35.2958 53.5244 35.4475C53.6169 35.4676 53.7092 35.4772 53.8004 35.4772C54.3964 35.4772 54.9328 35.0631 55.0646 34.4569L55.2614 33.5504C55.413 32.8516 54.9692 32.1621 54.2705 32.0102Z" fill="url(#paint2_linear)"/>
<path d="M52.9759 37.9741C52.2761 37.8224 51.5872 38.2659 51.4357 38.9648L48.4575 52.6822C48.3058 53.3811 48.7493 54.0706 49.4481 54.2223C49.5408 54.2424 49.6331 54.252 49.7241 54.252C50.3203 54.252 50.8565 53.8379 50.9883 53.2317L53.9665 39.5141C54.1182 38.8153 53.6746 38.1258 52.9759 37.9741Z" fill="url(#paint3_linear)"/>
</g>
<defs>
<linearGradient id="paint0_linear" x1="35.9412" y1="15.2148" x2="35.9412" y2="48.0248" gradientUnits="userSpaceOnUse">
<stop stop-color="#FFDD4E"/>
<stop offset="1" stop-color="#FFDA3F"/>
</linearGradient>
<linearGradient id="paint1_linear" x1="32.5" y1="4.03613" x2="32.5" y2="60.963" gradientUnits="userSpaceOnUse">
<stop stop-color="#FFDD4E"/>
<stop offset="1" stop-color="#FFDA3F"/>
</linearGradient>
<linearGradient id="paint2_linear" x1="53.8975" y1="31.9805" x2="53.8975" y2="35.4772" gradientUnits="userSpaceOnUse">
<stop stop-color="#FFDD4E"/>
<stop offset="1" stop-color="#FFDA3F"/>
</linearGradient>
<linearGradient id="paint3_linear" x1="51.212" y1="37.9443" x2="51.212" y2="54.252" gradientUnits="userSpaceOnUse">
<stop stop-color="#FFDD4E"/>
<stop offset="1" stop-color="#FFDA3F"/>
</linearGradient>
<clipPath id="clip0">
<rect width="65" height="65" fill="white"/>
</clipPath>
</defs>
</svg>
