<svg width="65" height="65" viewBox="0 0 65 65" fill="none" xmlns="http://www.w3.org/2000/svg">
<path d="M55.4811 9.51895C49.3425 3.38051 41.1811 0 32.5 0C23.8189 0 15.6575 3.38051 9.51895 9.51895C3.38038 15.6574 0 23.8189 0 32.5C0 41.1811 3.38051 49.3425 9.51895 55.4811C15.6574 61.6196 23.8189 65 32.5 65C41.1811 65 49.3425 61.6195 55.4811 55.4811C61.6196 49.3426 65 41.1811 65 32.5C65 23.8189 61.6195 15.6575 55.4811 9.51895ZM54.0447 54.0447C48.2899 59.7995 40.6385 62.9688 32.5 62.9688C24.3615 62.9688 16.7101 59.7995 10.9553 54.0447C5.20051 48.2899 2.03125 40.6385 2.03125 32.5C2.03125 24.3615 5.20051 16.7101 10.9553 10.9553C16.7101 5.20051 24.3615 2.03125 32.5 2.03125C40.6385 2.03125 48.2899 5.20051 54.0447 10.9553C59.7995 16.7101 62.9688 24.3615 62.9688 32.5C62.9688 40.6385 59.7995 48.2899 54.0447 54.0447Z" fill="url(#paint0_linear)"/>
<path d="M6.09375 32.5C6.09375 17.9396 17.9396 6.09375 32.5 6.09375C37.7518 6.09375 42.8246 7.63128 47.1701 10.5402C47.6361 10.8522 48.2669 10.7273 48.579 10.2611C48.891 9.79507 48.7661 9.16424 48.2999 8.85219C43.6191 5.71873 38.1555 4.0625 32.5 4.0625C24.904 4.0625 17.7628 7.02051 12.3916 12.3916C7.02051 17.7628 4.0625 24.904 4.0625 32.5C4.0625 39.5078 6.63381 46.2404 11.3029 51.4577C11.5035 51.6819 11.7813 51.796 12.06 51.796C12.3011 51.796 12.5432 51.7107 12.737 51.5371C13.1549 51.163 13.1906 50.521 12.8164 50.1031C8.48136 45.2588 6.09375 39.0072 6.09375 32.5Z" fill="url(#paint1_linear)"/>
<path d="M56.1473 16.6998C55.8353 16.2337 55.2044 16.1087 54.7384 16.4208C54.2723 16.7328 54.1473 17.3637 54.4593 17.8297C57.3681 22.1751 58.9056 27.2479 58.9056 32.4995C58.9056 47.0599 47.0597 58.9058 32.4994 58.9058C26.4585 58.9058 20.5536 56.8137 15.8724 53.015C15.4369 52.6616 14.7973 52.7281 14.4438 53.1637C14.0904 53.5993 14.1569 54.2389 14.5925 54.5923C19.6344 58.6837 25.9939 60.937 32.4994 60.937C40.0953 60.937 47.2366 57.979 52.6077 52.6079C57.9789 47.2368 60.9369 40.0955 60.9369 32.4995C60.9369 26.8442 59.2806 21.3806 56.1473 16.6998Z" fill="url(#paint2_linear)"/>
<path d="M50.1039 12.8164C50.7868 13.4274 51.4452 14.0814 52.0608 14.7598C52.2613 14.9807 52.5368 15.0929 52.8133 15.0929C53.0566 15.0929 53.301 15.0058 53.4955 14.8294C53.9108 14.4525 53.942 13.8101 53.5651 13.3947C52.9024 12.6644 52.1936 11.9606 51.4585 11.3027C51.0406 10.9287 50.3985 10.9643 50.0245 11.3822C49.6505 11.8002 49.6859 12.4423 50.1039 12.8164Z" fill="url(#paint3_linear)"/>
<path d="M32.5 13.2031C33.0609 13.2031 33.5156 12.7484 33.5156 12.1875V9.14062C33.5156 8.57975 33.0609 8.125 32.5 8.125C31.9391 8.125 31.4844 8.57975 31.4844 9.14062V12.1875C31.4844 12.7484 31.9391 13.2031 32.5 13.2031Z" fill="url(#paint4_linear)"/>
<path d="M31.4844 52.8125V55.8594C31.4844 56.4203 31.9391 56.875 32.5 56.875C33.0609 56.875 33.5156 56.4203 33.5156 55.8594V52.8125C33.5156 52.2516 33.0609 51.7969 32.5 51.7969C31.9391 51.7969 31.4844 52.2516 31.4844 52.8125Z" fill="url(#paint5_linear)"/>
<path d="M13.2031 32.5C13.2031 31.9391 12.7484 31.4844 12.1875 31.4844H9.14062C8.57975 31.4844 8.125 31.9391 8.125 32.5C8.125 33.0609 8.57975 33.5156 9.14062 33.5156H12.1875C12.7484 33.5156 13.2031 33.0609 13.2031 32.5Z" fill="url(#paint6_linear)"/>
<path d="M51.7969 32.5C51.7969 33.0609 52.2516 33.5156 52.8125 33.5156H55.8594C56.4203 33.5156 56.875 33.0609 56.875 32.5C56.875 31.9391 56.4203 31.4844 55.8594 31.4844H52.8125C52.2516 31.4844 51.7969 31.9391 51.7969 32.5Z" fill="url(#paint7_linear)"/>
<path d="M23.2234 14.4015L21.7 11.7628C21.4195 11.277 20.7984 11.1108 20.3126 11.3911C19.8269 11.6715 19.6605 12.2927 19.9409 12.7784L21.4644 15.4171C21.6525 15.7429 21.9939 15.9251 22.3449 15.9251C22.5172 15.9251 22.6919 15.8812 22.8518 15.7889C23.3374 15.5084 23.5039 14.8872 23.2234 14.4015Z" fill="url(#paint8_linear)"/>
<path d="M43.5359 49.583C43.2555 49.0973 42.6342 48.9311 42.1486 49.2113C41.6628 49.4917 41.4964 50.1129 41.7769 50.5986L43.3003 53.2374C43.4884 53.5631 43.8298 53.7453 44.1808 53.7453C44.3531 53.7453 44.5278 53.7014 44.6878 53.6091C45.1735 53.3286 45.3399 52.7075 45.0595 52.2217L43.5359 49.583Z" fill="url(#paint9_linear)"/>
<path d="M12.2706 45.1955C12.4428 45.1955 12.6175 45.1516 12.7775 45.0593L15.4162 43.5358C15.9019 43.2554 16.0684 42.6342 15.7879 42.1485C15.5075 41.6627 14.8862 41.4966 14.4006 41.7767L11.7619 43.3002C11.2761 43.5806 11.1097 44.2018 11.3901 44.6875C11.5782 45.0133 11.9195 45.1955 12.2706 45.1955Z" fill="url(#paint10_linear)"/>
<path d="M50.0928 23.3595C50.2651 23.3595 50.4398 23.3156 50.5997 23.2233L53.2385 21.6999C53.7242 21.4194 53.8906 20.7982 53.6102 20.3125C53.3298 19.8268 52.7086 19.6606 52.2228 19.9408L49.5841 21.4642C49.0984 21.7447 48.932 22.3659 49.2124 22.8516C49.4005 23.1773 49.7419 23.3595 50.0928 23.3595Z" fill="url(#paint11_linear)"/>
<path d="M44.6876 11.3902C44.2019 11.1097 43.5807 11.2761 43.3003 11.7619L41.7769 14.4007C41.4964 14.8864 41.6628 15.5076 42.1486 15.788C42.3085 15.8804 42.4831 15.9242 42.6555 15.9242C43.0065 15.9242 43.3479 15.742 43.536 15.4163L45.0595 12.7776C45.3398 12.2918 45.1734 11.6707 44.6876 11.3902Z" fill="url(#paint12_linear)"/>
<path d="M22.8517 49.2114C22.366 48.931 21.7448 49.0974 21.4644 49.5831L19.9409 52.2219C19.6605 52.7076 19.8269 53.3288 20.3126 53.6092C20.4726 53.7016 20.6472 53.7454 20.8196 53.7454C21.1706 53.7454 21.512 53.5632 21.7001 53.2375L23.2235 50.5988C23.5039 50.113 23.3374 49.4919 22.8517 49.2114Z" fill="url(#paint13_linear)"/>
<path d="M49.5841 43.536L52.2228 45.0594C52.3828 45.1518 52.5573 45.1956 52.7297 45.1956C53.0808 45.1956 53.4221 45.0135 53.6103 44.6877C53.8907 44.202 53.7243 43.5808 53.2386 43.3003L50.5998 41.7769C50.1141 41.4963 49.4929 41.6629 49.2125 42.1486C48.9319 42.6344 49.0984 43.2555 49.5841 43.536Z" fill="url(#paint14_linear)"/>
<path d="M15.4162 21.4644L12.7775 19.941C12.2918 19.6604 11.6706 19.827 11.3901 20.3127C11.1097 20.7984 11.2761 21.4196 11.7619 21.7L14.4006 23.2235C14.5605 23.3159 14.7351 23.3597 14.9075 23.3597C15.2585 23.3597 15.5999 23.1775 15.788 22.8517C16.0684 22.366 15.9019 21.7448 15.4162 21.4644Z" fill="url(#paint15_linear)"/>
<path d="M39.5703 45.7604C39.7426 45.7604 39.9172 45.7165 40.0772 45.6242C40.5629 45.3437 40.7294 44.7225 40.4489 44.2368L34.8147 34.4781C35.2706 33.9452 35.5469 33.2545 35.5469 32.5C35.5469 31.176 34.6977 30.047 33.5156 29.6278V16.25C33.5156 15.6891 33.0609 15.2344 32.5 15.2344C31.9391 15.2344 31.4844 15.6891 31.4844 16.25V29.6278C30.3023 30.047 29.4531 31.176 29.4531 32.5C29.4531 34.1801 30.8199 35.5469 32.5 35.5469C32.6901 35.5469 32.8759 35.5285 33.0564 35.4951L38.6899 45.2524C38.878 45.5782 39.2194 45.7604 39.5703 45.7604ZM31.4844 32.5C31.4844 31.94 31.94 31.4844 32.5 31.4844C33.06 31.4844 33.5156 31.94 33.5156 32.5C33.5156 33.06 33.06 33.5156 32.5 33.5156C31.94 33.5156 31.4844 33.06 31.4844 32.5Z" fill="url(#paint16_linear)"/>
<defs>
<linearGradient id="paint0_linear" x1="32.5" y1="0" x2="32.5" y2="65" gradientUnits="userSpaceOnUse">
<stop stop-color="#FFDD4E"/>
<stop offset="1" stop-color="#FFDA3F"/>
</linearGradient>
<linearGradient id="paint1_linear" x1="26.4066" y1="4.0625" x2="26.4066" y2="51.796" gradientUnits="userSpaceOnUse">
<stop stop-color="#FFDD4E"/>
<stop offset="1" stop-color="#FFDA3F"/>
</linearGradient>
<linearGradient id="paint2_linear" x1="37.5768" y1="16.249" x2="37.5768" y2="60.937" gradientUnits="userSpaceOnUse">
<stop stop-color="#FFDD4E"/>
<stop offset="1" stop-color="#FFDA3F"/>
</linearGradient>
<linearGradient id="paint3_linear" x1="51.7971" y1="11.0439" x2="51.7971" y2="15.0929" gradientUnits="userSpaceOnUse">
<stop stop-color="#FFDD4E"/>
<stop offset="1" stop-color="#FFDA3F"/>
</linearGradient>
<linearGradient id="paint4_linear" x1="32.5" y1="8.125" x2="32.5" y2="13.2031" gradientUnits="userSpaceOnUse">
<stop stop-color="#FFDD4E"/>
<stop offset="1" stop-color="#FFDA3F"/>
</linearGradient>
<linearGradient id="paint5_linear" x1="32.5" y1="51.7969" x2="32.5" y2="56.875" gradientUnits="userSpaceOnUse">
<stop stop-color="#FFDD4E"/>
<stop offset="1" stop-color="#FFDA3F"/>
</linearGradient>
<linearGradient id="paint6_linear" x1="10.6641" y1="31.4844" x2="10.6641" y2="33.5156" gradientUnits="userSpaceOnUse">
<stop stop-color="#FFDD4E"/>
<stop offset="1" stop-color="#FFDA3F"/>
</linearGradient>
<linearGradient id="paint7_linear" x1="54.3359" y1="31.4844" x2="54.3359" y2="33.5156" gradientUnits="userSpaceOnUse">
<stop stop-color="#FFDD4E"/>
<stop offset="1" stop-color="#FFDA3F"/>
</linearGradient>
<linearGradient id="paint8_linear" x1="21.5822" y1="11.2549" x2="21.5822" y2="15.9251" gradientUnits="userSpaceOnUse">
<stop stop-color="#FFDD4E"/>
<stop offset="1" stop-color="#FFDA3F"/>
</linearGradient>
<linearGradient id="paint9_linear" x1="43.4182" y1="49.0752" x2="43.4182" y2="53.7453" gradientUnits="userSpaceOnUse">
<stop stop-color="#FFDD4E"/>
<stop offset="1" stop-color="#FFDA3F"/>
</linearGradient>
<linearGradient id="paint10_linear" x1="13.589" y1="41.6406" x2="13.589" y2="45.1955" gradientUnits="userSpaceOnUse">
<stop stop-color="#FFDD4E"/>
<stop offset="1" stop-color="#FFDA3F"/>
</linearGradient>
<linearGradient id="paint11_linear" x1="51.4113" y1="19.8047" x2="51.4113" y2="23.3595" gradientUnits="userSpaceOnUse">
<stop stop-color="#FFDD4E"/>
<stop offset="1" stop-color="#FFDA3F"/>
</linearGradient>
<linearGradient id="paint12_linear" x1="43.4181" y1="11.2539" x2="43.4181" y2="15.9242" gradientUnits="userSpaceOnUse">
<stop stop-color="#FFDD4E"/>
<stop offset="1" stop-color="#FFDA3F"/>
</linearGradient>
<linearGradient id="paint13_linear" x1="21.5822" y1="49.0752" x2="21.5822" y2="53.7454" gradientUnits="userSpaceOnUse">
<stop stop-color="#FFDD4E"/>
<stop offset="1" stop-color="#FFDA3F"/>
</linearGradient>
<linearGradient id="paint14_linear" x1="51.4113" y1="41.6406" x2="51.4113" y2="45.1956" gradientUnits="userSpaceOnUse">
<stop stop-color="#FFDD4E"/>
<stop offset="1" stop-color="#FFDA3F"/>
</linearGradient>
<linearGradient id="paint15_linear" x1="13.589" y1="19.8047" x2="13.589" y2="23.3597" gradientUnits="userSpaceOnUse">
<stop stop-color="#FFDD4E"/>
<stop offset="1" stop-color="#FFDA3F"/>
</linearGradient>
<linearGradient id="paint16_linear" x1="35.0191" y1="15.2344" x2="35.0191" y2="45.7604" gradientUnits="userSpaceOnUse">
<stop stop-color="#FFDD4E"/>
<stop offset="1" stop-color="#FFDA3F"/>
</linearGradient>
</defs>
</svg>
