<?xml version="1.0" encoding="UTF-8"?>
<!DOCTYPE svg PUBLIC "-//W3C//DTD SVG 1.1//EN" "http://www.w3.org/Graphics/SVG/1.1/DTD/svg11.dtd">
<!-- Creator: CorelDRAW 2020 (64-Bit) -->
<svg xmlns="http://www.w3.org/2000/svg" xml:space="preserve" width="1299px" height="591px" version="1.1" style="shape-rendering:geometricPrecision; text-rendering:geometricPrecision; image-rendering:optimizeQuality; fill-rule:evenodd; clip-rule:evenodd"
viewBox="0 0 129900 59045"
 xmlns:xlink="http://www.w3.org/1999/xlink"
 xmlns:xodm="http://www.corel.com/coreldraw/odm/2003">
 <defs>
  <style type="text/css">
   <![CDATA[
    .fil2 {fill:#211F20}
    .fil0 {fill:#CF302A}
    .fil1 {fill:#CF302A;fill-rule:nonzero}
   ]]>
  </style>
 </defs>
 <g id="Слой_x0020_1">
  <metadata id="CorelCorpID_0Corel-Layer"/>
  <g id="_2162823636144">
   <path class="fil0" d="M50421 41504l73000 -1 -1 -2862 -74918 4c-1055,2406 -1465,3456 -3186,5550 -4509,5489 -11525,8317 -19115,6981 -8706,-1533 -16151,-9326 -16191,-19292 -72,-17905 22438,-27224 35208,-12617 900,1030 1987,2725 2586,4011 244,522 475,1144 717,1578l2943 12c-16,-1355 -2404,-5315 -3357,-6581 -2800,-3720 -7220,-6950 -11883,-8191 -3255,-866 -5552,-970 -9219,-692 -5111,387 -10788,3748 -13432,6649 -3594,3944 -5850,8058 -6366,13827 -975,10907 6119,20682 16481,23631 5826,1658 12082,772 16791,-1745 4461,-2385 7607,-5632 9942,-10262z"/>
   <path class="fil1" d="M122210 24834l0 -15527c-1014,0 -1995,0 -2977,0l0 15526 2977 1zm-6006 12638l0 -4340c376,0 736,0 1128,-65l2519 4405 3559 7 -3412 -5468c2273,-1446 2208,-3591 2208,-5916 -1014,0 -2012,0 -3009,0 0,2129 147,4307 -2781,4307l-212 0 0 -21075c-1014,0 -1995,0 -2977,0l0 28145c982,0 1963,0 2977,0z"/>
   <path class="fil2" d="M85104 37456l2707 20 -94 -8304 2506 8279 786 12 0 2 59 -1 60 1 0 -2 786 -12 2505 -8279 -93 8304 2706 -20 -52 -11376 -3732 13 -2180 6908 -2179 -6908 -3732 -13 -53 11376zm-20252 -8484c0,-422 376,-666 1014,-666 1374,0 1406,1966 -33,1966l-768 0 0 2373 801 0c1962,0 1962,2584 0,2584 -850,0 -1439,-569 -1439,-1463l-2568 0c0,2552 1521,3917 4007,3917 2944,0 4416,-1560 4416,-3576 0,-1283 -491,-2193 -1652,-2811 670,-504 997,-1362 997,-2105 0,-1649 -1259,-3290 -3761,-3290 -1995,0 -3712,975 -3614,3071l2600 0zm15332 8500l3073 0 -5379 -11523 -1259 0 -5331 11515 3041 8 671 -1431 4514 0 670 1431zm-1619 -3917l-2617 0 1292 -2990 1325 2990zm31988 -1755c0,-7866 -11742,-7866 -11742,0 0,7882 11742,7882 11742,0zm-8733 0c0,-4096 5741,-4096 5741,0 0,4128 -5741,4128 -5741,0zm-78780 -2053c0,-1966 -1577,-3494 -3543,-3494l-4859 0 0 11376 5330 0c2324,0 3527,-1608 3543,-3591 0,-1008 -439,-1853 -1365,-2324 552,-455 894,-1284 894,-1967zm-3283 3365c1170,0 1186,1933 16,1933l-2324 0 0 -1933 2308 0zm-488 -4258c1170,0 1170,1836 17,1836l-1837 0 0 -1836 1820 0zm13749 8775l3019 0 -5310 -11522 -1252 0 -5329 11526 3054 -4 666 -1430 4486 0 666 1430zm-1609 -3916l-2600 0 1284 -2990 1316 2990zm5964 3916l14415 0 0 -11376 -2974 0 0 8695 -2746 0 0 -8695 -2974 0 0 8695 -2747 0 0 -8695 -2974 0 0 11376z"/>
  </g>
 </g>
</svg>
