<svg width="91" height="98" viewBox="0 0 91 98" fill="none" xmlns="http://www.w3.org/2000/svg">
<path d="M64.4535 10.1465L53.1211 12.5507" stroke="#E30613" stroke-width="0.283465" stroke-linejoin="round"/>
<path d="M66.1548 19.032L64.0664 8.33691" stroke="#E30613" stroke-width="0.283465" stroke-linejoin="round"/>
<path d="M54.8228 21.4363L52.7344 10.7412" stroke="#E30613" stroke-width="0.283465" stroke-linejoin="round"/>
<path d="M64.4523 11.9957C65.4756 11.9957 66.3051 11.1679 66.3051 10.1468C66.3051 9.12565 65.4756 8.29785 64.4523 8.29785C63.4291 8.29785 62.5996 9.12565 62.5996 10.1468C62.5996 11.1679 63.4291 11.9957 64.4523 11.9957Z" fill="#E30613"/>
<path d="M53.1203 14.4C54.1436 14.4 54.973 13.5722 54.973 12.5511C54.973 11.5299 54.1436 10.7021 53.1203 10.7021C52.0971 10.7021 51.2676 11.5299 51.2676 12.5511C51.2676 13.5722 52.0971 14.4 53.1203 14.4Z" fill="#E30613"/>
<path d="M33.9243 16.1631H31.2437L30.6416 17.833H29.7715L32.2148 11.4346H32.9531L35.4009 17.833H34.5352L33.9243 16.1631ZM31.4985 15.4688H33.6738L32.584 12.4761L31.4985 15.4688Z" fill="#3E4899"/>
<path d="M26.5468 13.4453L11.0898 16.7381" stroke="#3E4899" stroke-width="0.283465" stroke-linejoin="round"/>
<path d="M57.512 6.83984L36.3594 11.3478" stroke="#3E4899" stroke-width="0.283465" stroke-linejoin="round"/>
<path d="M60.4442 20.2464L57.125 5.03027" stroke="#3E4899" stroke-width="0.283465" stroke-linejoin="round"/>
<path d="M14.0289 30.138L10.7031 14.9219" stroke="#3E4899" stroke-width="0.283465" stroke-linejoin="round"/>
<path d="M57.5129 8.68908C58.5361 8.68908 59.3656 7.86128 59.3656 6.84015C59.3656 5.81901 58.5361 4.99121 57.5129 4.99121C56.4897 4.99121 55.6602 5.81901 55.6602 6.84015C55.6602 7.86128 56.4897 8.68908 57.5129 8.68908Z" fill="#3E4899"/>
<path d="M11.0891 18.5865C12.1123 18.5865 12.9418 17.7587 12.9418 16.7376C12.9418 15.7165 12.1123 14.8887 11.0891 14.8887C10.0658 14.8887 9.23633 15.7165 9.23633 16.7376C9.23633 17.7587 10.0658 18.5865 11.0891 18.5865Z" fill="#3E4899"/>
<path d="M60.4519 20.2402L58.2129 9.86523" stroke="#3E4899" stroke-width="0.283465" stroke-linejoin="round"/>
<path d="M67.2082 88.8854C68.2314 88.8854 69.0609 88.0576 69.0609 87.0364C69.0609 86.0153 68.2314 85.1875 67.2082 85.1875C66.185 85.1875 65.3555 86.0153 65.3555 87.0364C65.3555 88.0576 66.185 88.8854 67.2082 88.8854Z" fill="#3E4899"/>
<path d="M70.9546 49.9998V65.0984L59.7073 68.3258V52.979C38.522 58.5912 22.0176 62.8509 22.0176 62.8509L24.4202 89.4677C24.4995 90.2701 24.4465 91.0801 24.2631 91.8654C24.1106 92.5516 23.826 93.2017 23.4251 93.7797C23.1986 94.0956 22.9299 94.3792 22.6264 94.6225L78.7322 75.9241C79.0307 75.8817 79.3203 75.7912 79.5898 75.6562C80.0509 75.4085 80.4443 75.0518 80.7355 74.6174C81.0556 74.1218 81.2778 73.5696 81.3902 72.9906C81.5326 72.3187 81.5679 71.6286 81.4949 70.9457L79.0988 48.2489C79.5243 48.0006 70.9546 49.9998 70.9546 49.9998Z" fill="url(#paint0_linear)" stroke="black" stroke-width="0.283465" stroke-linecap="round" stroke-linejoin="round"/>
<path d="M66.4941 63.2163L59.7051 68.3254L70.9524 65.0979L78.1473 60.1064L66.4941 63.2163Z" fill="#251C13" stroke="black" stroke-width="0.283465" stroke-linecap="round" stroke-linejoin="round"/>
<path opacity="0.9" d="M59.7059 52.9788C60.6923 52.3638 61.5946 51.6238 62.3901 50.777C63.2378 49.7831 63.955 48.6854 64.5243 47.5104C65.1441 46.2154 65.6142 44.8543 65.9253 43.4532C66.2601 41.9517 66.4292 40.4181 66.4294 38.8798C66.437 36.8537 66.1368 34.8382 65.5391 32.9018C65.0279 31.1704 64.2145 29.5426 63.1364 28.0933C62.2076 26.8473 61.0107 25.8248 59.6339 25.101C58.4209 24.4832 57.0656 24.1969 55.7058 24.2713L14.6445 33.0129C16.2468 32.8719 17.8581 33.1512 19.3189 33.823C20.8915 34.5513 22.2958 35.5968 23.4434 36.8937C24.7402 38.3483 25.7806 40.0117 26.5204 41.8133C27.3507 43.7884 27.8697 45.8799 28.0589 48.0134C28.2059 49.6069 28.1642 51.2121 27.9345 52.7958C27.7265 54.2476 27.3372 55.6677 26.7757 57.0229C26.2668 58.2591 25.5834 59.4163 24.7462 60.4594C23.9835 61.4188 23.0598 62.2389 22.0162 62.8833L59.7059 52.9788Z" fill="white"/>
<path opacity="0.9" d="M76.6752 30.2819C76.1641 28.6114 75.3667 27.0419 74.3184 25.6433C73.4081 24.4202 72.2333 23.4175 70.8813 22.7098C69.6152 22.0644 68.1931 21.786 66.7765 21.9062L55.4375 24.3105C56.8855 24.1829 58.3401 24.466 59.634 25.1271C61.0081 25.8434 62.2047 26.8568 63.1365 28.0933C64.2065 29.5188 65.0195 31.1194 65.5392 32.8234C66.1369 34.7597 66.4371 36.7753 66.4295 38.8014C66.4293 40.3396 66.2602 41.8732 65.9254 43.3747C65.6143 44.7758 65.1442 46.137 64.5244 47.4319C63.9551 48.607 63.2379 49.7047 62.3902 50.6986C61.5947 51.5453 60.6924 52.2854 59.706 52.9003L70.9533 49.9211C71.9376 49.3569 72.8223 48.6352 73.572 47.7847C74.4056 46.8026 75.1096 45.7179 75.667 44.5573C76.2742 43.2847 76.7354 41.9478 77.0418 40.5719C77.3713 39.0919 77.5359 37.5801 77.5328 36.0639C77.5395 34.1046 77.2504 32.1553 76.6752 30.2819Z" fill="url(#paint1_linear)"/>
<path d="M62.6249 57.872L66.4941 63.2163L59.7051 68.3253V52.9785L62.6249 57.872Z" fill="url(#paint2_linear)" stroke="black" stroke-width="0.283465" stroke-linecap="round" stroke-linejoin="round"/>
<path d="M66.4961 63.2165L62.627 57.8722L74.2802 54.8604L78.1493 60.1066L66.4961 63.2165Z" fill="#6F7471" stroke="black" stroke-width="0.283465" stroke-linecap="round" stroke-linejoin="round"/>
<path d="M62.6249 57.8727L59.7051 52.9792L70.9524 50L74.2782 54.8608L62.6249 57.8727Z" fill="#646561" stroke="black" stroke-width="0.283465" stroke-linecap="round" stroke-linejoin="round"/>
<path d="M66.4957 69.2016C65.9453 69.2229 65.4064 69.3657 64.9179 69.6198C64.4235 69.8863 63.9803 70.238 63.6086 70.6586C63.2111 71.1049 62.8883 71.6123 62.6528 72.1612C62.4054 72.7389 62.2508 73.3518 62.1945 73.9775C62.1359 74.5885 62.1824 75.205 62.332 75.8003C62.4567 76.3368 62.6785 76.8461 62.9866 77.303C63.2864 77.7293 63.675 78.0859 64.1258 78.3483C64.5851 78.6045 65.0991 78.7479 65.625 78.7664C66.1759 78.7772 66.722 78.6633 67.2224 78.4332C67.748 78.1908 68.2215 77.8492 68.6169 77.4271C69.0418 76.9766 69.3871 76.4575 69.6382 75.8918C69.9121 75.2912 70.0804 74.6481 70.1357 73.9906C70.1981 73.3504 70.1449 72.7042 69.9786 72.0828C69.8312 71.5266 69.5753 71.0049 69.2257 70.5475C68.904 70.1245 68.4898 69.7804 68.0146 69.5414C67.5379 69.3025 67.0092 69.1857 66.4761 69.2016" fill="#312A22"/>
<path d="M66.4957 69.2016C65.9453 69.2229 65.4064 69.3657 64.9179 69.6198C64.4235 69.8863 63.9803 70.238 63.6086 70.6586C63.2111 71.1049 62.8883 71.6123 62.6528 72.1612C62.4054 72.7389 62.2508 73.3518 62.1945 73.9775C62.1359 74.5885 62.1824 75.205 62.332 75.8003C62.4567 76.3368 62.6785 76.8461 62.9866 77.303C63.2864 77.7293 63.675 78.0859 64.1258 78.3483C64.5851 78.6045 65.0991 78.7479 65.625 78.7664C66.1759 78.7772 66.722 78.6633 67.2224 78.4332C67.748 78.1908 68.2215 77.8492 68.6169 77.4271C69.0418 76.9766 69.3871 76.4575 69.6382 75.8918C69.9121 75.2912 70.0804 74.6481 70.1357 73.9906C70.1981 73.3504 70.1449 72.7042 69.9786 72.0828C69.8312 71.5266 69.5753 71.0049 69.2257 70.5475C68.904 70.1245 68.4898 69.7804 68.0146 69.5414C67.5379 69.3025 67.0092 69.1857 66.4761 69.2016" stroke="black" stroke-miterlimit="10"/>
<path opacity="0.9" d="M59.7059 52.9797C60.6923 52.3648 61.5946 51.6247 62.3901 50.778C63.2378 49.7841 63.955 48.6864 64.5243 47.5113C65.1441 46.2164 65.6142 44.8552 65.9253 43.4541C66.2601 41.9526 66.4292 40.4191 66.4294 38.8808C66.437 36.8547 66.1368 34.8391 65.5391 32.9028C65.0279 31.1714 64.2145 29.5436 63.1364 28.0943C62.2076 26.8483 61.0107 25.8258 59.6339 25.102C58.4209 24.4842 57.0656 24.1979 55.7058 24.2723L14.6445 33.0139C16.2468 32.8729 17.8581 33.1522 19.3189 33.824C20.8915 34.5523 22.2958 35.5978 23.4434 36.8947C24.7402 38.3493 25.7806 40.0127 26.5204 41.8143C27.3507 43.7894 27.8697 45.8809 28.0589 48.0144C28.2059 49.6079 28.1642 51.2131 27.9345 52.7968C27.7265 54.2486 27.3372 55.6686 26.7757 57.0239C26.2668 58.2601 25.5834 59.4173 24.7462 60.4604C23.9835 61.4198 23.0598 62.2399 22.0162 62.8843L59.7059 52.9797Z" fill="url(#paint3_linear)" stroke="black" stroke-width="0.283465" stroke-linecap="round" stroke-linejoin="round"/>
<path opacity="0.9" d="M85.0085 34.2873C84.9236 32.6393 84.6825 31.003 84.2884 29.4003C83.8572 27.5515 83.0185 25.8218 81.8333 24.337C80.8291 23.1637 79.586 22.2171 78.1868 21.5603C76.8996 20.9144 75.4591 20.6341 74.023 20.7502C73.5648 20.7894 68.6416 21.6322 66.9395 21.9262C68.298 21.8391 69.6549 22.119 70.8675 22.7363C72.2195 23.4441 73.3943 24.4467 74.3046 25.6698C75.3529 27.0685 76.1503 28.6379 76.6614 30.3085C77.2509 32.2126 77.5445 34.1956 77.5321 36.1885C77.5635 37.706 77.3984 39.2211 77.0411 40.6965C76.7346 42.0723 76.2735 43.4093 75.6663 44.6818C75.1089 45.8425 74.4049 46.9271 73.5713 47.9093C72.8666 48.7065 72.0403 49.3878 71.1228 49.9281L79.3848 48.1575C80.3328 47.5609 81.17 46.8049 81.8595 45.9231C82.6267 44.952 83.2547 43.8789 83.7254 42.7349C84.2426 41.4755 84.6095 40.1598 84.8187 38.8149C85.0562 37.318 85.1199 35.7987 85.0085 34.2873Z" fill="url(#paint4_linear)" stroke="black" stroke-width="0.283465" stroke-linecap="round" stroke-linejoin="round"/>
<path opacity="0.9" d="M76.6752 30.2819C76.1641 28.6114 75.3667 27.0419 74.3184 25.6433C73.4081 24.4202 72.2333 23.4175 70.8813 22.7098C69.6152 22.0644 68.1931 21.786 66.7765 21.9062L55.4375 24.3105C56.8855 24.1829 58.3401 24.466 59.634 25.1271C61.0081 25.8434 62.2047 26.8568 63.1365 28.0933C64.2065 29.5188 65.0195 31.1194 65.5392 32.8234C66.1369 34.7597 66.4371 36.7753 66.4295 38.8014C66.4293 40.3396 66.2602 41.8732 65.9254 43.3747C65.6143 44.7758 65.1442 46.137 64.5244 47.4319C63.9551 48.607 63.2379 49.7047 62.3902 50.6986C61.5947 51.5453 60.6924 52.2854 59.706 52.9003L70.9533 49.9211C71.9376 49.3569 72.8223 48.6352 73.572 47.7847C74.4056 46.8026 75.1096 45.7179 75.667 44.5573C76.2742 43.2847 76.7354 41.9478 77.0418 40.5719C77.3991 39.0966 77.5642 37.5814 77.5328 36.0639C77.5395 34.1046 77.2504 32.1553 76.6752 30.2819Z" fill="url(#paint5_linear)" stroke="black" stroke-width="0.283465" stroke-linecap="round" stroke-linejoin="round"/>
<path d="M14.6449 33.0127C13.0815 33.1621 11.5847 33.7185 10.3044 34.6264C8.97326 35.5823 7.85806 36.8065 7.03106 38.2198C6.11582 39.7699 5.46536 41.4612 5.10631 43.2243C4.70046 45.1743 4.59012 47.1739 4.77897 49.1566C4.9128 50.667 5.20911 52.1586 5.66279 53.6058C6.093 54.9718 6.67261 56.2864 7.39113 57.5258C8.06719 58.6796 8.88293 59.746 9.81998 60.701C10.6917 61.596 11.691 62.3577 12.7857 62.9615L15.1294 88.9119C15.2057 89.7317 15.3975 90.5367 15.699 91.3031C15.9867 92.0224 16.3746 92.6976 16.8512 93.3088C17.2893 93.8723 17.8234 94.3544 18.429 94.7331C18.9887 95.0984 19.629 95.3226 20.2948 95.3864C20.907 95.4395 21.5219 95.3195 22.069 95.0402C22.6209 94.7464 23.0944 94.3253 23.4503 93.8119C23.8512 93.234 24.1358 92.5839 24.2883 91.8976C24.4717 91.1123 24.5248 90.3024 24.4454 89.4999L22.0166 62.8504C23.0602 62.2061 23.9839 61.386 24.7466 60.4266C25.5838 59.3834 26.2672 58.2262 26.7761 56.99C27.3376 55.6348 27.7269 54.2147 27.9349 52.763C28.1646 51.1793 28.2063 49.574 28.0593 47.9806C27.8667 45.8581 27.3478 43.7779 26.5208 41.8131C25.7778 40.023 24.7375 38.3709 23.4438 36.9262C22.2963 35.6293 20.8919 34.5838 19.3193 33.8555C17.8585 33.1837 16.2472 32.9044 14.6449 33.0454" fill="url(#paint6_linear)"/>
<path d="M14.6449 33.0127C13.0815 33.1621 11.5847 33.7185 10.3044 34.6264C8.97326 35.5823 7.85806 36.8065 7.03106 38.2198C6.11582 39.7699 5.46536 41.4612 5.10631 43.2243C4.70046 45.1743 4.59012 47.1739 4.77897 49.1566C4.9128 50.667 5.20911 52.1586 5.66279 53.6058C6.093 54.9718 6.67261 56.2864 7.39113 57.5258C8.06719 58.6796 8.88293 59.746 9.81998 60.701C10.6917 61.596 11.691 62.3577 12.7857 62.9615L15.1294 88.9119C15.2057 89.7317 15.3975 90.5367 15.699 91.3031C15.9867 92.0224 16.3746 92.6976 16.8512 93.3088C17.2893 93.8723 17.8234 94.3544 18.429 94.7331C18.9887 95.0984 19.629 95.3226 20.2948 95.3864C20.907 95.4395 21.5219 95.3195 22.069 95.0402C22.6209 94.7464 23.0944 94.3253 23.4503 93.8119C23.8512 93.234 24.1358 92.5839 24.2883 91.8976C24.4717 91.1123 24.5248 90.3024 24.4454 89.4999L22.0166 62.8504C23.0602 62.2061 23.9839 61.386 24.7466 60.4266C25.5838 59.3834 26.2672 58.2262 26.7761 56.99C27.3376 55.6348 27.7269 54.2147 27.9349 52.763C28.1646 51.1793 28.2063 49.574 28.0593 47.9806C27.8667 45.8581 27.3478 43.7779 26.5208 41.8131C25.7778 40.023 24.7375 38.3709 23.4438 36.9262C22.2963 35.6293 20.8919 34.5838 19.3193 33.8555C17.8585 33.1837 16.2472 32.9044 14.6449 33.0454" stroke="black" stroke-width="0.283465" stroke-linecap="round" stroke-linejoin="round"/>
<path d="M14.8869 35.7051C13.6588 35.7587 12.4713 36.1598 11.4629 36.8615C10.4068 37.6056 9.52648 38.5711 8.88351 39.6904C8.15416 40.9576 7.64296 42.3378 7.37121 43.7737C7.05121 45.3887 6.96742 47.0414 7.12243 48.6803C7.27097 50.358 7.65214 52.0071 8.25502 53.5803C8.7908 55.0242 9.53876 56.3805 10.4744 57.6048C11.321 58.7148 12.3665 59.6585 13.5579 60.388C14.6525 61.0584 15.9015 61.4364 17.1848 61.4856C18.4218 61.5208 19.6426 61.1987 20.7004 60.5579C21.8168 59.8721 22.7563 58.9345 23.4435 57.8204C24.2452 56.5441 24.8107 55.1345 25.1129 53.6587C25.4724 51.9697 25.5718 50.2358 25.4075 48.5169C25.2631 46.7592 24.8639 45.0317 24.2226 43.3883C23.6355 41.8945 22.8182 40.5013 21.8003 39.2592C20.909 38.1621 19.8073 37.2537 18.5596 36.5871C17.4346 35.9767 16.1668 35.6768 14.8869 35.7181" fill="url(#paint7_linear)"/>
<path d="M14.8869 35.7051C13.6588 35.7587 12.4713 36.1598 11.4629 36.8615C10.4068 37.6056 9.52648 38.5711 8.88351 39.6904C8.15416 40.9576 7.64296 42.3378 7.37121 43.7737C7.05121 45.3887 6.96742 47.0414 7.12243 48.6803C7.27097 50.358 7.65214 52.0071 8.25502 53.5803C8.7908 55.0242 9.53876 56.3805 10.4744 57.6048C11.321 58.7148 12.3665 59.6585 13.5579 60.388C14.6525 61.0584 15.9015 61.4364 17.1848 61.4856C18.4218 61.5208 19.6426 61.1987 20.7004 60.5579C21.8168 59.8721 22.7563 58.9344 23.4435 57.8204C24.2452 56.5441 24.8107 55.1345 25.1129 53.6587C25.4724 51.9697 25.5718 50.2358 25.4075 48.5169C25.2631 46.7592 24.8639 45.0317 24.2226 43.3883C23.6355 41.8945 22.8182 40.5013 21.8003 39.2592C20.909 38.1621 19.8073 37.2537 18.5596 36.5871C17.4346 35.9767 16.1668 35.6768 14.8869 35.7181" stroke="black" stroke-width="0.283465" stroke-miterlimit="10"/>
<path opacity="0.9" d="M17.6766 44.0798L15.0056 39.0687L14.7044 35.7236C14.0625 35.771 13.4314 35.9142 12.832 36.1483V36.2986L13.1201 39.4868L14.9728 42.9234L13.5718 43.3872L13.2772 48.6139L15.1823 50.1231L14.9532 52.6384L15.2281 55.683H17.1398L16.8779 52.8083L17.1856 49.3979L15.2216 47.8626L15.3918 44.8246L17.6766 44.0798Z" fill="url(#paint8_linear)" stroke="black" stroke-width="0.283465" stroke-miterlimit="10"/>
<path d="M67.3072 87.9712L65.6836 70.7559" stroke="#3E4899" stroke-width="0.283465" stroke-linejoin="round"/>
<defs>
<linearGradient id="paint0_linear" x1="45.7496" y1="53.0966" x2="54.4693" y2="84.3679" gradientUnits="userSpaceOnUse">
<stop stop-color="#696968"/>
<stop offset="0.52" stop-color="#959594"/>
<stop offset="0.89" stop-color="#696868"/>
</linearGradient>
<linearGradient id="paint1_linear" x1="62.161" y1="21.2659" x2="71.5006" y2="52.9369" gradientUnits="userSpaceOnUse">
<stop offset="0.22" stop-color="#B3B2B2"/>
<stop offset="0.48" stop-color="#696968"/>
<stop offset="0.58" stop-color="#242423"/>
<stop offset="0.71" stop-color="#242423"/>
<stop offset="0.89" stop-color="#696868"/>
</linearGradient>
<linearGradient id="paint2_linear" x1="672.955" y1="1664.7" x2="844.82" y2="1936.65" gradientUnits="userSpaceOnUse">
<stop stop-color="#696968"/>
<stop offset="0.52" stop-color="#959594"/>
<stop offset="0.89" stop-color="#696868"/>
</linearGradient>
<linearGradient id="paint3_linear" x1="3087.05" y1="2714.39" x2="3405.98" y2="4387.13" gradientUnits="userSpaceOnUse">
<stop offset="0.22" stop-color="#B3B2B2"/>
<stop offset="0.48" stop-color="#696968"/>
<stop offset="0.58" stop-color="#242423"/>
<stop offset="0.71" stop-color="#242423"/>
<stop offset="0.89" stop-color="#696868"/>
</linearGradient>
<linearGradient id="paint4_linear" x1="2078.15" y1="1668.68" x2="2544.92" y2="2801.76" gradientUnits="userSpaceOnUse">
<stop offset="0.22" stop-color="#B3B2B2"/>
<stop offset="0.48" stop-color="#696968"/>
<stop offset="0.58" stop-color="#242423"/>
<stop offset="0.71" stop-color="#242423"/>
<stop offset="0.89" stop-color="#696868"/>
</linearGradient>
<linearGradient id="paint5_linear" x1="62.161" y1="21.2659" x2="71.5006" y2="52.9369" gradientUnits="userSpaceOnUse">
<stop offset="0.22" stop-color="#B3B2B2"/>
<stop offset="0.48" stop-color="#696968"/>
<stop offset="0.58" stop-color="#242423"/>
<stop offset="0.71" stop-color="#242423"/>
<stop offset="0.89" stop-color="#696868"/>
</linearGradient>
<linearGradient id="paint6_linear" x1="890.217" y1="7592.02" x2="1722.83" y2="7514.61" gradientUnits="userSpaceOnUse">
<stop stop-color="#696968"/>
<stop offset="0.52" stop-color="#959594"/>
<stop offset="0.89" stop-color="#696868"/>
</linearGradient>
<linearGradient id="paint7_linear" x1="498.2" y1="2258.57" x2="1392.81" y2="2966.78" gradientUnits="userSpaceOnUse">
<stop stop-color="#696968"/>
<stop offset="0.52" stop-color="#959594"/>
<stop offset="0.89" stop-color="#696868"/>
</linearGradient>
<linearGradient id="paint8_linear" x1="246.751" y1="1666.64" x2="589.984" y2="1791.14" gradientUnits="userSpaceOnUse">
<stop offset="0.22" stop-color="#B3B2B2"/>
<stop offset="0.48" stop-color="#696968"/>
<stop offset="0.58" stop-color="#242423"/>
<stop offset="0.71" stop-color="#242423"/>
<stop offset="0.89" stop-color="#696868"/>
</linearGradient>
</defs>
</svg>
