<svg width="96" height="74" viewBox="0 0 96 74" fill="none" xmlns="http://www.w3.org/2000/svg">
<path opacity="0.9" d="M93.2989 21.6127C93.1769 21.3283 93.0081 21.066 92.7994 20.8363C92.6172 20.6295 92.3938 20.4623 92.1432 20.3453C91.9112 20.2363 91.6538 20.1913 91.3981 20.2152C91.3017 20.2243 91.2065 20.244 91.1145 20.274L60.2744 27.6308C60.5284 27.6308 57.6455 27.9119 57.8699 28.0252C58.0943 28.1386 66.0487 31.5085 65.8709 31.6134L92.6427 24.9575C92.8044 24.8528 92.9474 24.7224 93.0661 24.5714C93.1984 24.4067 93.3041 24.2227 93.3794 24.0258C93.4674 23.8122 93.5258 23.5877 93.5529 23.3585C93.5805 23.1061 93.5805 22.8514 93.5529 22.5989C93.519 22.2594 93.4333 21.9269 93.2989 21.6127Z" fill="url(#paint0_linear)" stroke="black" stroke-width="0.0821853" stroke-linecap="round" stroke-linejoin="round"/>
<path d="M21.311 13.7676H18.6304L18.0283 15.4375H17.1582L19.6016 9.03906H20.3398L22.7876 15.4375H21.9219L21.311 13.7676ZM18.8853 13.0732H21.0605L19.9707 10.0806L18.8853 13.0732Z" fill="#3E4899"/>
<path d="M15.0239 9.40137L5.0332 11.5165" stroke="#3E4899" stroke-width="0.283465" stroke-linejoin="round"/>
<path d="M35.0488 5.16211L21.375 8.05782" stroke="#3E4899" stroke-width="0.283465" stroke-linejoin="round"/>
<path d="M39.0872 23.9177L34.7988 3.99609" stroke="#3E4899" stroke-width="0.283465" stroke-linejoin="round"/>
<path d="M9.07355 30.2709L4.78516 10.3535" stroke="#3E4899" stroke-width="0.283465" stroke-linejoin="round"/>
<path d="M35.0477 6.34993C35.7093 6.34993 36.2457 5.8182 36.2457 5.16227C36.2457 4.50634 35.7093 3.97461 35.0477 3.97461C34.386 3.97461 33.8496 4.50634 33.8496 5.16227C33.8496 5.8182 34.386 6.34993 35.0477 6.34993Z" fill="#3E4899"/>
<path d="M5.03398 12.7034C5.69564 12.7034 6.23202 12.1717 6.23202 11.5158C6.23202 10.8599 5.69564 10.3281 5.03398 10.3281C4.37232 10.3281 3.83594 10.8599 3.83594 11.5158C3.83594 12.1717 4.37232 12.7034 5.03398 12.7034Z" fill="#3E4899"/>
<path d="M50.9673 11.7188V5.32031H53.0591C53.7534 5.32031 54.2749 5.46387 54.6235 5.75098C54.9751 6.03809 55.1509 6.46289 55.1509 7.02539C55.1509 7.32422 55.0659 7.58936 54.896 7.8208C54.7261 8.04932 54.4946 8.22656 54.2017 8.35254C54.5474 8.44922 54.8198 8.63379 55.019 8.90625C55.2212 9.17578 55.3223 9.49805 55.3223 9.87305C55.3223 10.4473 55.1362 10.8984 54.7642 11.2266C54.3921 11.5547 53.8662 11.7188 53.1865 11.7188H50.9673ZM51.811 8.72607V11.0288H53.2041C53.5967 11.0288 53.9058 10.9277 54.1313 10.7256C54.3599 10.5205 54.4741 10.2393 54.4741 9.88184C54.4741 9.11133 54.0552 8.72607 53.2173 8.72607H51.811ZM51.811 8.04932H53.0854C53.4546 8.04932 53.749 7.95703 53.9688 7.77246C54.1914 7.58789 54.3027 7.3374 54.3027 7.021C54.3027 6.66943 54.2002 6.41455 53.9951 6.25635C53.79 6.09521 53.478 6.01465 53.0591 6.01465H51.811V8.04932Z" fill="#3E4899"/>
<path d="M48.0818 5.67773L35.75 8.26289" stroke="#3E4899" stroke-width="0.283465" stroke-linejoin="round"/>
<path d="M62.7929 2.58887L54.4277 4.34727" stroke="#3E4899" stroke-width="0.283465" stroke-linejoin="round"/>
<path d="M66.1348 18.2386L62.5449 1.42676" stroke="#3E4899" stroke-width="0.283465" stroke-linejoin="round"/>
<path d="M39.0899 23.9125L35.5 7.10059" stroke="#3E4899" stroke-width="0.283465" stroke-linejoin="round"/>
<path d="M62.7937 3.77669C63.4554 3.77669 63.9918 3.24495 63.9918 2.58903C63.9918 1.9331 63.4554 1.40137 62.7937 1.40137C62.1321 1.40137 61.5957 1.9331 61.5957 2.58903C61.5957 3.24495 62.1321 3.77669 62.7937 3.77669Z" fill="#3E4899"/>
<path d="M35.7508 9.45051C36.4124 9.45051 36.9488 8.91878 36.9488 8.26285C36.9488 7.60693 36.4124 7.0752 35.7508 7.0752C35.0891 7.0752 34.5527 7.60693 34.5527 8.26285C34.5527 8.91878 35.0891 9.45051 35.7508 9.45051Z" fill="#3E4899"/>
<path d="M45.8807 43.0286V52.7271L38.6078 54.8003V44.9423C24.9086 48.5472 14.2363 51.2834 14.2363 51.2834L15.79 68.3807C15.8413 68.8961 15.8069 69.4164 15.6884 69.9209C15.5897 70.3617 15.4057 70.7793 15.1465 71.1505C15 71.3534 14.8262 71.5356 14.63 71.6919L71.5434 54.0155C71.7364 53.9882 71.9237 53.9301 72.098 53.8434C72.3963 53.6827 72.6506 53.4522 72.8388 53.1719C73.0455 52.8534 73.1892 52.4988 73.2621 52.127C73.3547 51.6954 73.3761 51.2518 73.3256 50.8134L71.7805 36.2383C72.0514 36.0915 60.3165 39.2348 45.8807 43.0286Z" fill="url(#paint1_linear)" stroke="black" stroke-width="0.283465" stroke-linecap="round" stroke-linejoin="round"/>
<path d="M42.9994 51.5181L38.6094 54.7999L45.8823 52.7268L50.5348 49.5205L42.9994 51.5181Z" fill="#251C13" stroke="black" stroke-width="0.283465" stroke-linecap="round" stroke-linejoin="round"/>
<path opacity="0.9" d="M38.6089 44.9427C39.2468 44.5477 39.8302 44.0723 40.3446 43.5284C40.8928 42.89 41.3565 42.1849 41.7247 41.4301C42.1255 40.5983 42.4294 39.724 42.6306 38.824C42.8471 37.8595 42.9564 36.8744 42.9566 35.8863C42.9615 34.5848 42.7674 33.2901 42.3809 32.0463C42.0503 30.9342 41.5244 29.8885 40.8272 28.9576C40.2266 28.1572 39.4527 27.5004 38.5624 27.0355C37.778 26.6386 36.9016 26.4548 36.0224 26.5025L9.4707 32.1177C10.5068 32.0271 11.5487 32.2065 12.4933 32.6381C13.5102 33.1059 14.4183 33.7775 15.1603 34.6105C15.9989 35.5449 16.6717 36.6133 17.15 37.7706C17.6869 39.0393 18.0225 40.3828 18.1449 41.7532C18.24 42.7768 18.213 43.8079 18.0644 44.8252C17.93 45.7577 17.6782 46.6699 17.3151 47.5405C16.986 48.3345 16.5441 49.0779 16.0028 49.7479C15.5096 50.3642 14.9123 50.891 14.2375 51.3049L38.6089 44.9427Z" fill="white"/>
<path opacity="0.9" d="M74.0845 24.7101C73.6596 23.7288 73.0778 22.8219 72.3615 22.0243C71.7231 21.3195 70.9487 20.7487 70.084 20.3456C69.2907 19.9806 68.4155 19.8259 67.5439 19.8966C67.2112 19.9282 66.8831 19.9972 66.566 20.1022L43.3418 24.9745C44.205 24.9294 45.065 25.1103 45.8352 25.4991C46.7095 25.9537 47.4691 26.5978 48.0578 27.3834C48.7357 28.2819 49.2513 29.29 49.5818 30.3631C49.963 31.5862 50.1528 32.86 50.1448 34.1401C50.1468 35.114 50.0403 36.0851 49.8273 37.0358C49.6291 37.9196 49.3309 38.7783 48.9383 39.5958C48.5779 40.3413 48.1226 41.038 47.5836 41.6689C47.0967 42.2131 46.525 42.6764 45.8903 43.0412L71.8027 36.251C72.3651 35.8969 72.8619 35.4498 73.2717 34.9291C73.7182 34.3561 74.0803 33.723 74.347 33.0489C74.642 32.306 74.8411 31.529 74.9396 30.7366C75.0522 29.8677 75.0608 28.9887 74.965 28.1178C74.8478 26.9442 74.5509 25.7951 74.0845 24.7101Z" fill="white"/>
<path opacity="0.9" d="M49.5807 30.3625C49.2502 29.2895 48.7346 28.2813 48.0567 27.3829C47.468 26.5972 46.7084 25.9532 45.8342 25.4986C45.0154 25.084 44.0959 24.9052 43.1798 24.9824L35.8477 26.5268C36.784 26.4448 37.7246 26.6267 38.5612 27.0513C39.4498 27.5114 40.2236 28.1624 40.8261 28.9566C41.518 29.8723 42.0437 30.9005 42.3797 31.995C42.7663 33.2388 42.9604 34.5335 42.9555 35.835C42.9553 36.8231 42.846 37.8082 42.6295 38.7726C42.4283 39.6726 42.1244 40.547 41.7236 41.3788C41.3554 42.1336 40.8917 42.8387 40.3435 43.4771C39.8291 44.021 39.2457 44.4964 38.6078 44.8914L45.8807 42.9777C46.5172 42.6153 47.0892 42.1517 47.5741 41.6054C48.1131 40.9745 48.5683 40.2778 48.9287 39.5322C49.3214 38.7148 49.6196 37.8561 49.8178 36.9723C50.0308 36.0216 50.1373 35.0504 50.1353 34.0766C50.1396 32.818 49.9526 31.5659 49.5807 30.3625Z" fill="url(#paint2_linear)"/>
<path d="M40.4975 48.0857L42.9994 51.5186L38.6094 54.8004V44.9424L40.4975 48.0857Z" fill="url(#paint3_linear)" stroke="black" stroke-width="0.283465" stroke-linecap="round" stroke-linejoin="round"/>
<path d="M42.998 51.5189L40.4961 48.086L48.0315 46.1514L50.5334 49.5213L42.998 51.5189Z" fill="#6F7471" stroke="black" stroke-width="0.283465" stroke-linecap="round" stroke-linejoin="round"/>
<path d="M40.4975 48.0853L38.6094 44.942L45.8823 43.0283L48.0328 46.1507L40.4975 48.0853Z" fill="#646561" stroke="black" stroke-width="0.283465" stroke-linecap="round" stroke-linejoin="round"/>
<path d="M42.9984 55.3622C42.6424 55.3759 42.294 55.4676 41.9781 55.6308C41.6584 55.802 41.3718 56.0279 41.1315 56.2981C40.8744 56.5848 40.6657 56.9107 40.5134 57.2633C40.3535 57.6344 40.2535 58.0281 40.2171 58.43C40.1791 58.8225 40.2092 59.2185 40.306 59.6009C40.3866 59.9455 40.5301 60.2726 40.7293 60.5661C40.9231 60.84 41.1744 61.069 41.4659 61.2376C41.7629 61.4022 42.0953 61.4943 42.4353 61.5062C42.7915 61.5131 43.1447 61.4399 43.4683 61.2921C43.8081 61.1364 44.1143 60.917 44.37 60.6459C44.6448 60.3565 44.8681 60.023 45.0304 59.6596C45.2075 59.2739 45.3164 58.8608 45.3521 58.4384C45.3925 58.0272 45.3581 57.6121 45.2505 57.213C45.1552 56.8557 44.9898 56.5206 44.7637 56.2268C44.5557 55.9551 44.2878 55.734 43.9805 55.5805C43.6723 55.427 43.3304 55.352 42.9857 55.3622" fill="#312A22"/>
<path d="M42.9984 55.3622C42.6424 55.3759 42.294 55.4676 41.9781 55.6308C41.6584 55.802 41.3718 56.0279 41.1315 56.2981C40.8744 56.5848 40.6657 56.9107 40.5134 57.2633C40.3535 57.6344 40.2535 58.0281 40.2171 58.43C40.1791 58.8225 40.2092 59.2185 40.306 59.6009C40.3866 59.9455 40.5301 60.2726 40.7293 60.5661C40.9231 60.84 41.1744 61.069 41.4659 61.2376C41.7629 61.4022 42.0953 61.4943 42.4353 61.5062C42.7915 61.5131 43.1447 61.4399 43.4683 61.2921C43.8081 61.1364 44.1143 60.917 44.37 60.6459C44.6448 60.3565 44.8681 60.023 45.0304 59.6596C45.2075 59.2739 45.3164 58.8608 45.3521 58.4384C45.3925 58.0272 45.3581 57.6121 45.2505 57.213C45.1552 56.8557 44.9898 56.5206 44.7637 56.2268C44.5557 55.9551 44.2878 55.734 43.9805 55.5805C43.6723 55.427 43.3304 55.352 42.9857 55.3622" stroke="black" stroke-miterlimit="10"/>
<path opacity="0.9" d="M38.6089 44.9427C39.2468 44.5477 39.8302 44.0723 40.3446 43.5284C40.8928 42.89 41.3565 42.1849 41.7247 41.4301C42.1255 40.5983 42.4294 39.724 42.6306 38.824C42.8471 37.8595 42.9564 36.8744 42.9566 35.8863C42.9615 34.5848 42.7674 33.2901 42.3809 32.0463C42.0503 30.9342 41.5244 29.8885 40.8272 28.9576C40.2266 28.1572 39.4527 27.5004 38.5624 27.0355C37.778 26.6386 36.9016 26.4548 36.0224 26.5025L9.4707 32.1177C10.5068 32.0271 11.5487 32.2065 12.4933 32.6381C13.5102 33.1059 14.4183 33.7775 15.1603 34.6105C15.9989 35.5449 16.6717 36.6133 17.15 37.7706C17.6869 39.0393 18.0225 40.3828 18.1449 41.7532C18.24 42.7768 18.213 43.8079 18.0644 44.8252C17.93 45.7577 17.6782 46.6699 17.3151 47.5405C16.986 48.3345 16.5441 49.0779 16.0028 49.7479C15.5096 50.3642 14.9123 50.891 14.2375 51.3049L38.6089 44.9427Z" fill="url(#paint4_linear)" stroke="black" stroke-width="0.283465" stroke-linecap="round" stroke-linejoin="round"/>
<path opacity="0.9" d="M74.0845 24.7101C73.6596 23.7288 73.0778 22.8219 72.3615 22.0243C71.7231 21.3195 70.9487 20.7487 70.084 20.3456C69.2907 19.9806 68.4155 19.8259 67.5439 19.8966C67.2112 19.9282 66.8831 19.9972 66.566 20.1022L43.3418 24.9745C44.205 24.9294 45.065 25.1103 45.8352 25.4991C46.7095 25.9537 47.4691 26.5978 48.0578 27.3834C48.7357 28.2819 49.2513 29.29 49.5818 30.3631C49.963 31.5862 50.1528 32.86 50.1448 34.1401C50.1468 35.114 50.0403 36.0851 49.8273 37.0358C49.6291 37.9196 49.3309 38.7783 48.9383 39.5958C48.5779 40.3413 48.1226 41.038 47.5836 41.6689C47.0967 42.2131 46.525 42.6764 45.8903 43.0412L71.8027 36.251C72.3651 35.8969 72.8619 35.4498 73.2717 34.9291C73.7182 34.3561 74.0803 33.723 74.347 33.0489C74.642 32.306 74.8411 31.529 74.9396 30.7366C75.0522 29.8677 75.0608 28.9887 74.965 28.1178C74.8478 26.9442 74.5509 25.7951 74.0845 24.7101Z" fill="url(#paint5_linear)" stroke="black" stroke-width="0.283465" stroke-linecap="round" stroke-linejoin="round"/>
<path opacity="0.9" d="M49.5807 30.3625C49.2502 29.2895 48.7346 28.2813 48.0567 27.3829C47.468 26.5972 46.7084 25.9532 45.8342 25.4986C45.0154 25.084 44.0959 24.9052 43.1798 24.9824L35.8477 26.5268C36.784 26.4448 37.7246 26.6267 38.5612 27.0513C39.4498 27.5114 40.2236 28.1624 40.8261 28.9566C41.518 29.8723 42.0437 30.9005 42.3797 31.995C42.7663 33.2388 42.9604 34.5335 42.9555 35.835C42.9553 36.8231 42.846 37.8082 42.6295 38.7726C42.4283 39.6726 42.1244 40.547 41.7236 41.3788C41.3554 42.1336 40.8917 42.8387 40.3435 43.4771C39.8291 44.021 39.2457 44.4964 38.6078 44.8914L45.8807 42.9777C46.5172 42.6153 47.0892 42.1517 47.5741 41.6054C48.1131 40.9745 48.5683 40.2778 48.9287 39.5322C49.3214 38.7148 49.6196 37.8561 49.8178 36.9723C50.0308 36.0216 50.1373 35.0504 50.1353 34.0766C50.1396 32.818 49.9526 31.5659 49.5807 30.3625Z" fill="url(#paint6_linear)" stroke="black" stroke-width="0.283465" stroke-linecap="round" stroke-linejoin="round"/>
<path d="M9.46882 32.1171C8.45783 32.2131 7.48998 32.5705 6.6621 33.1537C5.80131 33.7677 5.08018 34.5541 4.54541 35.4619C3.95359 36.4576 3.53298 37.544 3.3008 38.6765C3.03837 39.9291 2.96702 41.2136 3.08914 42.4871C3.17567 43.4573 3.36728 44.4155 3.66064 45.345C3.93883 46.2225 4.31363 47.0669 4.77825 47.8631C5.21541 48.6042 5.7429 49.2892 6.34883 49.9026C6.9125 50.4776 7.5587 50.9669 8.26654 51.3547L9.78209 68.0239C9.83144 68.5505 9.95543 69.0676 10.1504 69.5599C10.3364 70.0219 10.5872 70.4556 10.8955 70.8483C11.1787 71.2102 11.5241 71.5199 11.9157 71.7631C12.2777 71.9978 12.6917 72.1418 13.1222 72.1828C13.5181 72.2169 13.9157 72.1398 14.2695 71.9604C14.6263 71.7716 14.9326 71.5011 15.1627 71.1714C15.4219 70.8002 15.6059 70.3826 15.7046 69.9418C15.8231 69.4373 15.8574 68.917 15.8062 68.4016L14.2356 51.2833C14.9104 50.8694 15.5077 50.3426 16.0009 49.7264C16.5422 49.0563 16.9842 48.313 17.3132 47.5189C17.6763 46.6484 17.9281 45.7362 18.0625 44.8037C18.2111 43.7864 18.2381 42.7553 18.143 41.7317C18.0185 40.3684 17.6829 39.0321 17.1481 37.77C16.6677 36.6202 15.995 35.5589 15.1585 34.6309C14.4164 33.7979 13.5083 33.1263 12.4914 32.6585C11.5468 32.2269 10.5049 32.0475 9.46882 32.1381" fill="url(#paint7_linear)"/>
<path d="M9.46882 32.1171C8.45783 32.2131 7.48998 32.5705 6.6621 33.1537C5.80131 33.7677 5.08018 34.5541 4.54541 35.4619C3.95359 36.4576 3.53298 37.544 3.3008 38.6765C3.03837 39.9291 2.96702 41.2136 3.08914 42.4871C3.17567 43.4573 3.36728 44.4155 3.66064 45.345C3.93883 46.2225 4.31363 47.0669 4.77825 47.8631C5.21541 48.6042 5.7429 49.2892 6.34883 49.9026C6.9125 50.4776 7.5587 50.9669 8.26654 51.3547L9.78209 68.0239C9.83144 68.5505 9.95543 69.0676 10.1504 69.5599C10.3364 70.0219 10.5872 70.4556 10.8955 70.8483C11.1787 71.2102 11.5241 71.5199 11.9157 71.7631C12.2777 71.9978 12.6917 72.1418 13.1222 72.1828C13.5181 72.2169 13.9157 72.1398 14.2695 71.9604C14.6263 71.7716 14.9326 71.5011 15.1627 71.1714C15.4219 70.8002 15.6059 70.3826 15.7046 69.9418C15.8231 69.4373 15.8574 68.917 15.8062 68.4016L14.2356 51.2833C14.9104 50.8694 15.5077 50.3426 16.0009 49.7264C16.5422 49.0563 16.9842 48.313 17.3132 47.5189C17.6763 46.6484 17.9281 45.7362 18.0625 44.8037C18.2111 43.7864 18.2381 42.7553 18.143 41.7317C18.0185 40.3684 17.6829 39.0321 17.1481 37.77C16.6677 36.6202 15.995 35.5589 15.1585 34.6309C14.4164 33.7979 13.5083 33.1263 12.4914 32.6585C11.5468 32.2269 10.5049 32.0475 9.46882 32.1381" stroke="black" stroke-width="0.283465" stroke-linecap="round" stroke-linejoin="round"/>
<path d="M9.62627 33.8457C8.83213 33.8801 8.06424 34.1378 7.41222 34.5885C6.72931 35.0665 6.16004 35.6867 5.74427 36.4057C5.27265 37.2196 4.94209 38.1062 4.76637 39.0286C4.55944 40.0659 4.50526 41.1275 4.6055 42.1803C4.70155 43.258 4.94802 44.3173 5.33787 45.3278C5.68432 46.2553 6.16798 47.1265 6.77298 47.913C7.32043 48.626 7.99649 49.2321 8.76689 49.7007C9.47467 50.1314 10.2823 50.3742 11.1122 50.4058C11.912 50.4284 12.7015 50.2215 13.3855 49.8099C14.1074 49.3693 14.7149 48.7671 15.1593 48.0515C15.6777 47.2316 16.0433 46.3262 16.2388 45.3782C16.4712 44.2932 16.5355 43.1795 16.4293 42.0754C16.3359 40.9463 16.0778 39.8366 15.663 38.781C15.2834 37.8215 14.7549 36.9266 14.0967 36.1287C13.5204 35.424 12.808 34.8404 12.0012 34.4123C11.2737 34.0202 10.4539 33.8275 9.62627 33.8541" fill="url(#paint8_linear)"/>
<path d="M9.62627 33.8457C8.83213 33.8801 8.06424 34.1378 7.41222 34.5885C6.72931 35.0665 6.16004 35.6867 5.74427 36.4057C5.27265 37.2196 4.94209 38.1062 4.76637 39.0286C4.55944 40.0659 4.50526 41.1275 4.6055 42.1803C4.70155 43.258 4.94802 44.3173 5.33787 45.3278C5.68432 46.2553 6.16798 47.1265 6.77298 47.913C7.32043 48.626 7.99649 49.2321 8.76689 49.7007C9.47467 50.1314 10.2823 50.3742 11.1122 50.4058C11.912 50.4284 12.7015 50.2215 13.3855 49.8099C14.1074 49.3693 14.7149 48.7671 15.1593 48.0515C15.6777 47.2316 16.0433 46.3262 16.2388 45.3782C16.4712 44.2932 16.5355 43.1795 16.4293 42.0754C16.3359 40.9463 16.0778 39.8366 15.663 38.781C15.2834 37.8215 14.7549 36.9266 14.0967 36.1287C13.5204 35.424 12.808 34.8404 12.0012 34.4123C11.2737 34.0202 10.4539 33.8275 9.62627 33.8541" stroke="black" stroke-width="0.283465" stroke-miterlimit="10"/>
<path opacity="0.9" d="M11.4296 39.2269L9.70235 36.0081L9.50762 33.8594C9.09256 33.8898 8.68444 33.9818 8.29688 34.1322V34.2287L8.48314 36.2767L9.68119 38.4841L8.77524 38.7821L8.58474 42.1394L9.81665 43.1089L9.66849 44.7246L9.84629 46.6802H11.0824L10.9131 44.8337L11.1121 42.643L9.84205 41.6568L9.95212 39.7053L11.4296 39.2269Z" fill="url(#paint9_linear)" stroke="black" stroke-width="0.283465" stroke-miterlimit="10"/>
<path d="M23.1099 29.0303H20.4292L19.8271 30.7002H18.957L21.4004 24.3018H22.1387L24.5864 30.7002H23.7207L23.1099 29.0303ZM20.6841 28.3359H22.8594L21.7695 25.3433L20.6841 28.3359Z" fill="#E30613"/>
<path d="M16.8219 24.6592L8.25781 26.4638" stroke="#E30613" stroke-width="0.283465" stroke-linejoin="round"/>
<path d="M34.8052 20.8701L23.1719 23.321" stroke="#E30613" stroke-width="0.283465" stroke-linejoin="round"/>
<path d="M35.4535 24.6805L34.3867 19.7158" stroke="#E30613" stroke-width="0.283465" stroke-linejoin="round"/>
<path d="M9.07234 30.2706L8.00977 25.3018" stroke="#E30613" stroke-width="0.283465" stroke-linejoin="round"/>
<path d="M34.6375 22.0658C35.2992 22.0658 35.8355 21.534 35.8355 20.8781C35.8355 20.2222 35.2992 19.6904 34.6375 19.6904C33.9758 19.6904 33.4395 20.2222 33.4395 20.8781C33.4395 21.534 33.9758 22.0658 34.6375 22.0658Z" fill="#E30613"/>
<path d="M8.25859 27.6517C8.92025 27.6517 9.45663 27.12 9.45663 26.464C9.45663 25.8081 8.92025 25.2764 8.25859 25.2764C7.59693 25.2764 7.06055 25.8081 7.06055 26.464C7.06055 27.12 7.59693 27.6517 8.25859 27.6517Z" fill="#E30613"/>
<path d="M31.1836 20.3447C31.1045 21.0215 30.854 21.5444 30.4321 21.9136C30.0132 22.2798 29.4551 22.4629 28.7578 22.4629C28.002 22.4629 27.3955 22.1919 26.9385 21.6499C26.4844 21.1079 26.2573 20.3828 26.2573 19.4746V18.8594C26.2573 18.2646 26.3628 17.7417 26.5737 17.2905C26.7876 16.8394 27.0894 16.4937 27.479 16.2534C27.8687 16.0103 28.3198 15.8887 28.8325 15.8887C29.5122 15.8887 30.0571 16.0791 30.4673 16.46C30.8774 16.8379 31.1162 17.3623 31.1836 18.0332H30.3354C30.2622 17.5234 30.1025 17.1543 29.8564 16.9258C29.6133 16.6973 29.272 16.583 28.8325 16.583C28.2935 16.583 27.8701 16.7822 27.5625 17.1807C27.2578 17.5791 27.1055 18.146 27.1055 18.8813V19.501C27.1055 20.1953 27.2505 20.7476 27.5405 21.1577C27.8306 21.5679 28.2363 21.7729 28.7578 21.7729C29.2266 21.7729 29.5854 21.6675 29.8345 21.4565C30.0864 21.2427 30.2534 20.8721 30.3354 20.3447H31.1836Z" fill="#E30613"/>
<path d="M40.5584 12.7744L33.2305 14.3188" stroke="#E30613" stroke-width="0.283465" stroke-linejoin="round"/>
<path d="M42.7828 23.1364L40.3105 11.6123" stroke="#E30613" stroke-width="0.283465" stroke-linejoin="round"/>
<path d="M35.4547 24.6803L32.9824 13.1562" stroke="#E30613" stroke-width="0.283465" stroke-linejoin="round"/>
<path d="M33.2304 14.3193L29.0352 15.2006" stroke="#E30613" stroke-width="0.283465" stroke-linejoin="round"/>
<path d="M40.5594 13.9622C41.221 13.9622 41.7574 13.4305 41.7574 12.7746C41.7574 12.1186 41.221 11.5869 40.5594 11.5869C39.8977 11.5869 39.3613 12.1186 39.3613 12.7746C39.3613 13.4305 39.8977 13.9622 40.5594 13.9622Z" fill="#E30613"/>
<path d="M33.2312 15.5072C33.8929 15.5072 34.4293 14.9754 34.4293 14.3195C34.4293 13.6636 33.8929 13.1318 33.2312 13.1318C32.5696 13.1318 32.0332 13.6636 32.0332 14.3195C32.0332 14.9754 32.5696 15.5072 33.2312 15.5072Z" fill="#E30613"/>
<path d="M50.2446 23.8604V17.4619H52.3364C53.0308 17.4619 53.5522 17.6055 53.9009 17.8926C54.2524 18.1797 54.4282 18.6045 54.4282 19.167C54.4282 19.4658 54.3433 19.731 54.1733 19.9624C54.0034 20.1909 53.772 20.3682 53.479 20.4941C53.8247 20.5908 54.0972 20.7754 54.2964 21.0479C54.4985 21.3174 54.5996 21.6396 54.5996 22.0146C54.5996 22.5889 54.4136 23.04 54.0415 23.3682C53.6694 23.6963 53.1436 23.8604 52.4639 23.8604H50.2446ZM51.0884 20.8677V23.1704H52.4814C52.874 23.1704 53.1831 23.0693 53.4087 22.8672C53.6372 22.6621 53.7515 22.3809 53.7515 22.0234C53.7515 21.2529 53.3325 20.8677 52.4946 20.8677H51.0884ZM51.0884 20.1909H52.3628C52.7319 20.1909 53.0264 20.0986 53.2461 19.9141C53.4688 19.7295 53.5801 19.479 53.5801 19.1626C53.5801 18.811 53.4775 18.5562 53.2725 18.3979C53.0674 18.2368 52.7554 18.1562 52.3364 18.1562H51.0884V20.1909Z" fill="#E30613"/>
<path d="M47.3594 17.8193L42.0508 18.9398" stroke="#E30613" stroke-width="0.283465" stroke-linejoin="round"/>
<path d="M65.2322 14.0547L53.709 16.4804" stroke="#E30613" stroke-width="0.283465" stroke-linejoin="round"/>
<path d="M66.1297 18.2436L64.9824 12.8887" stroke="#E30613" stroke-width="0.283465" stroke-linejoin="round"/>
<path d="M42.7823 23.1369L41.6309 17.7861" stroke="#E30613" stroke-width="0.283465" stroke-linejoin="round"/>
<path d="M65.2332 15.2425C65.8949 15.2425 66.4312 14.7108 66.4312 14.0548C66.4312 13.3989 65.8949 12.8672 65.2332 12.8672C64.5715 12.8672 64.0352 13.3989 64.0352 14.0548C64.0352 14.7108 64.5715 15.2425 65.2332 15.2425Z" fill="#E30613"/>
<path d="M41.8816 20.1361C42.5433 20.1361 43.0797 19.6043 43.0797 18.9484C43.0797 18.2925 42.5433 17.7607 41.8816 17.7607C41.22 17.7607 40.6836 18.2925 40.6836 18.9484C40.6836 19.6043 41.22 20.1361 41.8816 20.1361Z" fill="#E30613"/>
<defs>
<linearGradient id="paint0_linear" x1="75.2563" y1="23.4719" x2="76.6432" y2="28.9501" gradientUnits="userSpaceOnUse">
<stop offset="0.22" stop-color="#B3B2B2"/>
<stop offset="0.48" stop-color="#696968"/>
<stop offset="0.58" stop-color="#242423"/>
<stop offset="0.71" stop-color="#242423"/>
<stop offset="0.89" stop-color="#696868"/>
</linearGradient>
<linearGradient id="paint1_linear" x1="39.8863" y1="42.1599" x2="45.4556" y2="62.2703" gradientUnits="userSpaceOnUse">
<stop stop-color="#696968"/>
<stop offset="0.52" stop-color="#959594"/>
<stop offset="0.89" stop-color="#696868"/>
</linearGradient>
<linearGradient id="paint2_linear" x1="1392.46" y1="1191.66" x2="1762.35" y2="2089.18" gradientUnits="userSpaceOnUse">
<stop offset="0.22" stop-color="#B3B2B2"/>
<stop offset="0.48" stop-color="#696968"/>
<stop offset="0.58" stop-color="#242423"/>
<stop offset="0.71" stop-color="#242423"/>
<stop offset="0.89" stop-color="#696868"/>
</linearGradient>
<linearGradient id="paint3_linear" x1="435.158" y1="1080.23" x2="545.238" y2="1255.58" gradientUnits="userSpaceOnUse">
<stop stop-color="#696968"/>
<stop offset="0.52" stop-color="#959594"/>
<stop offset="0.89" stop-color="#696868"/>
</linearGradient>
<linearGradient id="paint4_linear" x1="1996.19" y1="1754.49" x2="2199.8" y2="2829.47" gradientUnits="userSpaceOnUse">
<stop offset="0.22" stop-color="#B3B2B2"/>
<stop offset="0.48" stop-color="#696968"/>
<stop offset="0.58" stop-color="#242423"/>
<stop offset="0.71" stop-color="#242423"/>
<stop offset="0.89" stop-color="#696868"/>
</linearGradient>
<linearGradient id="paint5_linear" x1="4293.81" y1="1190.69" x2="4481.66" y2="2196.35" gradientUnits="userSpaceOnUse">
<stop offset="0.22" stop-color="#B3B2B2"/>
<stop offset="0.48" stop-color="#696968"/>
<stop offset="0.58" stop-color="#242423"/>
<stop offset="0.71" stop-color="#242423"/>
<stop offset="0.89" stop-color="#696868"/>
</linearGradient>
<linearGradient id="paint6_linear" x1="1392.46" y1="1191.66" x2="1762.35" y2="2089.18" gradientUnits="userSpaceOnUse">
<stop offset="0.22" stop-color="#B3B2B2"/>
<stop offset="0.48" stop-color="#696968"/>
<stop offset="0.58" stop-color="#242423"/>
<stop offset="0.71" stop-color="#242423"/>
<stop offset="0.89" stop-color="#696868"/>
</linearGradient>
<linearGradient id="paint7_linear" x1="-186.667" y1="5548.72" x2="351.67" y2="5498.34" gradientUnits="userSpaceOnUse">
<stop stop-color="#696968"/>
<stop offset="0.52" stop-color="#959594"/>
<stop offset="0.89" stop-color="#696868"/>
</linearGradient>
<linearGradient id="paint8_linear" x1="-295.17" y1="1733.92" x2="280.346" y2="2192.57" gradientUnits="userSpaceOnUse">
<stop stop-color="#696968"/>
<stop offset="0.52" stop-color="#959594"/>
<stop offset="0.89" stop-color="#696868"/>
</linearGradient>
<linearGradient id="paint9_linear" x1="27.3359" y1="1287.32" x2="248.963" y2="1368.3" gradientUnits="userSpaceOnUse">
<stop offset="0.22" stop-color="#B3B2B2"/>
<stop offset="0.48" stop-color="#696968"/>
<stop offset="0.58" stop-color="#242423"/>
<stop offset="0.71" stop-color="#242423"/>
<stop offset="0.89" stop-color="#696868"/>
</linearGradient>
</defs>
</svg>
