<svg width="130" height="101" viewBox="0 0 130 101" fill="none" xmlns="http://www.w3.org/2000/svg">
<g opacity="0.9">
<path opacity="0.9" d="M125.494 43.9903L124.921 37.5578L123.591 22.8486C123.523 21.9889 123.33 21.1438 123.018 20.3398C122.721 19.5796 122.313 18.8674 121.808 18.2262C121.347 17.6354 120.786 17.1295 120.151 16.7312C119.568 16.3631 118.906 16.1392 118.219 16.0782C117.942 16.0568 117.662 16.0703 117.388 16.1183H117.325L117.147 16.1584L107.465 18.2147L112.229 52.2098L122.003 50.1306L122.312 50.0676H122.41C122.621 50.0073 122.826 49.9287 123.023 49.8327C123.603 49.5259 124.101 49.0838 124.474 48.5439C124.892 47.9355 125.192 47.2533 125.357 46.5334C125.54 45.6988 125.587 44.8398 125.494 43.9903Z" fill="url(#paint0_linear)" stroke="black" stroke-width="0.283465" stroke-linecap="round" stroke-linejoin="round"/>
</g>
<path d="M115.364 46.1385L114.791 39.7118L113.461 25.0026C113.393 24.1428 113.2 23.2976 112.888 22.4937C112.586 21.7357 112.179 21.0242 111.678 20.3801C111.207 19.793 110.636 19.2928 109.992 18.9023C109.41 18.5342 108.747 18.3104 108.061 18.2494C107.419 18.1955 106.776 18.3226 106.203 18.616C105.621 18.9205 105.123 19.363 104.753 19.9047C104.334 20.5132 104.035 21.1954 103.87 21.9152C103.679 22.7409 103.623 23.5919 103.704 24.4355L105.085 39.729L105.613 45.5772C105.684 46.4363 105.877 47.281 106.186 48.086C106.487 48.844 106.895 49.5556 107.396 50.1996C107.857 50.7903 108.417 51.2962 109.052 51.6946C109.635 52.0627 110.297 52.2865 110.984 52.3475C111.626 52.3996 112.27 52.2706 112.842 51.9752C113.422 51.6706 113.919 51.2304 114.292 50.6922C114.728 50.0894 115.045 49.409 115.226 48.6874C115.41 47.8508 115.457 46.99 115.364 46.1385Z" fill="url(#paint1_linear)"/>
<path d="M115.364 46.1385L114.791 39.7118L113.461 25.0026C113.393 24.1428 113.2 23.2976 112.888 22.4937C112.586 21.7357 112.179 21.0242 111.678 20.3801C111.207 19.793 110.636 19.2928 109.992 18.9023C109.41 18.5342 108.747 18.3104 108.061 18.2494C107.419 18.1955 106.776 18.3226 106.203 18.616C105.621 18.9205 105.123 19.363 104.753 19.9047C104.334 20.5132 104.035 21.1954 103.87 21.9152C103.679 22.7409 103.623 23.5919 103.704 24.4355L105.085 39.729L105.613 45.5772C105.684 46.4363 105.877 47.281 106.186 48.086C106.487 48.844 106.895 49.5556 107.396 50.1996C107.857 50.7903 108.417 51.2962 109.052 51.6946C109.635 52.0627 110.297 52.2865 110.984 52.3475C111.626 52.3996 112.27 52.2706 112.842 51.9752C113.422 51.6706 113.919 51.2304 114.292 50.6922C114.728 50.0894 115.045 49.409 115.226 48.6874C115.41 47.8508 115.457 46.99 115.364 46.1385Z" stroke="black" stroke-width="0.339752" stroke-linecap="round" stroke-linejoin="round"/>
<path opacity="0.9" d="M112.251 33.1472C111.921 32.3753 111.466 31.6632 110.904 31.0393C110.411 30.48 109.808 30.0277 109.133 29.7104C108.51 29.419 107.823 29.2947 107.138 29.3496C106.877 29.3778 106.619 29.4335 106.37 29.5157L23.3832 49.4717C24.0654 49.4316 16.3091 50.2278 16.9168 50.5371C17.5244 50.8464 38.9188 59.9824 38.4487 60.2745L110.48 42.2144C110.918 41.9345 111.306 41.5819 111.626 41.172C111.976 40.7225 112.258 40.2247 112.463 39.6942C112.694 39.1109 112.85 38.5008 112.928 37.8784C113.008 37.1953 113.008 36.5052 112.928 35.8221C112.84 34.9013 112.612 33.9993 112.251 33.1472Z" fill="url(#paint2_linear)" stroke="black" stroke-width="0.163312" stroke-linecap="round" stroke-linejoin="round"/>
<path d="M27.3442 16.1172H24.6636L24.0615 17.7871H23.1914L25.6348 11.3887H26.373L28.8208 17.7871H27.9551L27.3442 16.1172ZM24.9185 15.4229H27.0938L26.0039 12.4302L24.9185 15.4229Z" fill="#3E4899"/>
<path d="M20.3455 12.8311L6.81641 15.7179" stroke="#3E4899" stroke-width="0.283465" stroke-linejoin="round"/>
<path d="M47.4599 7.0459L28.9434 10.9981" stroke="#3E4899" stroke-width="0.283465" stroke-linejoin="round"/>
<path d="M52.9283 32.6435L47.1211 5.45312" stroke="#3E4899" stroke-width="0.283465" stroke-linejoin="round"/>
<path d="M12.2838 41.3155L6.47656 14.1309" stroke="#3E4899" stroke-width="0.283465" stroke-linejoin="round"/>
<path d="M47.4602 8.66679C48.3562 8.66679 49.0826 7.94105 49.0826 7.0458C49.0826 6.15055 48.3562 5.4248 47.4602 5.4248C46.5642 5.4248 45.8379 6.15055 45.8379 7.0458C45.8379 7.94105 46.5642 8.66679 47.4602 8.66679Z" fill="#3E4899"/>
<path d="M6.81571 17.3387C7.71171 17.3387 8.43806 16.6129 8.43806 15.7177C8.43806 14.8224 7.71171 14.0967 6.81571 14.0967C5.91971 14.0967 5.19336 14.8224 5.19336 15.7177C5.19336 16.6129 5.91971 17.3387 6.81571 17.3387Z" fill="#3E4899"/>
<path d="M68.7563 12.7119V6.31348H70.8481C71.5425 6.31348 72.064 6.45703 72.4126 6.74414C72.7642 7.03125 72.9399 7.45605 72.9399 8.01855C72.9399 8.31738 72.855 8.58252 72.6851 8.81396C72.5151 9.04248 72.2837 9.21973 71.9907 9.3457C72.3364 9.44238 72.6089 9.62695 72.8081 9.89941C73.0103 10.1689 73.1113 10.4912 73.1113 10.8662C73.1113 11.4404 72.9253 11.8916 72.5532 12.2197C72.1812 12.5479 71.6553 12.7119 70.9756 12.7119H68.7563ZM69.6001 9.71924V12.022H70.9932C71.3857 12.022 71.6948 11.9209 71.9204 11.7188C72.1489 11.5137 72.2632 11.2324 72.2632 10.875C72.2632 10.1045 71.8442 9.71924 71.0063 9.71924H69.6001ZM69.6001 9.04248H70.8745C71.2437 9.04248 71.5381 8.9502 71.7578 8.76562C71.9805 8.58105 72.0918 8.33057 72.0918 8.01416C72.0918 7.6626 71.9893 7.40771 71.7842 7.24951C71.5791 7.08838 71.2671 7.00781 70.8481 7.00781H69.6001V9.04248Z" fill="#3E4899"/>
<path d="M65.1134 7.75L48.4141 11.2784" stroke="#3E4899" stroke-width="0.283465" stroke-linejoin="round"/>
<path d="M85.0348 3.53418L73.707 5.93417" stroke="#3E4899" stroke-width="0.283465" stroke-linejoin="round"/>
<path d="M89.5566 24.8932L84.6953 1.94727" stroke="#3E4899" stroke-width="0.283465" stroke-linejoin="round"/>
<path d="M52.9355 32.6374L48.0742 9.69141" stroke="#3E4899" stroke-width="0.283465" stroke-linejoin="round"/>
<path d="M85.0325 5.15508C85.9285 5.15508 86.6549 4.42933 86.6549 3.53408C86.6549 2.63883 85.9285 1.91309 85.0325 1.91309C84.1365 1.91309 83.4102 2.63883 83.4102 3.53408C83.4102 4.42933 84.1365 5.15508 85.0325 5.15508Z" fill="#3E4899"/>
<path d="M48.4134 12.8992C49.3094 12.8992 50.0357 12.1735 50.0357 11.2782C50.0357 10.383 49.3094 9.65723 48.4134 9.65723C47.5174 9.65723 46.791 10.383 46.791 11.2782C46.791 12.1735 47.5174 12.8992 48.4134 12.8992Z" fill="#3E4899"/>
<path d="M62.1311 58.7286V71.9658L52.2823 74.7953V61.3405C33.7314 66.2608 19.2793 69.9954 19.2793 69.9954L21.3832 93.3308C21.4526 94.0343 21.4062 94.7445 21.2456 95.433C21.112 96.0346 20.8628 96.6045 20.5118 97.1112C20.3134 97.3882 20.0781 97.6368 19.8124 97.8501L96.8826 73.7242C97.144 73.687 97.3976 73.6077 97.6336 73.4894C98.0376 73.27 98.382 72.9554 98.6368 72.5729C98.9167 72.1382 99.1113 71.6541 99.2101 71.1467C99.3354 70.5576 99.3644 69.9522 99.2961 69.3538L97.2036 49.4609C97.5705 49.2604 81.6795 53.5506 62.1311 58.7286Z" fill="url(#paint3_linear)" stroke="black" stroke-width="0.283465" stroke-linecap="round" stroke-linejoin="round"/>
<path d="M58.228 70.3153L52.2832 74.7946L62.1319 71.965L68.4322 67.5889L58.228 70.3153Z" fill="#251C13" stroke="black" stroke-width="0.283465" stroke-linecap="round" stroke-linejoin="round"/>
<path opacity="0.9" d="M52.2823 61.3396C53.146 60.8005 53.9361 60.1517 54.6327 59.4093C55.375 58.538 56.003 57.5755 56.5015 56.5454C57.0443 55.4101 57.4558 54.2167 57.7283 52.9883C58.0215 51.6719 58.1695 50.3274 58.1697 48.9788C58.1764 47.2025 57.9135 45.4354 57.3901 43.7378C56.9425 42.2198 56.2302 40.7927 55.2862 39.5221C54.4728 38.4297 53.4248 37.5332 52.2192 36.8987C51.1571 36.357 49.9703 36.106 48.7796 36.1712L12.8242 43.8352C14.2272 43.7116 15.6382 43.9564 16.9174 44.5454C18.2944 45.1839 19.5241 46.1006 20.5289 47.2375C21.6645 48.5128 22.5755 49.9712 23.2233 51.5506C23.9504 53.2823 24.4048 55.1159 24.5705 56.9864C24.6993 58.3834 24.6627 59.7908 24.4616 61.1792C24.2795 62.452 23.9386 63.697 23.4469 64.8852C23.0012 65.969 22.4028 66.9835 21.6697 67.8981C21.0019 68.7392 20.193 69.4582 19.2792 70.0231L52.2823 61.3396Z" fill="white"/>
<path opacity="0.9" d="M100.322 33.7255C99.7468 32.3861 98.9589 31.1483 97.9889 30.0596C97.1244 29.0977 96.0757 28.3186 94.9048 27.7685C93.8306 27.2703 92.6454 27.0591 91.4652 27.1556C91.0145 27.1987 90.5703 27.2929 90.1409 27.4362L58.6914 34.0863C59.8603 34.0247 61.0249 34.2716 62.068 34.8023C63.2518 35.4228 64.2805 36.3018 65.0776 37.3741C65.9956 38.6004 66.6939 39.9764 67.1414 41.4409C67.6576 43.1103 67.9147 44.8489 67.9038 46.5961C67.9066 47.9253 67.7624 49.2507 67.4739 50.5483C67.2055 51.7545 66.8017 52.9266 66.27 54.0423C65.7819 55.0599 65.1654 56.0108 64.4356 56.8719C63.7762 57.6146 63.002 58.2469 62.1425 58.7449L97.2322 49.4772C97.9938 48.9939 98.6666 48.3836 99.2215 47.6729C99.8262 46.8909 100.316 46.0268 100.678 45.1068C101.077 44.0927 101.347 43.0323 101.48 41.9507C101.633 40.7648 101.644 39.5651 101.515 38.3765C101.356 36.7747 100.954 35.2063 100.322 33.7255Z" fill="white"/>
<path opacity="0.9" d="M67.1417 41.4413C66.6942 39.9767 65.9959 38.6007 65.078 37.3745C64.2809 36.3022 63.2522 35.4231 62.0683 34.8027C60.9596 34.2368 59.7144 33.9928 58.4739 34.0981L48.5449 36.206C49.8128 36.0942 51.0866 36.3424 52.2196 36.922C53.4228 37.55 54.4707 38.4384 55.2866 39.5225C56.2235 40.7723 56.9354 42.1756 57.3904 43.6695C57.9139 45.3671 58.1767 47.1342 58.1701 48.9105C58.1699 50.2591 58.0219 51.6036 57.7287 52.92C57.4562 54.1484 57.0446 55.3417 56.5019 56.477C56.0033 57.5072 55.3753 58.4696 54.633 59.341C53.9365 60.0833 53.1464 60.7322 52.2826 61.2713L62.1314 58.6594C62.9932 58.1647 63.7679 57.5319 64.4244 56.7863C65.1543 55.9253 65.7708 54.9743 66.2589 53.9568C66.7906 52.8411 67.1944 51.669 67.4628 50.4627C67.7513 49.1652 67.8955 47.8397 67.8927 46.5105C67.8986 44.7927 67.6454 43.0838 67.1417 41.4413Z" fill="url(#paint4_linear)"/>
<path d="M54.84 65.63L58.228 70.3155L52.2832 74.7947V61.3398L54.84 65.63Z" fill="url(#paint5_linear)" stroke="black" stroke-width="0.283465" stroke-linecap="round" stroke-linejoin="round"/>
<path d="M58.2259 70.3162L54.8379 65.6308L65.0421 62.9902L68.4301 67.5897L58.2259 70.3162Z" fill="#6F7471" stroke="black" stroke-width="0.283465" stroke-linecap="round" stroke-linejoin="round"/>
<path d="M54.84 65.6297L52.2832 61.3395L62.1319 58.7275L65.0442 62.9891L54.84 65.6297Z" fill="#646561" stroke="black" stroke-width="0.283465" stroke-linecap="round" stroke-linejoin="round"/>
<path d="M58.2273 75.5628C57.7454 75.5814 57.2735 75.7066 56.8458 75.9294C56.4128 76.163 56.0247 76.4714 55.6992 76.8401C55.3512 77.2314 55.0685 77.6763 54.8623 78.1575C54.6457 78.664 54.5103 79.2013 54.461 79.7499C54.4096 80.2855 54.4503 80.826 54.5814 81.3479C54.6905 81.8183 54.8848 82.2648 55.1546 82.6654C55.4171 83.0391 55.7574 83.3517 56.1521 83.5818C56.5543 83.8065 57.0044 83.9321 57.4649 83.9484C57.9472 83.9579 58.4255 83.858 58.8637 83.6563C59.3239 83.4438 59.7385 83.1442 60.0847 82.7742C60.4568 82.3792 60.7592 81.9241 60.979 81.4281C61.2189 80.9016 61.3663 80.3378 61.4147 79.7613C61.4693 79.2001 61.4227 78.6336 61.2771 78.0888C61.148 77.6012 60.924 77.1438 60.6179 76.7427C60.3361 76.3719 59.9734 76.0702 59.5573 75.8606C59.1399 75.6512 58.677 75.5488 58.2101 75.5628" fill="#312A22"/>
<path d="M58.2273 75.5628C57.7454 75.5814 57.2735 75.7066 56.8458 75.9294C56.4128 76.163 56.0247 76.4714 55.6992 76.8401C55.3512 77.2314 55.0685 77.6763 54.8623 78.1575C54.6457 78.664 54.5103 79.2013 54.461 79.7499C54.4096 80.2855 54.4503 80.826 54.5814 81.3479C54.6905 81.8183 54.8848 82.2648 55.1546 82.6654C55.4171 83.0391 55.7574 83.3517 56.1521 83.5818C56.5543 83.8065 57.0044 83.9321 57.4649 83.9484C57.9472 83.9579 58.4255 83.858 58.8637 83.6563C59.3239 83.4438 59.7385 83.1442 60.0847 82.7742C60.4568 82.3792 60.7592 81.9241 60.979 81.4281C61.2189 80.9016 61.3663 80.3378 61.4147 79.7613C61.4693 79.2001 61.4227 78.6336 61.2771 78.0888C61.148 77.6012 60.924 77.1438 60.6179 76.7427C60.3361 76.3719 59.9734 76.0702 59.5573 75.8606C59.1399 75.6512 58.677 75.5488 58.2101 75.5628" stroke="black" stroke-miterlimit="10"/>
<path opacity="0.9" d="M52.2823 61.3396C53.146 60.8005 53.9361 60.1517 54.6327 59.4093C55.375 58.538 56.003 57.5755 56.5015 56.5454C57.0443 55.4101 57.4558 54.2167 57.7283 52.9883C58.0215 51.6719 58.1695 50.3274 58.1697 48.9788C58.1764 47.2025 57.9135 45.4354 57.3901 43.7378C56.9425 42.2198 56.2302 40.7927 55.2862 39.5221C54.4728 38.4297 53.4248 37.5332 52.2192 36.8987C51.1571 36.357 49.9703 36.106 48.7796 36.1712L12.8242 43.8352C14.2272 43.7116 15.6382 43.9564 16.9174 44.5454C18.2944 45.1839 19.5241 46.1006 20.5289 47.2375C21.6645 48.5128 22.5755 49.9712 23.2233 51.5506C23.9504 53.2823 24.4048 55.1159 24.5705 56.9864C24.6993 58.3834 24.6627 59.7908 24.4616 61.1792C24.2795 62.452 23.9386 63.697 23.4469 64.8852C23.0012 65.969 22.4028 66.9835 21.6697 67.8981C21.0019 68.7392 20.193 69.4582 19.2792 70.0231L52.2823 61.3396Z" fill="url(#paint6_linear)" stroke="black" stroke-width="0.283465" stroke-linecap="round" stroke-linejoin="round"/>
<path opacity="0.9" d="M100.322 33.7255C99.7468 32.3861 98.9589 31.1483 97.9889 30.0596C97.1244 29.0977 96.0757 28.3186 94.9048 27.7685C93.8306 27.2703 92.6454 27.0591 91.4652 27.1556C91.0145 27.1987 90.5703 27.2929 90.1409 27.4362L58.6914 34.0863C59.8603 34.0247 61.0249 34.2716 62.068 34.8023C63.2518 35.4228 64.2805 36.3018 65.0776 37.3741C65.9956 38.6004 66.6939 39.9764 67.1414 41.4409C67.6576 43.1103 67.9147 44.8489 67.9038 46.5961C67.9066 47.9253 67.7624 49.2507 67.4739 50.5483C67.2055 51.7545 66.8017 52.9266 66.27 54.0423C65.7819 55.0599 65.1654 56.0108 64.4356 56.8719C63.7762 57.6146 63.002 58.2469 62.1425 58.7449L97.2322 49.4772C97.9938 48.9939 98.6666 48.3836 99.2215 47.6729C99.8262 46.8909 100.316 46.0268 100.678 45.1068C101.077 44.0927 101.347 43.0323 101.48 41.9507C101.633 40.7648 101.644 39.5651 101.515 38.3765C101.356 36.7747 100.954 35.2063 100.322 33.7255Z" fill="url(#paint7_linear)" stroke="black" stroke-width="0.283465" stroke-linecap="round" stroke-linejoin="round"/>
<path opacity="0.9" d="M67.1417 41.4413C66.6942 39.9767 65.9959 38.6007 65.078 37.3745C64.2809 36.3022 63.2522 35.4231 62.0683 34.8027C60.9596 34.2368 59.7144 33.9928 58.4739 34.0981L48.5449 36.206C49.8128 36.0942 51.0866 36.3424 52.2196 36.922C53.4228 37.55 54.4707 38.4384 55.2866 39.5225C56.2235 40.7723 56.9354 42.1756 57.3904 43.6695C57.9139 45.3671 58.1767 47.1342 58.1701 48.9105C58.1699 50.2591 58.0219 51.6036 57.7287 52.92C57.4562 54.1484 57.0446 55.3417 56.5019 56.477C56.0033 57.5072 55.3753 58.4696 54.633 59.341C53.9365 60.0833 53.1464 60.7322 52.2826 61.2713L62.1314 58.6594C62.9932 58.1647 63.7679 57.5319 64.4244 56.7863C65.1543 55.9253 65.7708 54.9743 66.2589 53.9568C66.7906 52.8411 67.1944 51.669 67.4628 50.4627C67.7513 49.1652 67.8955 47.8397 67.8927 46.5105C67.8986 44.7927 67.6454 43.0838 67.1417 41.4413Z" fill="url(#paint8_linear)" stroke="black" stroke-width="0.283465" stroke-linecap="round" stroke-linejoin="round"/>
<path d="M12.823 43.8356C11.454 43.9665 10.1433 44.4544 9.02224 45.2504C7.85659 46.0884 6.88006 47.1617 6.1559 48.4007C5.35447 49.7597 4.78489 51.2425 4.47049 52.7883C4.11511 54.4978 4.01849 56.251 4.18386 57.9892C4.30104 59.3134 4.5605 60.6212 4.95777 61.8899C5.33449 63.0875 5.84202 64.24 6.4712 65.3267C7.06319 66.3382 7.77749 67.2732 8.59802 68.1104C9.36133 68.8951 10.2364 69.5629 11.1949 70.0923L13.2472 92.8435C13.3141 93.5622 13.482 94.268 13.746 94.9399C13.9979 95.5705 14.3376 96.1625 14.7549 96.6983C15.1385 97.1924 15.6062 97.615 16.1365 97.947C16.6267 98.2673 17.1873 98.4639 17.7703 98.5198C18.3064 98.5663 18.8448 98.4611 19.3239 98.2162C19.8071 97.9586 20.2218 97.5895 20.5335 97.1394C20.8845 96.6327 21.1337 96.0627 21.2672 95.4611C21.4278 94.7726 21.4743 94.0625 21.4048 93.359L19.278 69.9949C20.1918 69.43 21.0007 68.711 21.6685 67.8698C22.4016 66.9553 23 65.9408 23.4457 64.857C23.9374 63.6688 24.2783 62.4238 24.4603 61.151C24.6615 59.7625 24.6981 58.3552 24.5693 56.9582C24.4007 55.0974 23.9463 53.2736 23.2221 51.5511C22.5715 49.9817 21.6606 48.5332 20.5277 47.2666C19.5229 46.1296 18.2932 45.213 16.9161 44.5745C15.637 43.9855 14.226 43.7406 12.823 43.8642" fill="url(#paint9_linear)"/>
<path d="M12.823 43.8356C11.454 43.9665 10.1433 44.4544 9.02224 45.2504C7.85659 46.0884 6.88006 47.1617 6.1559 48.4007C5.35447 49.7597 4.78489 51.2425 4.47049 52.7883C4.11511 54.4978 4.01849 56.251 4.18386 57.9892C4.30104 59.3134 4.5605 60.6212 4.95777 61.8899C5.33449 63.0875 5.84202 64.24 6.4712 65.3267C7.06319 66.3382 7.77749 67.2732 8.59802 68.1104C9.36133 68.8951 10.2364 69.5629 11.1949 70.0923L13.2472 92.8435C13.3141 93.5622 13.482 94.268 13.746 94.9399C13.9979 95.5705 14.3376 96.1625 14.7549 96.6984C15.1385 97.1924 15.6062 97.615 16.1365 97.947C16.6267 98.2673 17.1873 98.4639 17.7703 98.5198C18.3064 98.5663 18.8448 98.4611 19.3239 98.2162C19.8071 97.9586 20.2218 97.5894 20.5335 97.1394C20.8845 96.6327 21.1337 96.0627 21.2672 95.4611C21.4278 94.7726 21.4743 94.0625 21.4048 93.359L19.278 69.9949C20.1918 69.43 21.0007 68.711 21.6685 67.8698C22.4016 66.9553 23 65.9408 23.4457 64.857C23.9374 63.6688 24.2783 62.4238 24.4603 61.151C24.6615 59.7625 24.6981 58.3552 24.5693 56.9582C24.4007 55.0974 23.9463 53.2736 23.2221 51.5511C22.5715 49.9817 21.6606 48.5332 20.5277 47.2666C19.5229 46.1296 18.2932 45.213 16.9161 44.5745C15.637 43.9855 14.226 43.7406 12.823 43.8642" stroke="black" stroke-width="0.283465" stroke-linecap="round" stroke-linejoin="round"/>
<path d="M13.037 46.1953C11.9616 46.2423 10.9218 46.5939 10.0388 47.2091C9.11403 47.8615 8.34315 48.708 7.78013 49.6893C7.14147 50.8003 6.69384 52.0104 6.45588 53.2693C6.17567 54.6851 6.1023 56.134 6.23804 57.5709C6.3681 59.0418 6.70187 60.4876 7.22979 61.8668C7.69894 63.1327 8.3539 64.3219 9.17317 65.3952C9.9145 66.3684 10.83 67.1957 11.8733 67.8353C12.8317 68.4231 13.9254 68.7545 15.0492 68.7976C16.1323 68.8285 17.2013 68.546 18.1276 67.9842C19.1051 67.383 19.9278 66.5609 20.5296 65.5842C21.2316 64.4653 21.7268 63.2295 21.9914 61.9356C22.3062 60.4548 22.3932 58.9347 22.2494 57.4277C22.1229 55.8867 21.7734 54.3721 21.2118 52.9313C20.6977 51.6217 19.982 50.4003 19.0907 49.3113C18.3103 48.3495 17.3455 47.553 16.253 46.9686C15.2679 46.4335 14.1577 46.1705 13.037 46.2068" fill="url(#paint10_linear)"/>
<path d="M13.037 46.1953C11.9616 46.2423 10.9218 46.5939 10.0388 47.2091C9.11403 47.8615 8.34315 48.708 7.78013 49.6893C7.14147 50.8003 6.69384 52.0104 6.45588 53.2693C6.17567 54.6851 6.1023 56.134 6.23804 57.5709C6.3681 59.0418 6.70187 60.4876 7.22979 61.8668C7.69894 63.1327 8.3539 64.3219 9.17317 65.3952C9.9145 66.3684 10.83 67.1957 11.8733 67.8353C12.8317 68.4231 13.9254 68.7545 15.0492 68.7976C16.1323 68.8285 17.2013 68.546 18.1276 67.9842C19.1051 67.383 19.9278 66.5609 20.5296 65.5842C21.2316 64.4653 21.7268 63.2295 21.9914 61.9356C22.3062 60.4548 22.3932 58.9347 22.2494 57.4277C22.1229 55.8867 21.7734 54.3721 21.2118 52.9313C20.6977 51.6217 19.982 50.4003 19.0907 49.3113C18.3103 48.3495 17.3455 47.553 16.253 46.9686C15.2679 46.4335 14.1577 46.1705 13.037 46.2068" stroke="black" stroke-width="0.283465" stroke-miterlimit="10"/>
<path opacity="0.9" d="M15.4785 53.5389L13.1396 49.1456L12.8759 46.2129C12.3138 46.2545 11.7612 46.38 11.2363 46.5852V46.7169L11.4886 49.5122L13.1109 52.525L11.8841 52.9317L11.6262 57.514L13.2944 58.8372L13.0937 61.0424L13.3345 63.7116H15.0084L14.7791 61.1913L15.0486 58.2014L13.3288 56.8553L13.4778 54.1919L15.4785 53.5389Z" fill="url(#paint11_linear)" stroke="black" stroke-width="0.283465" stroke-miterlimit="10"/>
<path d="M29.7798 36.9482H27.0991L26.4971 38.6182H25.627L28.0703 32.2197H28.8086L31.2563 38.6182H30.3906L29.7798 36.9482ZM27.354 36.2539H29.5293L28.4395 33.2612L27.354 36.2539Z" fill="#E30613"/>
<path d="M23.8548 33.4277L11.1855 36.1198" stroke="#E30613" stroke-width="0.283465" stroke-linejoin="round"/>
<path d="M47.134 28.4844L30.3086 32.0586" stroke="#E30613" stroke-width="0.283465" stroke-linejoin="round"/>
<path d="M48.011 33.6853L46.5664 26.9092" stroke="#E30613" stroke-width="0.283465" stroke-linejoin="round"/>
<path d="M12.2846 41.315L10.8457 34.5332" stroke="#E30613" stroke-width="0.283465" stroke-linejoin="round"/>
<path d="M46.9056 30.117C47.8016 30.117 48.5279 29.3912 48.5279 28.496C48.5279 27.6007 47.8016 26.875 46.9056 26.875C46.0096 26.875 45.2832 27.6007 45.2832 28.496C45.2832 29.3912 46.0096 30.117 46.9056 30.117Z" fill="#E30613"/>
<path d="M11.1848 37.741C12.0808 37.741 12.8072 37.0153 12.8072 36.12C12.8072 35.2248 12.0808 34.499 11.1848 34.499C10.2889 34.499 9.5625 35.2248 9.5625 36.12C9.5625 37.0153 10.2889 37.741 11.1848 37.741Z" fill="#E30613"/>
<path d="M40.2988 25.2246C40.2197 25.9014 39.9692 26.4243 39.5474 26.7935C39.1284 27.1597 38.5703 27.3428 37.873 27.3428C37.1172 27.3428 36.5107 27.0718 36.0537 26.5298C35.5996 25.9878 35.3726 25.2627 35.3726 24.3545V23.7393C35.3726 23.1445 35.478 22.6216 35.689 22.1704C35.9028 21.7192 36.2046 21.3735 36.5942 21.1333C36.9839 20.8901 37.4351 20.7686 37.9478 20.7686C38.6274 20.7686 39.1724 20.959 39.5825 21.3398C39.9927 21.7178 40.2314 22.2422 40.2988 22.9131H39.4507C39.3774 22.4033 39.2178 22.0342 38.9717 21.8057C38.7285 21.5771 38.3872 21.4629 37.9478 21.4629C37.4087 21.4629 36.9854 21.6621 36.6777 22.0605C36.373 22.459 36.2207 23.0259 36.2207 23.7612V24.3809C36.2207 25.0752 36.3657 25.6274 36.6558 26.0376C36.9458 26.4478 37.3516 26.6528 37.873 26.6528C38.3418 26.6528 38.7007 26.5474 38.9497 26.3364C39.2017 26.1226 39.3687 25.752 39.4507 25.2246H40.2988Z" fill="#E30613"/>
<path d="M54.9252 17.4355L45.002 19.5434" stroke="#E30613" stroke-width="0.283465" stroke-linejoin="round"/>
<path d="M57.9358 31.5774L54.5879 15.8486" stroke="#E30613" stroke-width="0.283465" stroke-linejoin="round"/>
<path d="M48.0119 33.6858L44.6641 17.957" stroke="#E30613" stroke-width="0.283465" stroke-linejoin="round"/>
<path d="M45.0032 19.543L39.4941 20.7115" stroke="#E30613" stroke-width="0.283465" stroke-linejoin="round"/>
<path d="M54.9251 19.0564C55.8211 19.0564 56.5474 18.3307 56.5474 17.4354C56.5474 16.5402 55.8211 15.8145 54.9251 15.8145C54.0291 15.8145 53.3027 16.5402 53.3027 17.4354C53.3027 18.3307 54.0291 19.0564 54.9251 19.0564Z" fill="#E30613"/>
<path d="M45.0013 21.1648C45.8973 21.1648 46.6236 20.4391 46.6236 19.5438C46.6236 18.6486 45.8973 17.9229 45.0013 17.9229C44.1053 17.9229 43.3789 18.6486 43.3789 19.5438C43.3789 20.4391 44.1053 21.1648 45.0013 21.1648Z" fill="#E30613"/>
<path d="M67.7759 29.2822V22.8838H69.8677C70.562 22.8838 71.0835 23.0273 71.4321 23.3145C71.7837 23.6016 71.9595 24.0264 71.9595 24.5889C71.9595 24.8877 71.8745 25.1528 71.7046 25.3843C71.5347 25.6128 71.3032 25.79 71.0103 25.916C71.356 26.0127 71.6284 26.1973 71.8276 26.4697C72.0298 26.7393 72.1309 27.0615 72.1309 27.4365C72.1309 28.0107 71.9448 28.4619 71.5728 28.79C71.2007 29.1182 70.6748 29.2822 69.9951 29.2822H67.7759ZM68.6196 26.2896V28.5923H70.0127C70.4053 28.5923 70.7144 28.4912 70.9399 28.2891C71.1685 28.084 71.2827 27.8027 71.2827 27.4453C71.2827 26.6748 70.8638 26.2896 70.0259 26.2896H68.6196ZM68.6196 25.6128H69.894C70.2632 25.6128 70.5576 25.5205 70.7773 25.3359C71 25.1514 71.1113 24.9009 71.1113 24.5845C71.1113 24.2329 71.0088 23.978 70.8037 23.8198C70.5986 23.6587 70.2866 23.5781 69.8677 23.5781H68.6196V25.6128Z" fill="#E30613"/>
<path d="M65.3819 24.0566L56.9434 25.8495" stroke="#E30613" stroke-width="0.283465" stroke-linejoin="round"/>
<path d="M88.3365 19.1826L71.4824 22.7626" stroke="#E30613" stroke-width="0.283465" stroke-linejoin="round"/>
<path d="M89.5516 24.8986L87.998 17.5898" stroke="#E30613" stroke-width="0.283465" stroke-linejoin="round"/>
<path d="M57.9343 31.5775L56.375 24.2744" stroke="#E30613" stroke-width="0.283465" stroke-linejoin="round"/>
<path d="M88.3352 20.8035C89.2312 20.8035 89.9576 20.0778 89.9576 19.1825C89.9576 18.2873 89.2312 17.5615 88.3352 17.5615C87.4392 17.5615 86.7129 18.2873 86.7129 19.1825C86.7129 20.0778 87.4392 20.8035 88.3352 20.8035Z" fill="#E30613"/>
<path d="M56.7141 27.4822C57.6101 27.4822 58.3365 26.7565 58.3365 25.8612C58.3365 24.966 57.6101 24.2402 56.7141 24.2402C55.8181 24.2402 55.0918 24.966 55.0918 25.8612C55.0918 26.7565 55.8181 27.4822 56.7141 27.4822Z" fill="#E30613"/>
<defs>
<linearGradient id="paint0_linear" x1="116.441" y1="13643.8" x2="116.441" y2="13471.1" gradientUnits="userSpaceOnUse">
<stop offset="0.22" stop-color="#B3B2B2"/>
<stop offset="0.48" stop-color="#696968"/>
<stop offset="0.58" stop-color="#242423"/>
<stop offset="0.71" stop-color="#242423"/>
<stop offset="0.89" stop-color="#696868"/>
</linearGradient>
<linearGradient id="paint1_linear" x1="103.669" y1="35.2784" x2="115.398" y2="35.2784" gradientUnits="userSpaceOnUse">
<stop stop-color="#696968"/>
<stop offset="0.52" stop-color="#959594"/>
<stop offset="0.89" stop-color="#696868"/>
</linearGradient>
<linearGradient id="paint2_linear" x1="10694.2" y1="2091.64" x2="10764.1" y2="2940.25" gradientUnits="userSpaceOnUse">
<stop offset="0.22" stop-color="#B3B2B2"/>
<stop offset="0.48" stop-color="#696968"/>
<stop offset="0.58" stop-color="#242423"/>
<stop offset="0.71" stop-color="#242423"/>
<stop offset="0.89" stop-color="#696868"/>
</linearGradient>
<linearGradient id="paint3_linear" x1="7561.85" y1="4911.32" x2="7971.86" y2="7339.07" gradientUnits="userSpaceOnUse">
<stop stop-color="#696968"/>
<stop offset="0.52" stop-color="#959594"/>
<stop offset="0.89" stop-color="#696868"/>
</linearGradient>
<linearGradient id="paint4_linear" x1="1885.63" y1="1626.46" x2="2393.3" y2="2848.64" gradientUnits="userSpaceOnUse">
<stop offset="0.22" stop-color="#B3B2B2"/>
<stop offset="0.48" stop-color="#696968"/>
<stop offset="0.58" stop-color="#242423"/>
<stop offset="0.71" stop-color="#242423"/>
<stop offset="0.89" stop-color="#696868"/>
</linearGradient>
<linearGradient id="paint5_linear" x1="589.276" y1="1474.37" x2="740.032" y2="1712.62" gradientUnits="userSpaceOnUse">
<stop stop-color="#696968"/>
<stop offset="0.52" stop-color="#959594"/>
<stop offset="0.89" stop-color="#696868"/>
</linearGradient>
<linearGradient id="paint6_linear" x1="2703.18" y1="2394.65" x2="2983.11" y2="3861.04" gradientUnits="userSpaceOnUse">
<stop offset="0.22" stop-color="#B3B2B2"/>
<stop offset="0.48" stop-color="#696968"/>
<stop offset="0.58" stop-color="#242423"/>
<stop offset="0.71" stop-color="#242423"/>
<stop offset="0.89" stop-color="#696868"/>
</linearGradient>
<linearGradient id="paint7_linear" x1="5814.53" y1="1625.12" x2="6072.82" y2="2996.99" gradientUnits="userSpaceOnUse">
<stop offset="0.22" stop-color="#B3B2B2"/>
<stop offset="0.48" stop-color="#696968"/>
<stop offset="0.58" stop-color="#242423"/>
<stop offset="0.71" stop-color="#242423"/>
<stop offset="0.89" stop-color="#696868"/>
</linearGradient>
<linearGradient id="paint8_linear" x1="1885.63" y1="1626.46" x2="2393.3" y2="2848.64" gradientUnits="userSpaceOnUse">
<stop offset="0.22" stop-color="#B3B2B2"/>
<stop offset="0.48" stop-color="#696968"/>
<stop offset="0.58" stop-color="#242423"/>
<stop offset="0.71" stop-color="#242423"/>
<stop offset="0.89" stop-color="#696868"/>
</linearGradient>
<linearGradient id="paint9_linear" x1="448.25" y1="6960.56" x2="1177.14" y2="6892.88" gradientUnits="userSpaceOnUse">
<stop stop-color="#696968"/>
<stop offset="0.52" stop-color="#959594"/>
<stop offset="0.89" stop-color="#696868"/>
</linearGradient>
<linearGradient id="paint10_linear" x1="167.814" y1="2114.2" x2="951.914" y2="2734.18" gradientUnits="userSpaceOnUse">
<stop stop-color="#696968"/>
<stop offset="0.52" stop-color="#959594"/>
<stop offset="0.89" stop-color="#696868"/>
</linearGradient>
<linearGradient id="paint11_linear" x1="158.566" y1="1566.19" x2="459.314" y2="1675.18" gradientUnits="userSpaceOnUse">
<stop offset="0.22" stop-color="#B3B2B2"/>
<stop offset="0.48" stop-color="#696968"/>
<stop offset="0.58" stop-color="#242423"/>
<stop offset="0.71" stop-color="#242423"/>
<stop offset="0.89" stop-color="#696868"/>
</linearGradient>
</defs>
</svg>
