<svg width="30" height="30" viewBox="0 0 30 30" fill="none" xmlns="http://www.w3.org/2000/svg">
<path d="M15 30C23.2843 30 30 23.2843 30 15C30 6.71573 23.2843 0 15 0C6.71573 0 0 6.71573 0 15C0 23.2843 6.71573 30 15 30Z" fill="#6F3FAA"/>
<path d="M21.5071 8.22918C17.856 7.34735 14.1984 6.31586 10.4541 7.62637C8.02989 8.53545 8.02989 11.1617 8.13091 13.384C8.13091 13.99 7.42386 14.7981 7.72685 15.5052C8.33288 17.5254 8.83796 19.5456 10.9592 20.5557C11.2622 20.7577 10.9592 21.1617 11.1612 21.4647C11.0602 21.4647 10.8582 21.5658 10.8582 21.6668C10.8582 22.1509 11.0754 22.8915 10.9311 23.3689L17.3768 29.8119C24.0031 28.7566 29.1821 23.3626 29.9108 16.6329L21.5071 8.22918Z" fill="#512D84"/>
<path d="M22.9351 10.5423L22.9302 10.5225C22.5294 8.90222 20.7225 7.16362 19.0631 6.80192L19.0445 6.79806C16.3605 6.28606 13.6391 6.28606 10.9558 6.79806L10.9365 6.80192C9.2777 7.16362 7.47072 8.90233 7.06941 10.5225L7.06496 10.5423C6.56949 12.805 6.56949 15.0998 7.06496 17.3625L7.06941 17.3823C7.45367 18.9334 9.126 20.5922 10.7234 21.0483V22.857C10.7234 23.5117 11.5212 23.8332 11.9748 23.3608L13.8073 21.4559C14.2048 21.4781 14.6025 21.4906 15.0001 21.4906C16.3511 21.4906 17.7027 21.3628 19.0444 21.1068L19.0631 21.103C20.7225 20.7413 22.5294 19.0026 22.9302 17.3824L22.9351 17.3626C23.4305 15.0998 23.4305 12.8051 22.9351 10.5423ZM21.4849 17.0344C21.2173 18.0915 19.8454 19.4057 18.7553 19.6485C17.3282 19.9199 15.8898 20.0359 14.4529 19.9961C14.4243 19.9952 14.3968 20.0064 14.3769 20.0269C14.173 20.2362 13.0389 21.4004 13.0389 21.4004L11.6158 22.8611C11.5118 22.9696 11.3289 22.8957 11.3289 22.746V19.7497C11.3289 19.7002 11.2936 19.6582 11.245 19.6486C11.2447 19.6485 11.2445 19.6485 11.2442 19.6484C10.1541 19.4056 8.78264 18.0915 8.51457 17.0344C8.06861 14.9891 8.06861 12.9157 8.51457 10.8704C8.78264 9.81335 10.1541 8.49921 11.2442 8.2564C13.7365 7.78237 16.2635 7.78237 18.7554 8.2564C19.846 8.49921 21.2173 9.81335 21.4849 10.8704C21.9314 12.9158 21.9314 14.9892 21.4849 17.0344Z" fill="white"/>
<path d="M17.3709 18.4176C17.2033 18.3667 17.0437 18.3325 16.8952 18.2711C15.3583 17.6334 13.9438 16.8107 12.8234 15.5497C12.1863 14.8327 11.6876 14.0231 11.2661 13.1663C11.0662 12.76 10.8977 12.3379 10.726 11.9183C10.5694 11.5358 10.8 11.1407 11.0428 10.8524C11.2707 10.5819 11.564 10.3749 11.8815 10.2223C12.1294 10.1032 12.3738 10.1719 12.5549 10.3819C12.9462 10.8362 13.3057 11.3136 13.5967 11.8401C13.7757 12.1639 13.7266 12.5598 13.4022 12.7802C13.3233 12.8337 13.2515 12.8967 13.178 12.9571C13.1136 13.0102 13.053 13.0637 13.0088 13.1355C12.9281 13.2668 12.9243 13.4218 12.9762 13.5646C13.3762 14.6638 14.0504 15.5187 15.157 15.9792C15.3341 16.0529 15.5118 16.1386 15.7159 16.1149C16.0575 16.075 16.1681 15.7002 16.4075 15.5044C16.6415 15.3131 16.9405 15.3106 17.1925 15.4701C17.4447 15.6297 17.689 15.8009 17.9319 15.9741C18.1704 16.144 18.4078 16.3101 18.6277 16.5039C18.8392 16.6901 18.912 16.9345 18.7929 17.1872C18.5749 17.6501 18.2577 18.0352 17.8001 18.281C17.6709 18.3503 17.5166 18.3727 17.3709 18.4176C17.2033 18.3667 17.5166 18.3727 17.3709 18.4176Z" fill="white"/>
<path d="M15.0039 9.69318C17.0142 9.74954 18.6654 11.0837 19.0193 13.0712C19.0796 13.4098 19.101 13.756 19.1278 14.0998C19.1392 14.2443 19.0572 14.3817 18.9013 14.3836C18.7401 14.3855 18.6676 14.2507 18.6571 14.1062C18.6364 13.8202 18.6221 13.5328 18.5826 13.2492C18.3746 11.7516 17.1804 10.5126 15.6898 10.2468C15.4654 10.2068 15.236 10.1963 15.0087 10.1724C14.8651 10.1574 14.677 10.1487 14.6452 9.97009C14.6185 9.82038 14.7448 9.70121 14.8874 9.69353C14.926 9.69124 14.965 9.69306 15.0039 9.69318C17.0143 9.74954 14.965 9.69306 15.0039 9.69318Z" fill="white"/>
<path d="M18.059 13.6523C18.0557 13.6775 18.054 13.7365 18.0392 13.792C17.9859 13.9938 17.6798 14.0191 17.6094 13.8154C17.5885 13.755 17.5854 13.6862 17.5853 13.6212C17.5846 13.1955 17.4921 12.7701 17.2773 12.3996C17.0566 12.0188 16.7193 11.6988 16.3239 11.505C16.0847 11.388 15.8261 11.3151 15.564 11.2718C15.4494 11.2528 15.3337 11.2414 15.2185 11.2254C15.079 11.206 15.0045 11.1171 15.0112 10.9796C15.0173 10.8508 15.1115 10.7581 15.2519 10.7661C15.7132 10.7922 16.1588 10.8921 16.569 11.1092C17.4031 11.551 17.8796 12.2481 18.0187 13.1791C18.0249 13.2214 18.035 13.2631 18.0382 13.3054C18.0461 13.4098 18.0511 13.5144 18.059 13.6523C18.0557 13.6773 18.0511 13.5144 18.059 13.6523Z" fill="white"/>
<path d="M16.8089 13.6049C16.6407 13.608 16.5507 13.5148 16.5333 13.3607C16.5213 13.2533 16.5117 13.1443 16.486 13.0396C16.4355 12.8335 16.326 12.6426 16.1527 12.5164C16.0709 12.4568 15.9781 12.4134 15.881 12.3852C15.7577 12.3496 15.6295 12.3594 15.5065 12.3293C15.3729 12.2965 15.2989 12.1883 15.3199 12.0629C15.3391 11.9488 15.45 11.8597 15.5748 11.8688C16.3542 11.9251 16.9112 12.328 16.9908 13.2456C16.9964 13.3103 17.003 13.3787 16.9886 13.4408C16.9639 13.5466 16.8854 13.5998 16.8089 13.6049C16.6407 13.6079 16.8854 13.5998 16.8089 13.6049Z" fill="white"/>
<path d="M22.9355 10.5419L22.9305 10.5221C22.7059 9.61387 22.0392 8.66852 21.2045 7.94922L20.076 8.9493C20.7471 9.48396 21.322 10.2246 21.4853 10.87C21.9318 12.9153 21.9318 14.9887 21.4853 17.0341C21.2177 18.0912 19.8458 19.4053 18.7557 19.6481C17.3287 19.9195 15.8903 20.0355 14.4533 19.9957C14.4247 19.9949 14.3972 20.006 14.3774 20.0265C14.1734 20.2358 13.0394 21.4001 13.0394 21.4001L11.6163 22.8607C11.5122 22.9692 11.3294 22.8954 11.3294 22.7456V19.7494C11.3294 19.6998 11.2941 19.6578 11.2454 19.6482C11.2451 19.6482 11.2449 19.6481 11.2446 19.6481C10.6251 19.5101 9.915 19.026 9.36797 18.4398L8.25293 19.4279C8.94932 20.1855 9.8475 20.7979 10.7237 21.0481V22.8568C10.7237 23.5114 11.5215 23.8329 11.9751 23.3605L13.8076 21.4557C14.2051 21.4779 14.6027 21.4903 15.0004 21.4903C16.3513 21.4903 17.703 21.3625 19.0447 21.1066L19.0634 21.1028C20.7227 20.7411 22.5296 19.0025 22.9304 17.3822L22.9354 17.3624C23.4309 15.0994 23.4309 12.8048 22.9355 10.5419Z" fill="#D1D1D1"/>
<path d="M17.3711 18.4178C17.5168 18.3729 17.2035 18.3669 17.3711 18.4178V18.4178Z" fill="white"/>
<path d="M18.6284 16.5047C18.4085 16.311 18.171 16.1448 17.9326 15.9749C17.6897 15.8017 17.4454 15.6305 17.1932 15.4709C16.9412 15.3114 16.6422 15.3139 16.4082 15.5052C16.1688 15.701 16.0582 16.0758 15.7166 16.1157C15.5126 16.1394 15.3348 16.0536 15.1577 15.98C14.4769 15.6968 13.9603 15.2637 13.5699 14.7168L12.7402 15.4521C12.7684 15.4848 12.7953 15.5183 12.824 15.5505C13.9444 16.8115 15.3589 17.6342 16.8958 18.2719C17.0441 18.3334 17.2039 18.3676 17.3714 18.4184C17.2039 18.3675 17.5172 18.3736 17.3714 18.4184C17.5172 18.3736 17.6714 18.351 17.8007 18.2818C18.2584 18.0359 18.5756 17.6508 18.7936 17.1879C18.9127 16.9353 18.8399 16.6909 18.6284 16.5047Z" fill="#D1D1D1"/>
<path d="M15.0049 9.69336C15.0066 9.69336 15.0082 9.69354 15.0099 9.69354C15.1215 9.69752 16.936 9.7475 15.0049 9.69336Z" fill="white"/>
<path d="M17.8869 10.8877L17.5332 11.2012C18.0891 11.7421 18.4724 12.4588 18.582 13.2476C18.6214 13.5313 18.6358 13.8186 18.6565 14.1047C18.667 14.2492 18.7394 14.384 18.9007 14.3822C19.0567 14.3802 19.1386 14.2429 19.1273 14.0983C19.1004 13.7546 19.079 13.4083 19.0187 13.0697C18.8638 12.1997 18.4603 11.4549 17.8869 10.8877Z" fill="#D1D1D1"/>
<path d="M18.0184 13.1782C17.9171 12.4998 17.6356 11.9462 17.1682 11.5244L16.8154 11.837C16.9978 11.9989 17.1556 12.189 17.2771 12.3987C17.4919 12.7692 17.5844 13.1946 17.5851 13.6204C17.5852 13.6854 17.5883 13.7542 17.6093 13.8147C17.6797 14.0185 17.9857 13.9932 18.039 13.7913C18.0538 13.7356 18.0555 13.6766 18.0588 13.6516C18.0555 13.6767 18.0508 13.5137 18.0588 13.6516C18.0508 13.5137 18.0458 13.4091 18.0379 13.3046C18.0348 13.2621 18.0247 13.2204 18.0184 13.1782Z" fill="#D1D1D1"/>
<path d="M18.0601 13.6547C18.0521 13.5168 18.0567 13.6798 18.0601 13.6547V13.6547Z" fill="white"/>
<path d="M16.8096 13.6063C16.8122 13.6061 16.8147 13.6048 16.8173 13.6045C16.8102 13.6045 16.7993 13.6047 16.7881 13.6051C16.7954 13.6053 16.802 13.6064 16.8096 13.6063Z" fill="white"/>
<path d="M16.8094 13.6057C16.8018 13.6058 16.7952 13.6047 16.7879 13.6045C16.7515 13.6055 16.7139 13.6074 16.8094 13.6057Z" fill="white"/>
<path d="M16.8172 13.6045C16.8146 13.6048 16.8121 13.6061 16.8096 13.6063C16.8292 13.605 16.8275 13.6045 16.8172 13.6045Z" fill="white"/>
<path d="M16.4538 12.1592L16.0947 12.4775C16.1145 12.4895 16.1339 12.502 16.1527 12.5157C16.3261 12.6419 16.4356 12.8328 16.4861 13.0389C16.5117 13.1436 16.5212 13.2524 16.5334 13.36C16.5499 13.5072 16.6336 13.5978 16.7874 13.603C16.7986 13.6028 16.8096 13.6025 16.8166 13.6025C16.8907 13.5943 16.9649 13.5423 16.9886 13.4399C17.003 13.378 16.9964 13.3095 16.9908 13.2447C16.9461 12.7318 16.7522 12.3798 16.4538 12.1592Z" fill="#D1D1D1"/>
</svg>
