<!-- Generated by IcoMoon.io -->
<svg version="1.1" xmlns="http://www.w3.org/2000/svg" width="1024" height="1024" viewBox="0 0 1024 1024">
<title></title>
<g id="icomoon-ignore">
</g>
<path d="M511.982 73.156c-241.996 0-438.857 196.861-438.857 438.857s196.861 438.86 438.857 438.86c241.996 0 438.86-196.864 438.86-438.86s-196.864-438.857-438.86-438.857zM720.698 739.008c-7.136 7.13-16.493 10.72-25.856 10.72s-18.733-3.59-25.856-10.72l-182.858-182.852c-6.877-6.837-10.714-16.132-10.714-25.855v-237.716c0-20.223 16.38-36.57 36.569-36.57s36.569 16.346 36.569 36.57v222.576l172.147 172.135c14.298 14.304 14.298 37.414 0 51.712z"></path>
</svg>
