<!-- Generated by IcoMoon.io -->
<svg version="1.1" xmlns="http://www.w3.org/2000/svg" width="796" height="1024" viewBox="0 0 796 1024">
<title></title>
<g id="icomoon-ignore">
</g>
<path d="M424.977 856.097c38.533-30.684 77.079-65.376 112.938-103.226 99.876-105.425 158.974-213.771 158.974-316.732 0-79.214-31.466-155.179-87.48-211.189-56.010-56.011-131.975-87.477-211.187-87.477s-155.178 31.466-211.189 87.477c-56.011 56.011-87.477 131.978-87.477 211.189 0 102.961 59.098 211.307 158.974 316.732 35.858 37.85 74.405 72.542 112.938 103.226 9.446 7.522 18.403 14.409 26.755 20.629 8.352-6.22 17.309-13.107 26.755-20.629zM782.222 436.139c0 129.337-68.902 255.659-182.359 375.419-38.809 40.965-80.262 78.273-121.729 111.293-14.539 11.578-28.070 21.813-40.264 30.619-7.444 5.376-12.881 9.142-15.98 11.208-14.332 9.554-33.003 9.554-47.334 0-3.099-2.066-8.536-5.832-15.98-11.208-12.193-8.806-25.725-19.042-40.264-30.619-41.467-33.020-82.921-70.328-121.729-111.293-113.457-119.76-182.359-246.082-182.359-375.419 0-101.843 40.457-199.515 112.471-271.529s169.686-112.471 271.529-112.471c101.843 0 199.514 40.457 271.526 112.47 72.018 72.012 112.474 169.684 112.474 271.53z"></path>
<path d="M398.222 592.583c-86.402 0-156.444-70.043-156.444-156.444s70.043-156.444 156.444-156.444c86.402 0 156.444 70.043 156.444 156.444s-70.043 156.444-156.444 156.444zM398.222 507.25c39.274 0 71.111-31.838 71.111-71.111s-31.838-71.111-71.111-71.111c-39.274 0-71.111 31.838-71.111 71.111s31.838 71.111 71.111 71.111z"></path>
</svg>
