<!-- Generated by IcoMoon.io -->
<svg version="1.1" xmlns="http://www.w3.org/2000/svg" width="1023" height="1024" viewBox="0 0 1023 1024">
<title></title>
<g id="icomoon-ignore">
</g>
<path fill="#000" d="M902.039 936.487c6.821-2.305 13.091-6.015 18.407-10.892s9.556-10.812 12.443-17.412c2.889-6.608 4.364-13.741 4.333-20.951v-141.423c0.26-13.962-4.096-26.201-12.239-35.81-8.181-9.653-19.608-15.977-32.127-17.782-48.313-6.394-95.732-18.214-141.446-35.277-9.265-3.483-19.337-4.237-29.015-2.172-9.654 2.060-18.515 6.831-25.548 13.756l-59.69 59.696c-13.488 13.489-34.326 16.302-50.908 6.874-124.501-70.793-227.582-173.874-298.374-298.375-9.428-16.581-6.615-37.419 6.873-50.906l59.695-59.694c6.924-7.030 11.697-15.892 13.755-25.542 2.065-9.684 1.311-19.756-2.209-29.12-17.030-45.637-28.85-93.052-35.237-141.343-1.79-12.38-8.001-23.696-17.488-31.855-9.529-8.195-21.711-12.645-34.277-12.521-0.093 0.001-47.299 0.002-141.619 0.002-7.189 0.007-14.297 1.51-20.875 4.416s-12.479 7.149-17.325 12.457c-4.847 5.31-8.536 11.572-10.832 18.389-2.264 6.721-3.123 13.836-2.524 20.904 14.796 138.772 62.044 272.118 137.924 389.251 69.148 108.813 161.143 200.808 269.646 269.758 116.92 75.817 249.6 123.052 387.724 138.126 7.073 0.594 14.193-0.272 20.931-2.553zM1021.966 886.967c0.068 18.983-3.824 37.768-11.433 55.172-7.618 17.414-18.789 33.048-32.794 45.899-14.015 12.859-30.56 22.648-48.553 28.728-18.010 6.095-37.099 8.358-56.039 6.646-152.153-16.523-297.585-68.243-425.38-151.078-118.879-75.578-219.681-176.38-295.255-295.258-83.127-128.373-134.86-274.515-151.010-426.597-1.771-19.541 0.473-38.567 6.524-56.531s15.774-34.469 28.552-48.467c12.779-13.999 28.333-25.184 45.673-32.844s36.083-11.624 55.077-11.642h141.052c33.049-0.27 65.078 11.458 90.141 33.012 25.12 21.603 41.528 51.604 46.165 84.41 5.597 42.422 15.878 83.692 30.664 123.316 9.186 24.434 11.173 50.99 5.729 76.52-5.445 25.529-18.093 48.962-36.447 67.523l-36.595 36.595c56.623 89.882 132.677 165.936 222.559 222.56l36.424-36.428c18.737-18.523 42.164-31.168 67.689-36.614 25.528-5.448 52.089-3.46 76.429 5.691 39.699 14.817 80.971 25.098 123.026 30.649 33.534 4.729 63.818 21.431 85.47 46.98 21.553 25.433 33.049 57.864 32.332 91.182v140.576z"></path>
</svg>
