<svg width="65" height="65" viewBox="0 0 65 65" fill="none" xmlns="http://www.w3.org/2000/svg">
<g clip-path="url(#clip0)">
<path d="M2.89935 31.295C3.74716 31.795 4.61672 32.2732 5.50076 32.7225L4.89932 33.8892C4.00078 33.4254 3.1095 32.9399 2.2327 32.4254L2.89935 31.295ZM8.17463 34.0196C9.07316 34.4254 9.99343 34.8094 10.9065 35.1718L10.4282 36.3891C9.4862 36.0268 8.55143 35.6283 7.63116 35.2152L8.17463 34.0196ZM13.7035 36.1862C14.6455 36.5051 15.5875 36.7949 16.544 37.0558L16.189 38.3094C15.218 38.034 14.247 37.7442 13.2832 37.4181L13.7035 36.1862ZM19.4208 37.7876C20.3846 38.0123 21.3628 38.2079 22.3338 38.3818L22.1019 39.6717C21.1092 39.4905 20.1164 39.2949 19.1237 39.0702L19.4208 37.7876ZM25.2685 38.8384C26.254 38.9688 27.2395 39.0702 28.2178 39.1499L28.1163 40.4543C27.1091 40.3746 26.1018 40.2659 25.1019 40.1354L25.2685 38.8384ZM31.196 39.3166C32.1887 39.3528 33.1814 39.3601 34.1669 39.3456L34.1814 40.6499C33.1669 40.6644 32.1597 40.6572 31.1452 40.6137L31.196 39.3166ZM37.1379 39.2441C38.1234 39.1862 39.1161 39.1065 40.1016 38.9905L40.2393 40.2876C39.2321 40.3963 38.2248 40.476 37.2176 40.5412L37.1379 39.2441ZM43.0508 38.6065C44.0291 38.4543 45.0001 38.2804 45.9711 38.0775L46.2319 39.3528C45.2464 39.5557 44.2392 39.7369 43.2465 39.8891L43.0508 38.6065ZM48.8623 37.4036C49.8188 37.1572 50.7753 36.8819 51.7173 36.592L52.1086 37.8384C51.1449 38.1355 50.1666 38.4181 49.1884 38.6717L48.8623 37.4036ZM54.5361 35.6428C55.4709 35.3022 56.3839 34.9399 57.297 34.5486L57.8042 35.7514C56.8694 36.15 55.9347 36.5196 54.9782 36.8674L54.5361 35.6428ZM60.0071 33.3312C60.8983 32.9037 61.7751 32.4472 62.6374 31.9617L63.2679 33.0993C62.3838 33.5921 61.4853 34.0558 60.5723 34.5051L60.0071 33.3312Z" fill="#E64444"/>
<path d="M56.6151 29.7813L56.2745 31.0349L62.4846 32.7232L60.3542 38.7956L61.586 39.2304L64.1874 31.832L56.6151 29.7813Z" fill="#E64444"/>
</g>
<defs>
<clipPath id="clip0">
<rect width="65" height="65" fill="white" transform="translate(65 65) rotate(-180)"/>
</clipPath>
</defs>
</svg>
