<!-- Generated by IcoMoon.io -->
<svg version="1.1" xmlns="http://www.w3.org/2000/svg" width="1024" height="1024" viewBox="0 0 1024 1024">
<title></title>
<g id="icomoon-ignore">
</g>
<path d="M625.021 16.52c-13.534-13.534-36.102-11.114-46.478 4.924l-447.755 691.982c-11.968-7.373-27.204-5.484-36.992 4.306l-84.994 84.998c-11.736 11.736-11.736 30.76 0 42.496l169.992 169.99c11.726 11.73 30.764 11.736 42.498 0l84.996-84.992c10.042-10.047 11.462-25.412 4.316-36.995l154.392-99.903 49.47 76.646c9.002 13.943 27.54 17.914 41.452 9.011l196.904-126.077c14.006-8.966 18.068-27.625 9.045-41.603l-50.113-77.648 290.822-188.179c16.043-10.38 18.455-32.95 4.927-46.478l-382.481-382.48zM542.026 188.51l293.484 293.484c-32.654 21.132-533.232 345.034-567.65 367.306l-93.138-93.138 367.304-567.651zM200.042 951.472l-127.494-127.494 42.498-42.502 127.494 127.494-42.498 42.502zM695.017 718.552l-146.291 93.673-33.272-51.547 145.84-94.373 33.724 52.247zM887.114 448.604l-311.7-311.698 33.394-51.604 329.91 329.912-51.604 33.39z"></path>
<path d="M894.743 171.766l90.664-90.662c11.736-11.734 11.736-30.762 0-42.498-11.736-11.734-30.76-11.734-42.496 0l-90.664 90.662c-11.736 11.734-11.736 30.762 0 42.498s30.76 11.734 42.496 0z"></path>
<path d="M767.033 106.367c14.308 8.264 32.711 3.438 41.045-10.998l29.047-50.314c8.3-14.372 3.374-32.75-10.997-41.050-14.376-8.302-32.751-3.376-41.051 10.998l-29.047 50.314c-8.3 14.372-3.374 32.752 11.002 41.050z"></path>
<path d="M978.898 186.893l-50.313 29.046c-14.37 8.298-19.297 26.676-10.997 41.050 8.323 14.418 26.715 19.276 41.051 10.998l50.313-29.046c14.37-8.298 19.297-26.676 10.997-41.050-8.3-14.37-26.675-19.298-41.051-10.998z"></path>
</svg>
