<!-- Generated by IcoMoon.io -->
<svg version="1.1" xmlns="http://www.w3.org/2000/svg" width="1317" height="1024" viewBox="0 0 1317 1024">
<title></title>
<g id="icomoon-ignore">
</g>
<path d="M1152.146 18.286c90.889 0 164.571 73.682 164.571 164.571v658.286c0 90.888-73.683 164.571-164.571 164.571h-987.432c-90.889 0-164.571-73.683-164.571-164.571v-658.286c0-90.89 73.681-164.571 164.571-164.571h987.432zM1152.146 128h-987.432c-30.296 0-54.857 24.56-54.857 54.857v658.286c0 30.295 24.561 54.857 54.857 54.857h987.432c30.295 0 54.857-24.562 54.857-54.857v-658.286c0-30.296-24.561-54.857-54.857-54.857z"></path>
<path d="M55 457.143c-30.297 0-54.857-24.56-54.857-54.857s24.56-54.857 54.857-54.857h1206.861c30.297 0 54.857 24.56 54.857 54.857s-24.56 54.857-54.857 54.857h-1206.861z"></path>
</svg>
