<!-- Generated by IcoMoon.io -->
<svg version="1.1" xmlns="http://www.w3.org/2000/svg" width="1152" height="1024" viewBox="0 0 1152 1024">
<title></title>
<g id="icomoon-ignore">
</g>
<path d="M768.128 32c26.51 0 48 21.49 48 48v624c0 26.51-21.49 48-48 48h-720.003c-26.51 0-48-21.49-48-48v-624c0-26.51 21.49-48 48-48h720.003zM720.128 128h-624.003v528h624.003v-528z"></path>
<path d="M816.128 656h240v-172.118l-115.882-115.882h-124.118v288zM768.128 272h192c12.73 0 24.939 5.057 33.941 14.059l144 144c9.002 9.002 14.059 21.211 14.059 33.941v240c0 26.51-21.49 48-48 48h-336c-26.51 0-48-21.49-48-48v-384c0-26.51 21.49-48 48-48z"></path>
<path d="M264 992c-92.783 0-168-75.218-168-168s75.217-168 168-168c92.783 0 168 75.218 168 168s-75.217 168-168 168zM264 896c39.763 0 72-32.237 72-72s-32.237-72-72-72c-39.763 0-72 32.237-72 72s32.237 72 72 72z"></path>
<path d="M888.128 992c-92.786 0-168-75.217-168-168s75.214-168 168-168c92.782 0 168 75.218 168 168s-75.218 168-168 168zM888.128 896c39.762 0 72-32.238 72-72s-32.238-72-72-72c-39.766 0-72 32.235-72 72s32.234 72 72 72z"></path>
</svg>
