<!-- Generated by IcoMoon.io -->
<svg version="1.1" xmlns="http://www.w3.org/2000/svg" width="1024" height="1024" viewBox="0 0 1024 1024">
<title></title>
<g id="icomoon-ignore">
</g>
<path d="M748.001 1024c-55.706 0-108.652-16.22-154.25-47.094-147.743 25.83-302.868-18.514-415.509-131.149-112.586-112.594-156.984-267.704-131.148-415.507-30.875-45.602-47.094-98.547-47.094-154.25 0-152.187 123.812-276 276-276 55.704 0 108.648 16.219 154.25 47.094 322.057-56.297 603.166 223.43 546.656 546.657 30.874 45.599 47.094 98.545 47.094 154.25 0 152.187-123.812 275.999-275.999 275.999zM627.732 902.764c34.657 26.977 76.242 41.236 120.269 41.236 108.068 0 195.999-87.921 195.999-195.999 0-44.027-14.259-85.612-41.236-120.269-7.265-9.334-10.030-21.407-7.537-32.968 59.971-279.179-188.749-525.554-465.993-465.991-11.554 2.484-23.632-0.273-32.969-7.539-34.656-26.977-76.242-41.234-120.266-41.234-108.070 0-196 87.922-196 196 0 44.024 14.258 85.609 41.234 120.266 7.266 9.336 10.031 21.406 7.539 32.969-59.836 278.555 188.101 525.687 465.991 465.993 11.51-2.478 23.593 0.241 32.968 7.537zM709.335 630.001c0-108.017-136.556-141.032-167.117-150.415-63.312-19.429-147.554-41.094-147.554-85.586 0-42.281 53.734-78 117.336-78 50.601 0 96.732 22.914 112.195 55.718 9.421 19.977 33.26 28.547 53.243 19.125 19.978-9.422 28.539-33.25 19.123-53.235-31.473-66.774-109.747-101.609-184.561-101.609-116.39 0-197.336 75.687-197.336 158 0 108.016 136.555 141.030 167.117 150.415 63.314 19.43 147.554 41.093 147.554 85.586 0 42.281-53.734 77.998-117.335 77.998-50.601 0-96.734-22.912-112.195-55.716-9.422-19.978-33.258-28.549-53.242-19.128-19.977 9.426-28.539 33.249-19.125 53.238 31.477 66.77 109.75 101.606 184.563 101.606 116.393 0 197.335-75.684 197.335-157.998z"></path>
</svg>
