<!-- Generated by IcoMoon.io -->
<svg version="1.1" xmlns="http://www.w3.org/2000/svg" width="1144" height="1024" viewBox="0 0 1144 1024">
<title></title>
<g id="icomoon-ignore">
</g>
<path d="M1121.271 213.023c-23.959-16.010-56.368-9.567-72.379 14.396l-95.892 143.504c-22.88-75.959-64.292-145.56-121.955-203.228-189.859-189.862-498.79-189.862-688.651 0-189.858 189.861-189.858 498.784 0 688.643 94.931 94.928 219.629 142.396 344.325 142.396s249.395-47.468 344.326-142.396c20.381-20.378 20.381-53.42 0-73.797-20.381-20.381-53.42-20.378-73.8-0.006-149.17 149.17-391.882 149.17-541.051 0.006-149.165-149.17-149.165-391.882 0-541.046 149.173-149.168 391.888-149.165 541.051-0.004 46.044 46.051 78.887 101.793 96.672 162.618l-159.060-106.276c-23.965-16.007-56.371-9.564-72.385 14.4s-9.565 56.371 14.399 72.384l255.621 170.794c8.906 5.948 18.98 8.797 28.943 8.797 16.842 0 33.379-8.141 43.439-23.197l170.797-255.609c16.011-23.96 9.565-56.366-14.399-72.38z"></path>
</svg>
