<!-- Generated by IcoMoon.io -->
<svg version="1.1" xmlns="http://www.w3.org/2000/svg" width="1024" height="1024" viewBox="0 0 1024 1024">
<title></title>
<g id="icomoon-ignore">
</g>
<path d="M880.41 649.274c-53.734 0-106.496-8.403-156.499-24.927-24.499-8.356-54.618-0.69-69.574 14.668l-98.687 74.502c-114.453-61.094-184.954-131.574-245.214-245.167l72.308-96.119c18.787-18.761 25.525-46.167 17.452-71.881-16.594-50.263-25.024-103.001-25.024-156.761 0.003-38.837-31.593-70.432-70.428-70.432h-161.188c-38.834 0-70.429 31.595-70.429 70.429 0 445.143 362.144 807.288 807.284 807.288 38.835 0 70.432-31.597 70.432-70.432v-160.736c0-38.835-31.597-70.432-70.432-70.432z"></path>
</svg>
