<!-- Generated by IcoMoon.io -->
<svg version="1.1" xmlns="http://www.w3.org/2000/svg" width="1024" height="1024" viewBox="0 0 1024 1024">
<title></title>
<g id="icomoon-ignore">
</g>
<path d="M541.764 80.657v-33.995c0-18.776-15.219-33.995-33.995-33.995h-473.774c-18.776 0-33.995 15.22-33.995 33.995v33.995c0 18.776 15.22 33.995 33.995 33.995h473.774c18.776 0 33.995-15.219 33.995-33.995z"></path>
<path d="M443.93 226.833h-409.934c-18.776 0-33.995 15.22-33.995 33.995v33.995c0 18.776 15.22 33.995 33.995 33.995h409.934c18.776 0 33.995-15.219 33.995-33.995v-33.995c0-18.775-15.219-33.995-33.995-33.995z"></path>
<path d="M380.083 441h-346.088c-18.776 0-33.995 15.219-33.995 33.995v33.995c0 18.776 15.22 33.995 33.995 33.995h346.088c18.776 0 33.995-15.219 33.995-33.995v-33.995c0-18.776-15.219-33.995-33.995-33.995z"></path>
<path d="M316.24 679h-282.245c-18.776 0-33.995 15.22-33.995 33.995v33.995c0 18.776 15.22 33.996 33.995 33.996h282.245c18.772 0 33.995-15.22 33.995-33.996v-33.995c0-18.775-15.219-33.995-33.995-33.995z"></path>
<path d="M252.394 893.167h-218.399c-18.776 0-33.995 15.223-33.995 33.997v33.997c0 18.773 15.22 33.988 33.995 33.988h218.399c18.772 0 33.995-15.215 33.995-33.988v-33.997c0-18.773-15.219-33.997-33.995-33.997z"></path>
<path d="M1014.016 737.246l-24.038-24.038c-6.374-6.374-15.027-9.958-24.038-9.958-9.020 0-17.664 3.583-24.047 9.958l-116.916 116.919v-766.466c0-18.775-15.219-33.995-33.995-33.995h-33.995c-18.776 0-33.995 15.22-33.995 33.995v766.463l-116.919-116.919c-6.378-6.374-15.023-9.958-24.038-9.958s-17.664 3.583-24.038 9.958l-24.042 24.038c-13.272 13.275-13.272 34.801 0 48.076l215.991 215.991c6.64 6.639 15.339 9.958 24.038 9.958s17.402-3.319 24.038-9.958l215.995-215.991c13.269-13.274 13.269-34.801 0-48.073z"></path>
</svg>
