<!-- Generated by IcoMoon.io -->
<svg version="1.1" xmlns="http://www.w3.org/2000/svg" width="1024" height="1024" viewBox="0 0 1024 1024">
<title></title>
<g id="icomoon-ignore">
</g>
<path d="M459.487 917.781c-253.108 0-458.293-205.185-458.293-458.293s205.185-458.293 458.293-458.293c253.107 0 458.293 205.186 458.293 458.293s-205.186 458.293-458.293 458.293zM459.487 841.399c210.922 0 381.911-170.989 381.911-381.911s-170.989-381.911-381.911-381.911c-210.924 0-381.911 170.987-381.911 381.911s170.987 381.911 381.911 381.911z"></path>
<path d="M1011.651 957.602c14.915 14.914 14.915 39.096 0.001 54.010s-39.096 14.915-54.010 0.001l-228.433-228.428c-14.915-14.914-14.915-39.096-0.001-54.010s39.096-14.915 54.010-0.001l228.433 228.428z"></path>
</svg>
