<!-- Generated by IcoMoon.io -->
<svg version="1.1" xmlns="http://www.w3.org/2000/svg" width="1024" height="1024" viewBox="0 0 1024 1024">
<title></title>
<g id="icomoon-ignore">
</g>
<path d="M444.55 397.576c39.501-42.844 61.265-100.316 61.265-161.842 0-117.145-83.674-235.734-243.626-235.734-74.438 0-137.235 25.567-181.613 73.937-39.309 42.851-60.952 100.309-60.952 161.797 0 117.158 83.319 235.74 242.564 235.74 74.716 0.003 137.788-25.545 182.36-73.898zM262.189 109.608c87.64 0 127.553 65.423 127.553 126.209 0 33.066-11.126 63.676-31.348 86.18-22.559 25.137-55.344 38.428-94.784 38.428-89.857 0-130.791-65.416-130.791-126.196 0-62.022 40.008-124.621 129.37-124.621z"></path>
<path d="M843.923 90.927c-14.496 0.262-34.291 9.3-43.981 20.078l-719.557 800.015c-9.692 10.79-2.826 25.907 11.669 25.907h94.177c14.496 0 34.267-8.838 43.943-19.635l715.105-799.856c9.67-10.803 9.030-28.381-14.918-28.374l-86.438 1.865z"></path>
<path d="M765.325 561.5c-73.005 0-134.61 25.094-178.148 72.541-38.559 42.022-59.802 98.394-59.802 158.714 0 114.918 81.736 231.251 237.95 231.251 73.312 0 135.168-25.069 178.906-72.493 38.752-42.035 60.096-98.413 60.096-158.758-0.006-114.912-82.093-231.255-239.002-231.255zM766.733 917.888c-87.424 0-127.255-65.651-127.255-126.618 0-33.203 11.121-63.93 31.325-86.522 22.522-25.21 55.206-38.534 94.522-38.534 87.43 0 127.245 65.638 127.245 126.624 0 33.197-11.123 63.93-31.315 86.522-22.528 25.203-55.213 38.528-94.522 38.528z"></path>
</svg>
