<!-- Generated by IcoMoon.io -->
<svg version="1.1" xmlns="http://www.w3.org/2000/svg" width="1024" height="1024" viewBox="0 0 1024 1024">
<title></title>
<g id="icomoon-ignore">
</g>
<path d="M512.042 986.707c-262.15 0-474.667-212.517-474.667-474.666 0-262.151 212.516-474.667 474.667-474.667 262.149 0 474.666 212.516 474.666 474.667 0 262.148-212.518 474.666-474.666 474.666zM512.042 890.707c209.129 0 378.666-169.537 378.666-378.666 0-209.131-169.536-378.667-378.666-378.667-209.132 0-378.667 169.535-378.667 378.667 0 209.13 169.536 378.666 378.667 378.666z"></path>
<path d="M560 482.334l144.135 72.066c23.711 11.855 33.322 40.688 21.467 64.399s-40.688 33.322-64.399 21.467l-170.669-85.333c-16.262-8.131-26.534-24.751-26.534-42.933v-256c0-26.51 21.49-48 48-48s48 21.49 48 48v226.334z"></path>
</svg>
